<?xml version="1.0" encoding="UTF-8" standalone="no"?>
<!-- Created with Inkscape (http://www.inkscape.org/) -->

<svg
   version="1.1"
   id="svg1"
   width="507.50391"
   height="258.71136"
   viewBox="0 0 507.5039 258.71136"
   xmlns="http://www.w3.org/2000/svg"
   xmlns:svg="http://www.w3.org/2000/svg">
  <defs
     id="defs1">
    <clipPath
       clipPathUnits="userSpaceOnUse"
       id="clipPath3241">
      <path
         d="M 0,0 H 382 V 195 H 0 Z"
         transform="matrix(10,0,0,10,-0.0025,2.5e-5)"
         id="path3241" />
    </clipPath>
    <clipPath
       clipPathUnits="userSpaceOnUse"
       id="clipPath3242">
      <path
         d="M 0,0 H 382 V 195 H 0 Z"
         transform="matrix(10,0,0,10,-0.0025,2.5e-5)"
         id="path3242" />
    </clipPath>
    <clipPath
       clipPathUnits="userSpaceOnUse"
       id="clipPath3243">
      <path
         d="M 0,0 H 382 V 195 H 0 Z"
         transform="matrix(10,0,0,10,-0.0025,2.5e-5)"
         id="path3243" />
    </clipPath>
    <clipPath
       clipPathUnits="userSpaceOnUse"
       id="clipPath3244">
      <path
         d="M 0,0 H 382 V 195 H 0 Z"
         transform="matrix(10,0,0,10,-0.0025,2.5e-5)"
         id="path3244" />
    </clipPath>
    <clipPath
       clipPathUnits="userSpaceOnUse"
       id="clipPath3245">
      <path
         d="M 0,0 H 382 V 195 H 0 Z"
         transform="matrix(10,0,0,10,-0.0025,2.5e-5)"
         id="path3245" />
    </clipPath>
    <clipPath
       clipPathUnits="userSpaceOnUse"
       id="clipPath3246">
      <path
         d="M 0,0 H 382 V 195 H 0 Z"
         transform="matrix(10,0,0,10,-0.0025,2.5e-5)"
         id="path3246" />
    </clipPath>
    <clipPath
       clipPathUnits="userSpaceOnUse"
       id="clipPath3247">
      <path
         d="M 0,0 H 382 V 195 H 0 Z"
         transform="matrix(10,0,0,10,-0.0025,2.5e-5)"
         id="path3247" />
    </clipPath>
    <clipPath
       clipPathUnits="userSpaceOnUse"
       id="clipPath3248">
      <path
         d="M 0,0 H 382 V 195 H 0 Z"
         transform="matrix(10,0,0,10,-0.0025,2.5e-5)"
         id="path3248" />
    </clipPath>
    <clipPath
       clipPathUnits="userSpaceOnUse"
       id="clipPath3249">
      <path
         d="M 0,0 H 382 V 195 H 0 Z"
         transform="matrix(10,0,0,10,-0.0025,2.5e-5)"
         id="path3249" />
    </clipPath>
    <clipPath
       clipPathUnits="userSpaceOnUse"
       id="clipPath3250">
      <path
         d="M 0,0 H 382 V 195 H 0 Z"
         transform="matrix(10,0,0,10,-0.0025,2.5e-5)"
         id="path3250" />
    </clipPath>
    <clipPath
       clipPathUnits="userSpaceOnUse"
       id="clipPath3251">
      <path
         d="M 0,0 H 382 V 195 H 0 Z"
         transform="matrix(10,0,0,10,-0.0025,2.5e-5)"
         id="path3251" />
    </clipPath>
    <clipPath
       clipPathUnits="userSpaceOnUse"
       id="clipPath3252">
      <path
         d="M 0,0 H 382 V 195 H 0 Z"
         transform="matrix(10,0,0,10,-0.0025,2.5e-5)"
         id="path3252" />
    </clipPath>
    <clipPath
       clipPathUnits="userSpaceOnUse"
       id="clipPath3253">
      <path
         d="M 0,0 H 382 V 195 H 0 Z"
         transform="matrix(10,0,0,10,-0.0025,2.5e-5)"
         id="path3253" />
    </clipPath>
    <clipPath
       clipPathUnits="userSpaceOnUse"
       id="clipPath3254">
      <path
         d="M 0,0 H 382 V 195 H 0 Z"
         transform="matrix(10,0,0,10,-0.0025,2.5e-5)"
         id="path3254" />
    </clipPath>
    <clipPath
       clipPathUnits="userSpaceOnUse"
       id="clipPath3255">
      <path
         d="M 0,0 H 382 V 195 H 0 Z"
         transform="matrix(10,0,0,10,-0.0025,2.5e-5)"
         id="path3255" />
    </clipPath>
    <clipPath
       clipPathUnits="userSpaceOnUse"
       id="clipPath3256">
      <path
         d="M 0,0 H 382 V 195 H 0 Z"
         transform="matrix(10,0,0,10,-0.0025,2.5e-5)"
         id="path3256" />
    </clipPath>
    <clipPath
       clipPathUnits="userSpaceOnUse"
       id="clipPath3257">
      <path
         d="M 0,0 H 382 V 195 H 0 Z"
         transform="matrix(10,0,0,10,-0.0025,2.5e-5)"
         id="path3257" />
    </clipPath>
    <clipPath
       clipPathUnits="userSpaceOnUse"
       id="clipPath3258">
      <path
         d="M 0,0 H 382 V 195 H 0 Z"
         transform="matrix(10,0,0,10,-0.0025,2.5e-5)"
         id="path3258" />
    </clipPath>
    <clipPath
       clipPathUnits="userSpaceOnUse"
       id="clipPath3259">
      <path
         d="M 0,0 H 382 V 195 H 0 Z"
         transform="matrix(10,0,0,10,-0.0025,2.5e-5)"
         id="path3259" />
    </clipPath>
    <clipPath
       clipPathUnits="userSpaceOnUse"
       id="clipPath3260">
      <path
         d="M 0,0 H 382 V 195 H 0 Z"
         transform="matrix(10,0,0,10,-0.0025,2.5e-5)"
         id="path3260" />
    </clipPath>
    <clipPath
       clipPathUnits="userSpaceOnUse"
       id="clipPath3261">
      <path
         d="M 0,0 H 382 V 195 H 0 Z"
         transform="matrix(10,0,0,10,-0.0025,2.5e-5)"
         id="path3261" />
    </clipPath>
    <clipPath
       clipPathUnits="userSpaceOnUse"
       id="clipPath3262">
      <path
         d="M 0,0 H 382 V 195 H 0 Z"
         transform="matrix(10,0,0,10,-0.0025,2.5e-5)"
         id="path3262" />
    </clipPath>
    <clipPath
       clipPathUnits="userSpaceOnUse"
       id="clipPath3263">
      <path
         d="M 0,0 H 382 V 195 H 0 Z"
         transform="matrix(10,0,0,10,-0.0025,2.5e-5)"
         id="path3263" />
    </clipPath>
    <clipPath
       clipPathUnits="userSpaceOnUse"
       id="clipPath3264">
      <path
         d="M 0,0 H 382 V 195 H 0 Z"
         transform="matrix(10,0,0,10,-0.0025,2.5e-5)"
         id="path3264" />
    </clipPath>
    <clipPath
       clipPathUnits="userSpaceOnUse"
       id="clipPath3265">
      <path
         d="M 0,0 H 382 V 195 H 0 Z"
         transform="matrix(10,0,0,10,-0.0025,2.5e-5)"
         id="path3265" />
    </clipPath>
    <clipPath
       clipPathUnits="userSpaceOnUse"
       id="clipPath3266">
      <path
         d="M 0,0 H 382 V 195 H 0 Z"
         transform="matrix(10,0,0,10,-0.0025,2.5e-5)"
         id="path3266" />
    </clipPath>
    <clipPath
       clipPathUnits="userSpaceOnUse"
       id="clipPath3267">
      <path
         d="M 0,0 H 382 V 195 H 0 Z"
         transform="matrix(10,0,0,10,-0.0025,2.5e-5)"
         id="path3267" />
    </clipPath>
    <clipPath
       clipPathUnits="userSpaceOnUse"
       id="clipPath3268">
      <path
         d="M 0,0 H 382 V 195 H 0 Z"
         transform="matrix(10,0,0,10,-0.0025,2.5e-5)"
         id="path3268" />
    </clipPath>
    <clipPath
       clipPathUnits="userSpaceOnUse"
       id="clipPath3269">
      <path
         d="M 0,0 H 382 V 195 H 0 Z"
         transform="matrix(10,0,0,10,-0.0025,2.5e-5)"
         id="path3269" />
    </clipPath>
    <clipPath
       clipPathUnits="userSpaceOnUse"
       id="clipPath3270">
      <path
         d="M 0,0 H 382 V 195 H 0 Z"
         transform="matrix(10,0,0,10,-0.0025,2.5e-5)"
         id="path3270" />
    </clipPath>
    <clipPath
       clipPathUnits="userSpaceOnUse"
       id="clipPath3271">
      <path
         d="M 0,0 H 382 V 195 H 0 Z"
         transform="matrix(10,0,0,10,-0.0025,2.5e-5)"
         id="path3271" />
    </clipPath>
    <clipPath
       clipPathUnits="userSpaceOnUse"
       id="clipPath3272">
      <path
         d="M 0,0 H 382 V 195 H 0 Z"
         transform="matrix(10,0,0,10,-0.0025,2.5e-5)"
         id="path3272" />
    </clipPath>
    <clipPath
       clipPathUnits="userSpaceOnUse"
       id="clipPath3273">
      <path
         d="M 0,0 H 382 V 195 H 0 Z"
         transform="matrix(10,0,0,10,-0.0025,2.5e-5)"
         id="path3273" />
    </clipPath>
    <clipPath
       clipPathUnits="userSpaceOnUse"
       id="clipPath3274">
      <path
         d="M 0,0 H 382 V 195 H 0 Z"
         transform="matrix(10,0,0,10,-0.0025,2.5e-5)"
         id="path3274" />
    </clipPath>
    <clipPath
       clipPathUnits="userSpaceOnUse"
       id="clipPath3275">
      <path
         d="M 0,0 H 382 V 195 H 0 Z"
         transform="matrix(10,0,0,10,-0.0025,2.5e-5)"
         id="path3275" />
    </clipPath>
    <clipPath
       clipPathUnits="userSpaceOnUse"
       id="clipPath3276">
      <path
         d="M 0,0 H 382 V 195 H 0 Z"
         transform="matrix(10,0,0,10,-0.0025,2.5e-5)"
         id="path3276" />
    </clipPath>
    <clipPath
       clipPathUnits="userSpaceOnUse"
       id="clipPath3277">
      <path
         d="M 0,0 H 382 V 195 H 0 Z"
         transform="matrix(10,0,0,10,-0.0025,2.5e-5)"
         id="path3277" />
    </clipPath>
    <clipPath
       clipPathUnits="userSpaceOnUse"
       id="clipPath3278">
      <path
         d="M 0,0 H 382 V 195 H 0 Z"
         transform="matrix(10,0,0,10,-0.0025,2.5e-5)"
         id="path3278" />
    </clipPath>
    <clipPath
       clipPathUnits="userSpaceOnUse"
       id="clipPath3279">
      <path
         d="M 0,0 H 382 V 195 H 0 Z"
         transform="matrix(10,0,0,10,-0.0025,2.5e-5)"
         id="path3279" />
    </clipPath>
    <clipPath
       clipPathUnits="userSpaceOnUse"
       id="clipPath3280">
      <path
         d="M 0,0 H 382 V 195 H 0 Z"
         transform="matrix(10,0,0,10,-0.0025,2.5e-5)"
         id="path3280" />
    </clipPath>
    <clipPath
       clipPathUnits="userSpaceOnUse"
       id="clipPath3281">
      <path
         d="M 0,0 H 382 V 195 H 0 Z"
         transform="matrix(10,0,0,10,-0.0025,2.5e-5)"
         id="path3281" />
    </clipPath>
    <clipPath
       clipPathUnits="userSpaceOnUse"
       id="clipPath3282">
      <path
         d="M 0,0 H 382 V 195 H 0 Z"
         transform="matrix(10,0,0,10,-0.0025,2.5e-5)"
         id="path3282" />
    </clipPath>
    <clipPath
       clipPathUnits="userSpaceOnUse"
       id="clipPath3283">
      <path
         d="M 0,0 H 382 V 195 H 0 Z"
         transform="matrix(10,0,0,10,-0.0025,2.5e-5)"
         id="path3283" />
    </clipPath>
    <clipPath
       clipPathUnits="userSpaceOnUse"
       id="clipPath3284">
      <path
         d="M 0,0 H 382 V 195 H 0 Z"
         transform="matrix(10,0,0,10,-0.0025,2.5e-5)"
         id="path3284" />
    </clipPath>
    <clipPath
       clipPathUnits="userSpaceOnUse"
       id="clipPath3285">
      <path
         d="M 0,0 H 382 V 195 H 0 Z"
         transform="matrix(10,0,0,10,-0.0025,2.5e-5)"
         id="path3285" />
    </clipPath>
    <clipPath
       clipPathUnits="userSpaceOnUse"
       id="clipPath3286">
      <path
         d="M 0,0 H 382 V 195 H 0 Z"
         transform="matrix(10,0,0,10,-0.0025,2.5e-5)"
         id="path3286" />
    </clipPath>
    <clipPath
       clipPathUnits="userSpaceOnUse"
       id="clipPath3287">
      <path
         d="M 0,0 H 382 V 195 H 0 Z"
         transform="matrix(10,0,0,10,-0.0025,2.5e-5)"
         id="path3287" />
    </clipPath>
    <clipPath
       clipPathUnits="userSpaceOnUse"
       id="clipPath3288">
      <path
         d="M 0,0 H 382 V 195 H 0 Z"
         transform="matrix(10,0,0,10,-0.0025,2.5e-5)"
         id="path3288" />
    </clipPath>
    <clipPath
       clipPathUnits="userSpaceOnUse"
       id="clipPath3289">
      <path
         d="M 0,0 H 382 V 195 H 0 Z"
         transform="matrix(10,0,0,10,-0.0025,2.5e-5)"
         id="path3289" />
    </clipPath>
    <clipPath
       clipPathUnits="userSpaceOnUse"
       id="clipPath3290">
      <path
         d="M 0,0 H 382 V 195 H 0 Z"
         transform="matrix(10,0,0,10,-0.0025,2.5e-5)"
         id="path3290" />
    </clipPath>
    <clipPath
       clipPathUnits="userSpaceOnUse"
       id="clipPath3291">
      <path
         d="M 0,0 H 382 V 195 H 0 Z"
         transform="matrix(10,0,0,10,-0.0025,2.5e-5)"
         id="path3291" />
    </clipPath>
    <clipPath
       clipPathUnits="userSpaceOnUse"
       id="clipPath3292">
      <path
         d="M 0,0 H 382 V 195 H 0 Z"
         transform="matrix(10,0,0,10,-0.0025,2.5e-5)"
         id="path3292" />
    </clipPath>
    <clipPath
       clipPathUnits="userSpaceOnUse"
       id="clipPath3293">
      <path
         d="M 0,0 H 382 V 195 H 0 Z"
         transform="matrix(10,0,0,10,-0.0025,2.5e-5)"
         id="path3293" />
    </clipPath>
    <clipPath
       clipPathUnits="userSpaceOnUse"
       id="clipPath3294">
      <path
         d="M 0,0 H 382 V 195 H 0 Z"
         transform="matrix(10,0,0,10,-0.0025,2.5e-5)"
         id="path3294" />
    </clipPath>
    <clipPath
       clipPathUnits="userSpaceOnUse"
       id="clipPath3295">
      <path
         d="M 0,0 H 382 V 195 H 0 Z"
         transform="matrix(10,0,0,10,-0.0025,2.5e-5)"
         id="path3295" />
    </clipPath>
    <clipPath
       clipPathUnits="userSpaceOnUse"
       id="clipPath3296">
      <path
         d="M 0,0 H 382 V 195 H 0 Z"
         transform="matrix(10,0,0,10,-0.0025,2.5e-5)"
         id="path3296" />
    </clipPath>
    <clipPath
       clipPathUnits="userSpaceOnUse"
       id="clipPath3297">
      <path
         d="M 0,0 H 382 V 195 H 0 Z"
         transform="matrix(10,0,0,10,-0.0025,2.5e-5)"
         id="path3297" />
    </clipPath>
    <clipPath
       clipPathUnits="userSpaceOnUse"
       id="clipPath3298">
      <path
         d="M 0,0 H 382 V 195 H 0 Z"
         transform="matrix(10,0,0,10,-0.0025,2.5e-5)"
         id="path3298" />
    </clipPath>
    <clipPath
       clipPathUnits="userSpaceOnUse"
       id="clipPath3299">
      <path
         d="M 0,0 H 382 V 195 H 0 Z"
         transform="matrix(10,0,0,10,-0.0025,2.5e-5)"
         id="path3299" />
    </clipPath>
    <clipPath
       clipPathUnits="userSpaceOnUse"
       id="clipPath3300">
      <path
         d="M 0,0 H 382 V 195 H 0 Z"
         transform="matrix(10,0,0,10,-0.0025,2.5e-5)"
         id="path3300" />
    </clipPath>
    <clipPath
       clipPathUnits="userSpaceOnUse"
       id="clipPath3301">
      <path
         d="M 0,0 H 382 V 195 H 0 Z"
         transform="matrix(10,0,0,10,-0.0025,2.5e-5)"
         id="path3301" />
    </clipPath>
    <clipPath
       clipPathUnits="userSpaceOnUse"
       id="clipPath3302">
      <path
         d="M 0,0 H 382 V 195 H 0 Z"
         transform="matrix(10,0,0,10,-0.0025,2.5e-5)"
         id="path3302" />
    </clipPath>
    <clipPath
       clipPathUnits="userSpaceOnUse"
       id="clipPath3303">
      <path
         d="M 0,0 H 382 V 195 H 0 Z"
         transform="matrix(10,0,0,10,-0.0025,2.5e-5)"
         id="path3303" />
    </clipPath>
    <clipPath
       clipPathUnits="userSpaceOnUse"
       id="clipPath3304">
      <path
         d="M 0,0 H 382 V 195 H 0 Z"
         transform="matrix(10,0,0,10,-0.0025,2.5e-5)"
         id="path3304" />
    </clipPath>
    <clipPath
       clipPathUnits="userSpaceOnUse"
       id="clipPath3305">
      <path
         d="M 0,0 H 382 V 195 H 0 Z"
         transform="matrix(10,0,0,10,-0.0025,2.5e-5)"
         id="path3305" />
    </clipPath>
    <clipPath
       clipPathUnits="userSpaceOnUse"
       id="clipPath3306">
      <path
         d="M 0,0 H 382 V 195 H 0 Z"
         transform="matrix(10,0,0,10,-0.0025,2.5e-5)"
         id="path3306" />
    </clipPath>
    <clipPath
       clipPathUnits="userSpaceOnUse"
       id="clipPath3307">
      <path
         d="M 0,0 H 382 V 195 H 0 Z"
         transform="matrix(10,0,0,10,-0.0025,2.5e-5)"
         id="path3307" />
    </clipPath>
    <clipPath
       clipPathUnits="userSpaceOnUse"
       id="clipPath3308">
      <path
         d="M 0,0 H 382 V 195 H 0 Z"
         transform="matrix(10,0,0,10,-0.0025,2.5e-5)"
         id="path3308" />
    </clipPath>
    <clipPath
       clipPathUnits="userSpaceOnUse"
       id="clipPath3309">
      <path
         d="M 0,0 H 382 V 195 H 0 Z"
         transform="matrix(10,0,0,10,-0.0025,2.5e-5)"
         id="path3309" />
    </clipPath>
    <clipPath
       clipPathUnits="userSpaceOnUse"
       id="clipPath3310">
      <path
         d="M 0,0 H 382 V 195 H 0 Z"
         transform="matrix(10,0,0,10,-0.0025,2.5e-5)"
         id="path3310" />
    </clipPath>
    <clipPath
       clipPathUnits="userSpaceOnUse"
       id="clipPath3311">
      <path
         d="M 0,0 H 382 V 195 H 0 Z"
         transform="matrix(10,0,0,10,-0.0025,2.5e-5)"
         id="path3311" />
    </clipPath>
    <clipPath
       clipPathUnits="userSpaceOnUse"
       id="clipPath3312">
      <path
         d="M 0,0 H 382 V 195 H 0 Z"
         transform="matrix(10,0,0,10,-0.0025,2.5e-5)"
         id="path3312" />
    </clipPath>
    <clipPath
       clipPathUnits="userSpaceOnUse"
       id="clipPath3313">
      <path
         d="M 0,0 H 382 V 195 H 0 Z"
         transform="matrix(10,0,0,10,-0.0025,2.5e-5)"
         id="path3313" />
    </clipPath>
    <clipPath
       clipPathUnits="userSpaceOnUse"
       id="clipPath3314">
      <path
         d="M 0,0 H 382 V 195 H 0 Z"
         transform="matrix(10,0,0,10,-0.0025,2.5e-5)"
         id="path3314" />
    </clipPath>
    <clipPath
       clipPathUnits="userSpaceOnUse"
       id="clipPath3315">
      <path
         d="M 0,0 H 382 V 195 H 0 Z"
         transform="matrix(10,0,0,10,-0.0025,2.5e-5)"
         id="path3315" />
    </clipPath>
    <clipPath
       clipPathUnits="userSpaceOnUse"
       id="clipPath3316">
      <path
         d="M 0,0 H 382 V 195 H 0 Z"
         transform="matrix(10,0,0,10,-0.0025,2.5e-5)"
         id="path3316" />
    </clipPath>
    <clipPath
       clipPathUnits="userSpaceOnUse"
       id="clipPath3317">
      <path
         d="M 0,0 H 382 V 195 H 0 Z"
         transform="matrix(10,0,0,10,-0.0025,2.5e-5)"
         id="path3317" />
    </clipPath>
    <clipPath
       clipPathUnits="userSpaceOnUse"
       id="clipPath3318">
      <path
         d="M 0,0 H 382 V 195 H 0 Z"
         transform="matrix(10,0,0,10,-0.0025,2.5e-5)"
         id="path3318" />
    </clipPath>
    <clipPath
       clipPathUnits="userSpaceOnUse"
       id="clipPath3319">
      <path
         d="M 0,0 H 382 V 195 H 0 Z"
         transform="matrix(10,0,0,10,-0.0025,2.5e-5)"
         id="path3319" />
    </clipPath>
    <clipPath
       clipPathUnits="userSpaceOnUse"
       id="clipPath3320">
      <path
         d="M 0,0 H 382 V 195 H 0 Z"
         transform="matrix(10,0,0,10,-0.0025,2.5e-5)"
         id="path3320" />
    </clipPath>
    <clipPath
       clipPathUnits="userSpaceOnUse"
       id="clipPath3321">
      <path
         d="M 0,0 H 382 V 195 H 0 Z"
         transform="matrix(10,0,0,10,-0.0025,2.5e-5)"
         id="path3321" />
    </clipPath>
    <clipPath
       clipPathUnits="userSpaceOnUse"
       id="clipPath3322">
      <path
         d="M 0,0 H 382 V 195 H 0 Z"
         transform="matrix(10,0,0,10,-0.0025,2.5e-5)"
         id="path3322" />
    </clipPath>
    <clipPath
       clipPathUnits="userSpaceOnUse"
       id="clipPath3323">
      <path
         d="M 0,0 H 382 V 195 H 0 Z"
         transform="matrix(10,0,0,10,-0.0025,2.5e-5)"
         id="path3323" />
    </clipPath>
    <clipPath
       clipPathUnits="userSpaceOnUse"
       id="clipPath3324">
      <path
         d="M 0,0 H 382 V 195 H 0 Z"
         transform="matrix(10,0,0,10,-0.0025,2.5e-5)"
         id="path3324" />
    </clipPath>
    <clipPath
       clipPathUnits="userSpaceOnUse"
       id="clipPath3325">
      <path
         d="M 0,0 H 382 V 195 H 0 Z"
         transform="matrix(10,0,0,10,-0.0025,2.5e-5)"
         id="path3325" />
    </clipPath>
    <clipPath
       clipPathUnits="userSpaceOnUse"
       id="clipPath3326">
      <path
         d="M 0,0 H 382 V 195 H 0 Z"
         transform="matrix(10,0,0,10,-0.0025,2.5e-5)"
         id="path3326" />
    </clipPath>
    <clipPath
       clipPathUnits="userSpaceOnUse"
       id="clipPath3327">
      <path
         d="M 0,0 H 382 V 195 H 0 Z"
         transform="matrix(10,0,0,10,-0.0025,2.5e-5)"
         id="path3327" />
    </clipPath>
    <clipPath
       clipPathUnits="userSpaceOnUse"
       id="clipPath3328">
      <path
         d="M 0,0 H 382 V 195 H 0 Z"
         transform="matrix(10,0,0,10,-0.0025,2.5e-5)"
         id="path3328" />
    </clipPath>
    <clipPath
       clipPathUnits="userSpaceOnUse"
       id="clipPath3329">
      <path
         d="M 0,0 H 382 V 195 H 0 Z"
         transform="matrix(10,0,0,10,-0.0025,2.5e-5)"
         id="path3329" />
    </clipPath>
    <clipPath
       clipPathUnits="userSpaceOnUse"
       id="clipPath3330">
      <path
         d="M 0,0 H 382 V 195 H 0 Z"
         transform="matrix(10,0,0,10,-0.0025,2.5e-5)"
         id="path3330" />
    </clipPath>
    <clipPath
       clipPathUnits="userSpaceOnUse"
       id="clipPath3331">
      <path
         d="M 0,0 H 382 V 195 H 0 Z"
         transform="matrix(10,0,0,10,-0.0025,2.5e-5)"
         id="path3331" />
    </clipPath>
    <clipPath
       clipPathUnits="userSpaceOnUse"
       id="clipPath3332">
      <path
         d="M 0,0 H 382 V 195 H 0 Z"
         transform="matrix(10,0,0,10,-0.0025,2.5e-5)"
         id="path3332" />
    </clipPath>
    <clipPath
       clipPathUnits="userSpaceOnUse"
       id="clipPath3333">
      <path
         d="M 0,0 H 382 V 195 H 0 Z"
         transform="matrix(10,0,0,10,-0.0025,2.5e-5)"
         id="path3333" />
    </clipPath>
    <clipPath
       clipPathUnits="userSpaceOnUse"
       id="clipPath3334">
      <path
         d="M 0,0 H 382 V 195 H 0 Z"
         transform="matrix(10,0,0,10,-0.0025,2.5e-5)"
         id="path3334" />
    </clipPath>
    <clipPath
       clipPathUnits="userSpaceOnUse"
       id="clipPath3335">
      <path
         d="M 0,0 H 382 V 195 H 0 Z"
         transform="matrix(10,0,0,10,-0.0025,2.5e-5)"
         id="path3335" />
    </clipPath>
    <clipPath
       clipPathUnits="userSpaceOnUse"
       id="clipPath3336">
      <path
         d="M 0,0 H 382 V 195 H 0 Z"
         transform="matrix(10,0,0,10,-0.0025,2.5e-5)"
         id="path3336" />
    </clipPath>
    <clipPath
       clipPathUnits="userSpaceOnUse"
       id="clipPath3337">
      <path
         d="M 0,0 H 382 V 195 H 0 Z"
         transform="matrix(10,0,0,10,-0.0025,2.5e-5)"
         id="path3337" />
    </clipPath>
    <clipPath
       clipPathUnits="userSpaceOnUse"
       id="clipPath3338">
      <path
         d="M 0,0 H 382 V 195 H 0 Z"
         transform="matrix(10,0,0,10,-0.0025,2.5e-5)"
         id="path3338" />
    </clipPath>
    <clipPath
       clipPathUnits="userSpaceOnUse"
       id="clipPath3339">
      <path
         d="M 0,0 H 382 V 195 H 0 Z"
         transform="matrix(10,0,0,10,-0.0025,2.5e-5)"
         id="path3339" />
    </clipPath>
    <clipPath
       clipPathUnits="userSpaceOnUse"
       id="clipPath3340">
      <path
         d="M 0,0 H 382 V 195 H 0 Z"
         transform="matrix(10,0,0,10,-0.0025,2.5e-5)"
         id="path3340" />
    </clipPath>
    <clipPath
       clipPathUnits="userSpaceOnUse"
       id="clipPath3341">
      <path
         d="M 0,0 H 382 V 195 H 0 Z"
         transform="matrix(10,0,0,10,-0.0025,2.5e-5)"
         id="path3341" />
    </clipPath>
    <clipPath
       clipPathUnits="userSpaceOnUse"
       id="clipPath3342">
      <path
         d="M 0,0 H 382 V 195 H 0 Z"
         transform="matrix(10,0,0,10,-0.0025,2.5e-5)"
         id="path3342" />
    </clipPath>
    <clipPath
       clipPathUnits="userSpaceOnUse"
       id="clipPath3343">
      <path
         d="M 0,0 H 382 V 195 H 0 Z"
         transform="matrix(10,0,0,10,-0.0025,2.5e-5)"
         id="path3343" />
    </clipPath>
    <clipPath
       clipPathUnits="userSpaceOnUse"
       id="clipPath3344">
      <path
         d="M 0,0 H 382 V 195 H 0 Z"
         transform="matrix(10,0,0,10,-0.0025,2.5e-5)"
         id="path3344" />
    </clipPath>
    <clipPath
       clipPathUnits="userSpaceOnUse"
       id="clipPath3345">
      <path
         d="M 0,0 H 382 V 195 H 0 Z"
         transform="matrix(10,0,0,10,-0.0025,2.5e-5)"
         id="path3345" />
    </clipPath>
    <clipPath
       clipPathUnits="userSpaceOnUse"
       id="clipPath3346">
      <path
         d="M 0,0 H 382 V 195 H 0 Z"
         transform="matrix(10,0,0,10,-0.0025,2.5e-5)"
         id="path3346" />
    </clipPath>
    <clipPath
       clipPathUnits="userSpaceOnUse"
       id="clipPath3347">
      <path
         d="M 0,0 H 382 V 195 H 0 Z"
         transform="matrix(10,0,0,10,-0.0025,2.5e-5)"
         id="path3347" />
    </clipPath>
    <clipPath
       clipPathUnits="userSpaceOnUse"
       id="clipPath3348">
      <path
         d="M 0,0 H 382 V 195 H 0 Z"
         transform="matrix(10,0,0,10,-0.0025,2.5e-5)"
         id="path3348" />
    </clipPath>
    <clipPath
       clipPathUnits="userSpaceOnUse"
       id="clipPath3349">
      <path
         d="M 0,0 H 382 V 195 H 0 Z"
         transform="matrix(10,0,0,10,-0.0025,2.5e-5)"
         id="path3349" />
    </clipPath>
    <clipPath
       clipPathUnits="userSpaceOnUse"
       id="clipPath3350">
      <path
         d="M 0,0 H 382 V 195 H 0 Z"
         transform="matrix(10,0,0,10,-0.0025,2.5e-5)"
         id="path3350" />
    </clipPath>
    <clipPath
       clipPathUnits="userSpaceOnUse"
       id="clipPath3351">
      <path
         d="M 0,0 H 382 V 195 H 0 Z"
         transform="matrix(10,0,0,10,-0.0025,2.5e-5)"
         id="path3351" />
    </clipPath>
    <clipPath
       clipPathUnits="userSpaceOnUse"
       id="clipPath3352">
      <path
         d="M 0,0 H 382 V 195 H 0 Z"
         transform="matrix(10,0,0,10,-0.0025,2.5e-5)"
         id="path3352" />
    </clipPath>
    <clipPath
       clipPathUnits="userSpaceOnUse"
       id="clipPath3353">
      <path
         d="M 0,0 H 382 V 195 H 0 Z"
         transform="matrix(10,0,0,10,-0.0025,2.5e-5)"
         id="path3353" />
    </clipPath>
    <clipPath
       clipPathUnits="userSpaceOnUse"
       id="clipPath3354">
      <path
         d="M 0,0 H 382 V 195 H 0 Z"
         transform="matrix(10,0,0,10,-0.0025,2.5e-5)"
         id="path3354" />
    </clipPath>
    <clipPath
       clipPathUnits="userSpaceOnUse"
       id="clipPath3355">
      <path
         d="M 0,0 H 382 V 195 H 0 Z"
         transform="matrix(10,0,0,10,-0.0025,2.5e-5)"
         id="path3355" />
    </clipPath>
  </defs>
  <g
     id="g3238"
     transform="translate(-26183.126,-155.47068)">
    <g
       id="g3470">
      <path
         d="m 2165.24,1502.54 c 256.67,166.74 492.24,29.53 672.02,0.1 228.1,-37.33 361.51,166.02 586.31,221.2"
         style="fill:none;stroke:#ffffff;stroke-width:11.3386;stroke-linecap:butt;stroke-linejoin:miter;stroke-miterlimit:22.9256;stroke-dasharray:none;stroke-opacity:1"
         transform="matrix(0.13333333,0,0,-0.13333333,26182.139,415.11067)"
         clip-path="url(#clipPath3241)"
         id="path3356" />
      <path
         d="m 2660.63,1561.09 c 9.37,0.69 17.52,-6.35 18.21,-15.71 0.68,-9.37 -6.36,-17.52 -15.72,-18.21 -9.37,-0.69 -17.52,6.35 -18.21,15.72 -0.68,9.36 6.36,17.52 15.72,18.2 z"
         style="fill:none;stroke:#ffffff;stroke-width:5.6693;stroke-linecap:butt;stroke-linejoin:miter;stroke-miterlimit:22.9256;stroke-dasharray:none;stroke-opacity:1"
         transform="matrix(0.13333333,0,0,-0.13333333,26182.139,415.11067)"
         clip-path="url(#clipPath3242)"
         id="path3357" />
      <path
         d="m 2622.93,1680.6 259.12,-53.79 -181.23,-219.15 -259.12,53.79 z"
         style="fill:none;stroke:#ffffff;stroke-width:5.6693;stroke-linecap:butt;stroke-linejoin:miter;stroke-miterlimit:22.9256;stroke-dasharray:none;stroke-opacity:1"
         transform="matrix(0.13333333,0,0,-0.13333333,26182.139,415.11067)"
         clip-path="url(#clipPath3243)"
         id="path3358" />
      <path
         d="M 987.258,1135.79 C 939.121,1002.56 942.527,925.402 989.406,768.391"
         style="fill:none;stroke:#ffffff;stroke-width:5.6693;stroke-linecap:butt;stroke-linejoin:miter;stroke-miterlimit:22.9256;stroke-dasharray:none;stroke-opacity:1"
         transform="matrix(0.13333333,0,0,-0.13333333,26182.139,415.11067)"
         clip-path="url(#clipPath3244)"
         id="path3359" />
      <path
         d="m 997.406,739.758 -1.238,64.531 c -8.496,-11.809 -19.527,-15.101 -33.098,-9.883 l 34.336,-54.648"
         style="fill:#ffffff;fill-opacity:1;fill-rule:evenodd;stroke:none"
         transform="matrix(0.13333333,0,0,-0.13333333,26182.139,415.11067)"
         clip-path="url(#clipPath3245)"
         id="path3360" />
      <path
         d="m 3787.31,1698.85 c 0.01,-2.52 -1.9,-3.12 -8.23,-5.61 -346.75,-136.5 -546.56,-286.18 -769.85,-588.44 -4.15,-5.62 -7.01,-9.47 -13.99,-10.7 -6.87,-1.22 -9.98,1.58 -15.68,5.47 -374.08,256.27 -672.57,374.23 -1267.29,335 -2.97,-0.19 -3.44,0.34 -4.8,1.46 -0.44,0.36 -0.54,2.66 1.44,4.27 502.84,407.61 1557.95,478.65 2070.87,264.42 5.88,-2.45 7.52,-2.9 7.53,-5.87 z"
         style="fill:none;stroke:#ffffff;stroke-width:11.3386;stroke-linecap:butt;stroke-linejoin:round;stroke-miterlimit:22.9256;stroke-dasharray:none;stroke-opacity:1"
         transform="matrix(0.13333333,0,0,-0.13333333,26182.139,415.11067)"
         clip-path="url(#clipPath3246)"
         id="path3361" />
      <path
         d="m 2737.32,1116.37 c 26.37,-83.15 35.17,-168.214 12.62,-259.065"
         style="fill:none;stroke:#ffffff;stroke-width:5.6693;stroke-linecap:butt;stroke-linejoin:miter;stroke-miterlimit:22.9256;stroke-dasharray:none;stroke-opacity:1"
         transform="matrix(0.13333333,0,0,-0.13333333,26182.139,415.11067)"
         clip-path="url(#clipPath3247)"
         id="path3362" />
      <path
         d="m 2742.27,828.586 31.75,56.195 c -13.32,-5.847 -24.49,-3.078 -33.53,8.321 l 1.78,-64.516"
         style="fill:#ffffff;fill-opacity:1;fill-rule:evenodd;stroke:none"
         transform="matrix(0.13333333,0,0,-0.13333333,26182.139,415.11067)"
         clip-path="url(#clipPath3248)"
         id="path3363" />
      <path
         d="m 326.402,1125.85 c 74.368,173.53 404.688,186.29 564.375,186.29 215.693,0 342.143,-52.94 536.973,93.15"
         style="fill:none;stroke:#ffffff;stroke-width:11.3386;stroke-linecap:butt;stroke-linejoin:miter;stroke-miterlimit:22.9256;stroke-dasharray:none;stroke-opacity:1"
         transform="matrix(0.13333333,0,0,-0.13333333,26182.139,415.11067)"
         clip-path="url(#clipPath3250)"
         id="path3365" />
      <path
         d="m 1944.24,495.305 c 3.23,-15.543 8.49,-41.129 15.3,-54.996 2.64,-5.137 3.95,-7.77 5.14,-7.77 0.48,0 0.72,0 2.87,2.152 9.09,8.731 15.31,15.661 23.67,25.223 l 26.19,30.492 c -1.68,-10.164 -5.98,-37.066 -5.98,-51.054 0,-3.223 0.12,-6.336 0.48,-9.563 0.12,-1.316 0.59,-4.785 5.62,-4.785 5.02,0.004 14.1,5.262 14.1,7.652 0,0.723 -0.72,0.84 -1.07,0.84 -1.56,0 -3.95,-1.078 -5.26,-1.914 -2.87,0.363 -3.11,2.27 -3.35,5.02 -0.36,3.832 -0.36,7.414 -0.36,7.894 0,13.274 5.26,49.492 8.73,64.317 0.12,0.839 0.24,1.078 0.24,2.031 0,0.48 -0.12,1.797 -0.96,1.797 -0.48,0 -0.6,-0.125 -2.87,-2.75 -11.24,-13.629 -46.14,-55.477 -57.98,-65.516 -2.99,6.34 -5.14,10.879 -9.32,27.613 -3.48,13.512 -5.51,23.434 -7.54,35.032 -0.36,1.675 -0.96,4.902 -0.96,5.14 -0.35,0.598 -0.95,0.598 -1.31,0.598 -2.15,0 -7.17,-2.629 -7.53,-5.141 -1.44,-10.043 -3.82,-25.824 -12.2,-48.656 -9.56,-25.465 -12.19,-25.465 -14.46,-25.465 -1.55,0 -5.98,0.953 -8.61,3.348 -0.6,0.594 -0.84,0.594 -1.07,0.594 -1.68,0 -4.31,-5.375 -4.31,-8.723 0,-1.074 0,-2.512 3.83,-4.547 2.99,-1.547 5.86,-1.672 6.45,-1.672 7.42,0.004 14.47,17.098 16.86,23.195 5.62,13.512 12.31,32.395 15.66,49.61 v 0.004"
         style="fill:#ffffff;fill-opacity:1;fill-rule:evenodd;stroke:none"
         transform="matrix(0.13333333,0,0,-0.13333333,26182.139,415.11067)"
         clip-path="url(#clipPath3251)"
         id="path3366" />
      <path
         d="m 324.027,441.887 c 2.153,-6.219 4.782,-15.184 10.161,-29.891 7.531,-20.324 10.878,-27.734 18.171,-39.094 1.676,-2.511 1.793,-2.629 2.868,-2.629 1.675,0 4.187,1.434 5.5,2.387 1.675,1.559 1.793,1.676 3.109,7.535 7.176,31.446 16.262,64.196 18.648,69.7 0.121,0.242 2.512,4.781 17.219,5.019 2.391,0.121 4.66,6.453 4.66,9.086 0.004,1.914 -0.718,1.914 -2.39,1.914 -11.953,0 -17.332,-5.019 -18.77,-6.578 -3.344,-4.301 -6.219,-13.031 -11.715,-32.996 -4.183,-15.297 -8.008,-30.844 -11.718,-46.266 -6.571,9.926 -10.282,19.367 -16.016,34.789 -6.34,16.985 -10.164,29.41 -13.391,40.172 -0.718,2.395 -0.836,2.508 -1.914,2.508 -0.238,0 -2.633,0 -6.097,-2.867 -1.196,-1.074 -1.317,-2.153 -1.434,-3.465 -3.348,-31.805 -14.586,-63.246 -17.813,-68.984 -0.957,-1.789 -2.39,-3.946 -4.785,-3.946 -1.195,0 -5.859,0.598 -8.965,3.469 -0.597,0.477 -0.835,0.477 -0.953,0.477 -1.914,0 -4.425,-5.977 -4.425,-8.848 0,-3.703 7.293,-6.094 10.64,-6.094 7.653,0 13.746,16.856 15.66,22.352 7.77,21.644 11.477,39.453 13.75,52.246 v 0.004"
         style="fill:#ffffff;fill-opacity:1;fill-rule:evenodd;stroke:none"
         transform="matrix(0.13333333,0,0,-0.13333333,26182.139,415.11067)"
         clip-path="url(#clipPath3252)"
         id="path3367" />
      <path
         d="m 1257.29,637.184 c 209.73,94.812 376,94.421 608.82,13.082"
         style="fill:none;stroke:#ffffff;stroke-width:5.6693;stroke-linecap:butt;stroke-linejoin:miter;stroke-miterlimit:22.9256;stroke-dasharray:none;stroke-opacity:1"
         transform="matrix(0.13333333,0,0,-0.13333333,26182.139,415.11067)"
         clip-path="url(#clipPath3253)"
         id="path3368" />
      <path
         d="m 1893.99,639.973 -53.01,36.812 c 4.59,-13.801 0.79,-24.668 -11.39,-32.605 l 64.4,-4.207"
         style="fill:#ffffff;fill-opacity:1;fill-rule:evenodd;stroke:none"
         transform="matrix(0.13333333,0,0,-0.13333333,26182.139,415.11067)"
         clip-path="url(#clipPath3254)"
         id="path3369" />
      <path
         d="m 3091.5,1400.35 218.91,-148.7 -251.2,-133.3 -218.92,148.7 z"
         style="fill:none;stroke:#ffffff;stroke-width:5.6693;stroke-linecap:butt;stroke-linejoin:miter;stroke-miterlimit:22.9256;stroke-dasharray:none;stroke-opacity:1"
         transform="matrix(0.13333333,0,0,-0.13333333,26182.139,415.11067)"
         clip-path="url(#clipPath3256)"
         id="path3371" />
      <path
         d="M 3573.3,1779.15 3808.07,1657 3574.14,1495.31 3339.37,1617.45 Z"
         style="fill:none;stroke:#ffffff;stroke-width:5.6693;stroke-linecap:butt;stroke-linejoin:miter;stroke-miterlimit:22.9256;stroke-dasharray:none;stroke-opacity:1"
         transform="matrix(0.13333333,0,0,-0.13333333,26182.139,415.11067)"
         clip-path="url(#clipPath3258)"
         id="path3373" />
      <path
         d="m 2671.42,1732.67 227.61,131.2 271.02,-64.26 -227.61,-131.21 z"
         style="fill:none;stroke:#ffffff;stroke-width:5.6693;stroke-linecap:butt;stroke-linejoin:miter;stroke-miterlimit:22.9256;stroke-dasharray:none;stroke-opacity:1"
         transform="matrix(0.13333333,0,0,-0.13333333,26182.139,415.11067)"
         clip-path="url(#clipPath3260)"
         id="path3375" />
      <path
         d="m 3577.13,1653.89 c 9.2,-1.88 15.13,-10.87 13.25,-20.07 -1.88,-9.2 -10.87,-15.13 -20.07,-13.25 -9.2,1.88 -15.13,10.87 -13.26,20.07 1.89,9.2 10.88,15.13 20.08,13.25"
         style="fill:#ffffff;fill-opacity:1;fill-rule:evenodd;stroke:none"
         transform="matrix(0.13333333,0,0,-0.13333333,26182.139,415.11067)"
         clip-path="url(#clipPath3261)"
         id="path3376" />
      <path
         d="m 2924.15,1782.8 c 9.2,-1.88 15.13,-10.87 13.25,-20.07 -1.88,-9.2 -10.87,-15.14 -20.07,-13.25 -9.2,1.88 -15.13,10.87 -13.26,20.07 1.89,9.2 10.88,15.13 20.08,13.25"
         style="fill:#ffffff;fill-opacity:1;fill-rule:evenodd;stroke:none"
         transform="matrix(0.13333333,0,0,-0.13333333,26182.139,415.11067)"
         clip-path="url(#clipPath3262)"
         id="path3377" />
      <path
         d="m 3080.68,1275.5 c 8.92,-2.95 13.77,-12.57 10.82,-21.48 -2.94,-8.92 -12.56,-13.77 -21.48,-10.82 -8.91,2.94 -13.76,12.57 -10.82,21.48 2.95,8.92 12.57,13.77 21.48,10.82"
         style="fill:#ffffff;fill-opacity:1;fill-rule:evenodd;stroke:none"
         transform="matrix(0.13333333,0,0,-0.13333333,26182.139,415.11067)"
         clip-path="url(#clipPath3263)"
         id="path3378" />
      <path
         d="m 956.531,1599.59 144.679,145.77 87.38,-230.7 -144.67,-145.76 z"
         style="fill:none;stroke:#ffffff;stroke-width:5.6693;stroke-linecap:butt;stroke-linejoin:miter;stroke-miterlimit:22.9256;stroke-dasharray:none;stroke-opacity:1"
         transform="matrix(0.13333333,0,0,-0.13333333,26182.139,415.11067)"
         clip-path="url(#clipPath3264)"
         id="path3379" />
      <path
         d="m 1306.68,1604.26 c 9.39,0 17,-7.61 17,-17 0,-9.4 -7.61,-17.01 -17,-17.01 -9.39,0 -17.01,7.61 -17.01,17.01 0,9.39 7.62,17 17.01,17"
         style="fill:#ffffff;fill-opacity:1;fill-rule:evenodd;stroke:none"
         transform="matrix(0.13333333,0,0,-0.13333333,26182.139,415.11067)"
         clip-path="url(#clipPath3265)"
         id="path3380" />
      <path
         d="m 1183.12,1588.42 87.51,185.79 159.6,-188.11 -87.51,-185.8 z"
         style="fill:none;stroke:#ffffff;stroke-width:5.6693;stroke-linecap:butt;stroke-linejoin:miter;stroke-miterlimit:22.9256;stroke-dasharray:none;stroke-opacity:1"
         transform="matrix(0.13333333,0,0,-0.13333333,26182.139,415.11067)"
         clip-path="url(#clipPath3266)"
         id="path3381" />
      <path
         d="m 704.613,1607.81 144.672,145.76 87.387,-230.7 L 792,1377.11 Z"
         style="fill:none;stroke:#ffffff;stroke-width:5.6693;stroke-linecap:butt;stroke-linejoin:miter;stroke-miterlimit:22.9256;stroke-dasharray:none;stroke-opacity:1"
         transform="matrix(0.13333333,0,0,-0.13333333,26182.139,415.11067)"
         clip-path="url(#clipPath3267)"
         id="path3382" />
      <path
         d="m 820.641,1582.35 c 9.394,0 17.007,-7.62 17.007,-17.01 0,-9.39 -7.613,-17.01 -17.007,-17.01 -9.391,0 -17.008,7.62 -17.008,17.01 0,9.39 7.617,17.01 17.008,17.01"
         style="fill:#ffffff;fill-opacity:1;fill-rule:evenodd;stroke:none"
         transform="matrix(0.13333333,0,0,-0.13333333,26182.139,415.11067)"
         clip-path="url(#clipPath3268)"
         id="path3383" />
      <path
         d="m 421.832,1548.33 111.914,172.2 132.59,-208.03 -111.918,-172.2 z"
         style="fill:none;stroke:#ffffff;stroke-width:5.6693;stroke-linecap:butt;stroke-linejoin:miter;stroke-miterlimit:22.9256;stroke-dasharray:none;stroke-opacity:1"
         transform="matrix(0.13333333,0,0,-0.13333333,26182.139,415.11067)"
         clip-path="url(#clipPath3269)"
         id="path3384" />
      <path
         d="m 421.832,1548.33 111.914,172.2 132.59,-208.03 -111.918,-172.2 z"
         style="fill:none;stroke:#ffffff;stroke-width:5.6693;stroke-linecap:butt;stroke-linejoin:miter;stroke-miterlimit:22.9256;stroke-dasharray:none;stroke-opacity:1"
         transform="matrix(0.13333333,0,0,-0.13333333,26182.139,415.11067)"
         clip-path="url(#clipPath3270)"
         id="path3385" />
      <path
         d="m 544.082,1547.42 c 9.391,0 17.008,-7.62 17.008,-17.01 0,-9.39 -7.617,-17 -17.008,-17 -9.391,0 -17.008,7.61 -17.008,17 0,9.39 7.617,17.01 17.008,17.01"
         style="fill:#ffffff;fill-opacity:1;fill-rule:evenodd;stroke:none"
         transform="matrix(0.13333333,0,0,-0.13333333,26182.139,415.11067)"
         clip-path="url(#clipPath3271)"
         id="path3386" />
      <path
         d="m 1072.56,1574.13 c 9.39,0 17.01,-7.61 17.01,-17 0,-9.4 -7.62,-17.01 -17.01,-17.01 -9.39,0 -17.01,7.61 -17.01,17.01 0,9.39 7.62,17 17.01,17"
         style="fill:#ffffff;fill-opacity:1;fill-rule:evenodd;stroke:none"
         transform="matrix(0.13333333,0,0,-0.13333333,26182.139,415.11067)"
         clip-path="url(#clipPath3272)"
         id="path3387" />
      <path
         d="m 2165.24,455.973 c 256.67,166.746 492.24,29.543 672.02,0.113 228.1,-37.34 361.51,166.016 586.31,221.187"
         style="fill:none;stroke:#ffffff;stroke-width:11.3386;stroke-linecap:butt;stroke-linejoin:miter;stroke-miterlimit:22.9256;stroke-dasharray:none;stroke-opacity:1"
         transform="matrix(0.13333333,0,0,-0.13333333,26182.139,415.11067)"
         clip-path="url(#clipPath3273)"
         id="path3388" />
      <path
         d="m 3787.31,652.289 c 0.01,-2.516 -1.9,-3.117 -8.23,-5.605 -346.75,-136.5 -546.56,-286.184 -769.85,-588.4457 -4.15,-5.6211 -7.01,-9.4649 -13.99,-10.7031 -6.87,-1.2188 -9.98,1.5781 -15.68,5.4804 -374.08,256.2614 -672.57,374.2264 -1267.29,335.0004 -2.97,-0.192 -3.44,0.328 -4.8,1.453 -0.44,0.355 -0.54,2.664 1.44,4.273 502.84,407.606 1557.95,478.653 2070.87,264.422 5.88,-2.453 7.52,-2.902 7.53,-5.875 z"
         style="fill:none;stroke:#ffffff;stroke-width:11.3386;stroke-linecap:butt;stroke-linejoin:round;stroke-miterlimit:22.9256;stroke-dasharray:none;stroke-opacity:1"
         transform="matrix(0.13333333,0,0,-0.13333333,26182.139,415.11067)"
         clip-path="url(#clipPath3274)"
         id="path3389" />
      <path
         d="m 2437.34,552.914 c 9.39,0 17,-7.617 17,-17.008 0,-9.39 -7.61,-17.008 -17,-17.008 -9.39,0 -17.01,7.618 -17.01,17.008 0,9.391 7.62,17.008 17.01,17.008"
         style="fill:#ffffff;fill-opacity:1;fill-rule:evenodd;stroke:none"
         transform="matrix(0.13333333,0,0,-0.13333333,26182.139,415.11067)"
         clip-path="url(#clipPath3276)"
         id="path3391" />
      <path
         d="m 488.883,1600.94 c 96.512,80.43 174.324,67.8 255.676,47.03 m 51.593,-10.18 c 31.528,-7.56 68.364,-17.68 103.469,-17.68 37.067,0 70.125,11.81 102.939,24.72 m 56.13,21.04 c 21.63,6.88 44.04,11.74 68.21,11.74 19.48,0 56.77,0.2 95.76,2.01 m 67.87,5.21 c 30.65,3.66 55.38,9.16 63.64,17.42"
         style="fill:none;stroke:#7b7979;stroke-width:5.6693;stroke-linecap:butt;stroke-linejoin:miter;stroke-miterlimit:22.9256;stroke-dasharray:none;stroke-opacity:1"
         transform="matrix(0.13333333,0,0,-0.13333333,26182.139,415.11067)"
         clip-path="url(#clipPath3277)"
         id="path3392" />
      <path
         d="m 571.543,325.488 h 20.082 c 16.5,0 32.996,12.192 32.996,25.821 0.004,9.328 -7.891,17.812 -22.953,17.812 l -36.941,0.004 c -2.274,0 -3.348,-0.004 -3.348,-2.273 0,-1.2 1.074,-1.2 2.871,-1.2 7.293,0 7.293,-0.953 7.293,-2.269 0,-0.238 0,-0.957 -0.48,-2.75 l -16.141,-64.317 c -1.074,-4.187 -1.317,-5.382 -9.684,-5.382 -2.269,0.004 -3.465,0 -3.465,-2.153 0.004,-1.316 1.075,-1.316 1.793,-1.316 2.27,0 4.661,0.242 6.934,0.242 l 13.988,0.004 c 2.274,0 4.782,-0.246 7.055,-0.246 0.953,0 2.27,0 2.27,2.273 0.003,1.2 -1.079,1.196 -2.868,1.196 -7.172,0.004 -7.293,0.839 -7.293,2.031 0,0.598 0.118,1.437 0.235,2.031 z m 8.605,35.504 c 1.079,4.426 1.555,4.66 6.215,4.66 h 11.84 c 8.965,0 16.379,-2.867 16.379,-11.832 0,-3.105 -1.559,-13.273 -7.059,-18.773 -2.027,-2.149 -7.769,-6.695 -18.648,-6.695 l -16.855,0.003 8.128,32.637"
         style="fill:#ffffff;fill-opacity:1;fill-rule:evenodd;stroke:none"
         transform="matrix(0.13333333,0,0,-0.13333333,26182.139,415.11067)"
         clip-path="url(#clipPath3280)"
         id="path3395" />
      <path
         d="m 326.402,257.23 c 74.368,173.532 404.688,186.301 564.375,186.301 215.693,0 342.143,-52.953 536.973,93.149"
         style="fill:none;stroke:#ffffff;stroke-width:11.3386;stroke-linecap:butt;stroke-linejoin:miter;stroke-miterlimit:22.9256;stroke-dasharray:none;stroke-opacity:1"
         transform="matrix(0.13333333,0,0,-0.13333333,26182.139,415.11067)"
         clip-path="url(#clipPath3281)"
         id="path3396" />
      <path
         d="m 544.082,424.148 c 9.391,0 17.008,-7.617 17.008,-17.007 0,-9.391 -7.617,-17.008 -17.008,-17.008 -9.391,0 -17.008,7.617 -17.008,17.008 0,9.39 7.617,17.007 17.008,17.007"
         style="fill:#ffffff;fill-opacity:1;fill-rule:evenodd;stroke:none"
         transform="matrix(0.13333333,0,0,-0.13333333,26182.139,415.11067)"
         clip-path="url(#clipPath3282)"
         id="path3397" />
      <path
         d="m 1566.54,787.375 c -0.24,5.863 -0.48,15.063 -5.02,25.824 -2.39,5.981 -6.45,12.313 -15.18,12.313 -14.71,0.004 -22.72,-18.766 -22.72,-21.875 0.01,-1.074 0.84,-1.074 1.2,-1.074 1.07,0 1.07,0.234 1.67,1.789 2.51,7.418 10.16,13.273 18.41,13.273 16.62,0.004 19.01,-18.535 19.01,-30.367 0,-7.531 -0.84,-10.043 -1.55,-12.434 -2.27,-7.41 -6.22,-22.238 -6.22,-25.586 0,-0.953 0.36,-2.031 1.31,-2.031 1.8,0 2.87,3.945 4.19,8.727 2.87,10.527 3.58,15.781 4.18,20.562 0.36,2.871 7.18,22.594 16.62,41.367 0.84,1.914 2.51,5.141 2.51,5.5 0,0.121 -0.12,0.957 -1.19,0.957 -0.24,0 -0.84,0 -1.08,-0.48 -0.24,-0.238 -4.42,-8.371 -8.01,-16.496 -1.79,-4.067 -4.19,-9.446 -8.13,-19.969 v 0"
         style="fill:#ffffff;fill-opacity:1;fill-rule:evenodd;stroke:none"
         transform="matrix(0.13333333,0,0,-0.13333333,26182.139,415.11067)"
         clip-path="url(#clipPath3283)"
         id="path3398" />
      <path
         d="m 50.2031,1875.63 c -0.2383,5.86 -0.4804,15.06 -5.0195,25.82 -2.3906,5.98 -6.457,12.31 -15.1836,12.31 -14.707,0.01 -22.71875,-18.77 -22.71875,-21.88 0.00391,-1.07 0.83984,-1.07 1.19922,-1.07 1.07422,0 1.07422,0.24 1.67583,1.79 2.5078,7.42 10.1562,13.28 18.4101,13.28 16.6172,0 19.0039,-18.54 19.0039,-30.38 0.0039,-7.52 -0.8359,-10.04 -1.5508,-12.43 -2.2695,-7.41 -6.2187,-22.23 -6.2187,-25.58 0,-0.96 0.3594,-2.03 1.3164,-2.03 1.793,0 2.8672,3.94 4.1836,8.72 2.8711,10.53 3.5859,15.78 4.1836,20.57 0.3594,2.87 7.1758,22.59 16.6172,41.36 0.8398,1.91 2.5117,5.14 2.5117,5.5 0,0.12 -0.1172,0.96 -1.1953,0.96 -0.2383,0 -0.836,0 -1.0742,-0.48 -0.2383,-0.24 -4.4258,-8.37 -8.0118,-16.5 -1.7929,-4.06 -4.1836,-9.44 -8.1289,-19.96 v 0"
         style="fill:#ffffff;fill-opacity:1;fill-rule:evenodd;stroke:none"
         transform="matrix(0.13333333,0,0,-0.13333333,26182.139,415.11067)"
         clip-path="url(#clipPath3284)"
         id="path3399" />
      <path
         d="m 105.125,1920.77 c 0.719,-0.48 0.957,-0.48 1.355,-0.48 1.278,0 2.395,1.03 2.395,2.47 0,1.51 -0.801,1.83 -1.992,2.38 -5.344,2.48 -7.2541,3.35 -11.1603,4.95 l 9.3243,4.23 c 0.637,0.23 2.152,0.95 2.789,1.19 0.801,0.48 1.039,1.27 1.039,1.99 0,0.96 -0.48,2.47 -2.871,2.47 l -11.4767,-7.81 1.1133,11.8 c 0.1641,1.35 0,3.34 -2.3086,3.34 -1.4336,0 -2.5507,-1.19 -2.3125,-2.31 l 0.0039,-0.95 1.1133,-11.88 -10.6015,7.33 c -0.7188,0.49 -0.9571,0.48 -1.3516,0.48 -1.2773,0.01 -2.3945,-1.04 -2.3945,-2.47 0,-1.51 0.7968,-1.83 1.9922,-2.39 5.3398,-2.47 7.2539,-3.35 11.1562,-4.95 l -9.3203,-4.21 c -0.6406,-0.25 -2.1563,-0.96 -2.7891,-1.2 -0.7968,-0.48 -1.039,-1.28 -1.039,-1.99 0,-1.44 1.1172,-2.47 2.3945,-2.47 0.6328,0 0.793,0 2.7891,1.43 l 9.164,6.38 -1.1992,-12.83 c 0,-1.59 1.3555,-2.32 2.3945,-2.32 1.0352,0 2.3907,0.72 2.3907,2.32 0,0.79 -0.3204,3.34 -0.3985,4.3 -0.3164,2.71 -0.5586,5.73 -0.7969,8.52 l 10.5977,-7.32"
         style="fill:#ffffff;fill-opacity:1;fill-rule:evenodd;stroke:none"
         transform="matrix(0.13333333,0,0,-0.13333333,26182.139,415.11067)"
         clip-path="url(#clipPath3285)"
         id="path3400" />
      <path
         d="m 167.664,1933.97 c 0.719,2.87 0.957,3.94 2.75,4.42 0.957,0.24 4.902,0.24 7.414,0.24 11.953,0 17.57,-0.48 17.57,-9.81 0.004,-1.78 -0.476,-6.33 -1.191,-10.75 l -0.121,-1.44 c 0,-0.47 0.477,-1.19 1.195,-1.19 1.196,0 1.196,0.59 1.551,2.51 l 3.473,21.16 c 0.234,1.07 0.234,1.31 0.234,1.67 0,1.32 -0.715,1.32 -3.109,1.32 h -65.391 c -2.75,0 -2.871,-0.12 -3.59,-2.28 l -7.289,-21.51 c -0.121,-0.24 -0.48,-1.56 -0.48,-1.68 0,-0.59 0.48,-1.19 1.195,-1.19 0.957,0 1.195,0.47 1.676,2.03 5.019,14.47 7.531,21.16 23.429,21.16 h 8.012 c 2.867,0 4.063,0 4.063,-1.31 0,-0.37 0,-0.61 -0.598,-2.75 l -16.019,-64.2 c -1.196,-4.67 -1.434,-5.86 -14.106,-5.86 -2.988,0 -3.824,0 -3.824,-2.27 0,-1.2 1.312,-1.2 1.91,-1.2 2.992,0 6.098,0.24 9.086,0.24 h 18.652 c 2.985,0 6.215,-0.24 9.203,-0.24 1.317,0 2.512,0 2.512,2.27 0,1.2 -0.836,1.2 -3.945,1.2 -10.758,0 -10.758,1.08 -10.758,2.87 0,0.12 0,0.96 0.477,2.87 l 16.019,63.72"
         style="fill:#ffffff;fill-opacity:1;fill-rule:evenodd;stroke:none"
         transform="matrix(0.13333333,0,0,-0.13333333,26182.139,415.11067)"
         clip-path="url(#clipPath3286)"
         id="path3401" />
      <path
         d="m 249.039,1927.87 c 3.227,-15.54 8.488,-41.12 15.301,-54.99 2.633,-5.14 3.945,-7.77 5.14,-7.77 0.481,0 0.719,0 2.872,2.15 9.086,8.72 15.304,15.66 23.671,25.22 l 26.18,30.49 c -1.672,-10.16 -5.976,-37.06 -5.976,-51.05 0,-3.22 0.121,-6.33 0.476,-9.56 0.121,-1.32 0.602,-4.79 5.621,-4.79 5.024,0.01 14.106,5.27 14.106,7.65 0,0.73 -0.715,0.84 -1.075,0.84 -1.554,0 -3.945,-1.08 -5.261,-1.91 -2.867,0.36 -3.11,2.27 -3.348,5.02 -0.359,3.83 -0.359,7.41 -0.359,7.89 0,13.28 5.261,49.49 8.73,64.32 0.121,0.84 0.238,1.07 0.238,2.03 0,0.48 -0.121,1.79 -0.957,1.79 -0.48,0.01 -0.597,-0.11 -2.867,-2.75 -11.238,-13.62 -46.148,-55.47 -57.984,-65.51 -2.988,6.34 -5.141,10.88 -9.324,27.62 -3.469,13.51 -5.5,23.43 -7.532,35.03 -0.359,1.68 -0.957,4.9 -0.957,5.14 -0.355,0.59 -0.957,0.59 -1.316,0.59 -2.152,0 -7.172,-2.62 -7.531,-5.14 -1.434,-10.04 -3.828,-25.82 -12.196,-48.65 -9.562,-25.47 -12.191,-25.47 -14.464,-25.47 -1.555,0 -5.977,0.96 -8.61,3.35 -0.597,0.6 -0.836,0.6 -1.074,0.6 -1.676,0 -4.305,-5.38 -4.305,-8.73 0.004,-1.07 0,-2.51 3.828,-4.54 2.989,-1.56 5.856,-1.68 6.454,-1.68 7.414,0.01 14.464,17.1 16.859,23.19 5.621,13.52 12.312,32.41 15.66,49.62 v 0"
         style="fill:#ffffff;fill-opacity:1;fill-rule:evenodd;stroke:none"
         transform="matrix(0.13333333,0,0,-0.13333333,26182.139,415.11067)"
         clip-path="url(#clipPath3287)"
         id="path3402" />
      <path
         d="m 3569.42,1925.15 c 0.72,2.87 0.96,3.95 2.75,4.42 0.96,0.25 4.9,0.25 7.41,0.25 11.96,0 17.58,-0.48 17.58,-9.81 0,-1.79 -0.48,-6.33 -1.2,-10.76 l -0.12,-1.43 c 0,-0.48 0.48,-1.19 1.2,-1.19 1.19,0 1.19,0.59 1.55,2.5 l 3.46,21.17 c 0.25,1.07 0.25,1.31 0.25,1.67 0,1.32 -0.72,1.32 -3.11,1.32 h -65.4 c -2.74,0 -2.87,-0.13 -3.58,-2.28 l -7.3,-21.51 c -0.11,-0.25 -0.47,-1.56 -0.47,-1.68 0,-0.6 0.47,-1.19 1.19,-1.19 0.96,0 1.2,0.47 1.67,2.03 5.03,14.47 7.54,21.16 23.44,21.16 h 8.01 c 2.87,0 4.06,0 4.06,-1.32 0,-0.36 0,-0.6 -0.6,-2.75 l -16.01,-64.2 c -1.2,-4.66 -1.44,-5.85 -14.11,-5.85 -2.99,0 -3.83,0 -3.83,-2.28 0,-1.19 1.31,-1.19 1.92,-1.19 2.98,0 6.09,0.23 9.08,0.23 l 18.65,0.01 c 2.99,0 6.22,-0.24 9.21,-0.24 1.31,0 2.51,0 2.51,2.27 0,1.2 -0.84,1.2 -3.95,1.2 -10.76,0 -10.76,1.07 -10.76,2.86 0,0.12 0,0.96 0.48,2.87 l 16.02,63.72"
         style="fill:#ffffff;fill-opacity:1;fill-rule:evenodd;stroke:none"
         transform="matrix(0.13333333,0,0,-0.13333333,26182.139,415.11067)"
         clip-path="url(#clipPath3288)"
         id="path3403" />
      <path
         d="m 3650.8,1919.06 c 3.22,-15.54 8.48,-41.13 15.3,-55 2.63,-5.13 3.94,-7.77 5.14,-7.77 0.48,0 0.72,0 2.87,2.16 9.08,8.72 15.3,15.66 23.67,25.22 l 26.18,30.49 c -1.67,-10.17 -5.98,-37.07 -5.98,-51.05 0,-3.23 0.12,-6.34 0.48,-9.57 0.12,-1.31 0.6,-4.78 5.62,-4.78 5.02,0 14.11,5.26 14.11,7.65 0,0.72 -0.72,0.84 -1.08,0.84 -1.55,0 -3.95,-1.08 -5.26,-1.91 -2.87,0.36 -3.11,2.27 -3.35,5.02 -0.36,3.83 -0.36,7.41 -0.36,7.89 0,13.27 5.27,49.49 8.73,64.32 0.12,0.84 0.24,1.07 0.24,2.03 0,0.48 -0.12,1.79 -0.95,1.79 -0.48,0 -0.6,-0.12 -2.87,-2.75 -11.24,-13.62 -46.15,-55.47 -57.99,-65.51 -2.98,6.34 -5.14,10.88 -9.32,27.62 -3.47,13.5 -5.5,23.43 -7.53,35.02 -0.36,1.68 -0.96,4.9 -0.96,5.14 -0.36,0.6 -0.96,0.6 -1.31,0.6 -2.16,0 -7.18,-2.63 -7.54,-5.14 -1.43,-10.04 -3.82,-25.82 -12.19,-48.66 -9.56,-25.46 -12.2,-25.46 -14.47,-25.46 -1.55,0 -5.98,0.96 -8.6,3.34 -0.6,0.61 -0.84,0.61 -1.08,0.61 -1.67,0 -4.3,-5.39 -4.3,-8.74 0,-1.07 0,-2.5 3.82,-4.53 2.99,-1.56 5.86,-1.68 6.46,-1.68 7.41,0 14.46,17.09 16.85,23.19 5.62,13.52 12.32,32.4 15.67,49.62 v 0"
         style="fill:#ffffff;fill-opacity:1;fill-rule:evenodd;stroke:none"
         transform="matrix(0.13333333,0,0,-0.13333333,26182.139,415.11067)"
         clip-path="url(#clipPath3289)"
         id="path3404" />
      <path
         d="m 613.156,935.32 c -0.242,5.86 -0.48,15.063 -5.023,25.821 -2.391,5.984 -6.457,12.316 -15.184,12.316 -14.703,0.004 -22.715,-18.769 -22.715,-21.879 0,-1.07 0.836,-1.074 1.196,-1.074 1.078,0.004 1.078,0.238 1.675,1.793 2.512,7.414 10.161,13.269 18.411,13.269 16.617,0.004 19.007,-18.531 19.007,-30.367 0,-7.527 -0.839,-10.043 -1.554,-12.433 -2.27,-7.411 -6.219,-22.239 -6.219,-25.582 0.004,-0.957 0.363,-2.032 1.316,-2.032 1.793,0 2.868,3.942 4.184,8.723 2.871,10.527 3.59,15.781 4.184,20.563 0.359,2.875 7.175,22.597 16.621,41.367 0.836,1.914 2.511,5.144 2.511,5.5 0,0.121 -0.121,0.957 -1.195,0.957 -0.238,0.004 -0.836,0 -1.078,-0.477 -0.238,-0.238 -4.422,-8.371 -8.012,-16.5 -1.793,-4.062 -4.183,-9.445 -8.125,-19.965 v 0"
         style="fill:#ffffff;fill-opacity:1;fill-rule:evenodd;stroke:none"
         transform="matrix(0.13333333,0,0,-0.13333333,26182.139,415.11067)"
         clip-path="url(#clipPath3290)"
         id="path3405" />
      <path
         d="m 668.078,980.461 c 0.719,-0.481 0.957,-0.484 1.356,-0.484 1.277,0.003 2.39,1.039 2.39,2.472 0.004,1.516 -0.797,1.832 -1.992,2.391 -5.34,2.473 -7.254,3.348 -11.16,4.941 l 9.328,4.231 c 0.637,0.238 2.152,0.949 2.789,1.187 0.797,0.485 1.035,1.278 1.035,1.992 0.004,0.961 -0.476,2.473 -2.871,2.473 l -11.473,-7.809 1.114,11.795 c 0.16,1.36 0,3.35 -2.309,3.35 -1.437,0 -2.551,-1.2 -2.312,-2.32 v -0.95 l 1.113,-11.875 -10.598,7.333 c -0.718,0.484 -0.957,0.476 -1.355,0.476 -1.274,0.008 -2.391,-1.035 -2.391,-2.473 0,-1.507 0.797,-1.828 1.992,-2.386 5.34,-2.469 7.25,-3.348 11.157,-4.946 l -9.325,-4.218 c -0.636,-0.243 -2.152,-0.961 -2.789,-1.2 -0.797,-0.476 -1.035,-1.273 -1.035,-1.992 0,-1.429 1.117,-2.472 2.391,-2.472 0.637,0.003 0.793,0 2.789,1.437 l 9.164,6.375 -1.195,-12.832 c 0,-1.59 1.355,-2.312 2.394,-2.312 1.035,0.003 2.387,0.718 2.387,2.312 0,0.801 -0.317,3.348 -0.395,4.305 -0.32,2.711 -0.558,5.738 -0.8,8.527 l 10.601,-7.328"
         style="fill:#ffffff;fill-opacity:1;fill-rule:evenodd;stroke:none"
         transform="matrix(0.13333333,0,0,-0.13333333,26182.139,415.11067)"
         clip-path="url(#clipPath3291)"
         id="path3406" />
      <path
         d="m 708.039,965.809 h 13.512 c -3.231,-13.387 -5.262,-22.121 -5.262,-31.684 0,-1.676 0,-14.586 4.899,-14.586 2.511,0.004 4.664,2.274 4.664,4.305 0,0.597 0,0.836 -0.836,2.629 -3.231,8.25 -3.231,18.531 -3.231,19.367 0,0.719 0,9.203 2.512,19.965 l 13.391,0.004 c 1.554,0 5.5,-0.004 5.5,3.824 0,2.633 -2.274,2.629 -4.426,2.629 l -39.328,0.004 c -2.754,0 -6.817,-0.004 -12.317,-5.864 -3.109,-3.461 -6.933,-9.8 -6.933,-10.519 0,-0.719 0.597,-0.957 1.312,-0.957 0.84,0.004 0.961,0.359 1.555,1.078 6.219,9.805 12.437,9.801 15.426,9.801 l 6.812,0.004 c -2.629,-8.965 -5.617,-19.371 -15.422,-40.293 -0.957,-1.907 -0.957,-2.153 -0.957,-2.868 0,-2.507 2.153,-3.109 3.231,-3.109 3.464,0.004 4.422,3.109 5.855,8.129 1.914,6.102 1.914,6.336 3.109,11.117 l 6.934,27.024"
         style="fill:#ffffff;fill-opacity:1;fill-rule:evenodd;stroke:none"
         transform="matrix(0.13333333,0,0,-0.13333333,26182.139,415.11067)"
         clip-path="url(#clipPath3292)"
         id="path3407" />
      <path
         d="m 774.957,947.133 c 6.773,-28.77 10.359,-34.832 13.551,-40.016 1.031,-1.594 1.113,-1.672 1.672,-1.672 0.476,0 0.636,0.157 1.355,0.875 8.766,7.817 13.227,12.754 35.465,37.539 -1.113,-7.41 -3.664,-24.226 -3.664,-32.914 0,-2.308 0.156,-5.101 0.394,-7.172 0.403,-2.55 2.235,-3.269 3.989,-3.269 3.586,0.004 9.801,3.508 9.801,5.258 0.003,0.562 -0.637,0.558 -0.875,0.558 -1.434,0.004 -2.633,-0.797 -3.348,-1.195 -2.231,0.164 -2.391,1.594 -2.551,3.668 -0.32,2.867 -0.32,4.781 -0.32,5.656 0,7.656 2.789,29.809 5.422,41.766 0.078,0.324 0.16,0.957 0.16,1.273 0,0.321 -0.082,1.278 -0.641,1.278 -0.476,0 -1.035,-0.641 -1.914,-1.594 -8.125,-9.563 -16.418,-19.051 -25.023,-28.219 -9.961,-10.59 -12.989,-13.226 -15.461,-15.457 -2.789,5.18 -4.227,9.164 -6.297,16.098 -3.188,10.523 -5.102,18.89 -6.695,26.699 -0.399,1.996 -0.399,2.152 -0.559,2.312 -0.238,0.239 -0.637,0.239 -0.797,0.239 -0.953,0 -2.629,-0.719 -3.906,-1.672 -1.274,-1.031 -1.356,-1.434 -1.512,-3.109 -3.348,-24.305 -12.754,-42.641 -14.027,-44.711 -1.356,-2.149 -2.551,-3.032 -3.746,-3.032 -2.391,0.004 -5.18,1.039 -6.856,2.789 -0.797,-0.398 -1.433,-0.636 -2.23,-2.546 -0.559,-1.118 -0.957,-2.395 -0.957,-3.668 0,-0.954 0,-1.672 2.871,-3.11 1.914,-0.953 4.222,-1.117 4.539,-1.117 5.578,0.004 10.762,13.07 12.992,18.57 3.828,9.731 7.254,19.61 9.168,29.891 v 0.004"
         style="fill:#ffffff;fill-opacity:1;fill-rule:evenodd;stroke:none"
         transform="matrix(0.13333333,0,0,-0.13333333,26182.139,415.11067)"
         clip-path="url(#clipPath3293)"
         id="path3408" />
      <path
         d="m 558.199,1180.71 h 20.082 c 16.5,0 32.996,12.19 32.996,25.82 0.004,9.33 -7.89,17.81 -22.953,17.81 h -36.937 c -2.274,0 -3.352,0 -3.352,-2.27 0,-1.19 1.078,-1.19 2.871,-1.19 7.293,0 7.289,-0.96 7.289,-2.28 0.004,-0.23 0,-0.95 -0.476,-2.75 l -16.141,-64.31 c -1.074,-4.19 -1.312,-5.39 -9.68,-5.39 -2.273,0.01 -3.468,0 -3.468,-2.15 0,-1.31 1.074,-1.31 1.793,-1.31 2.273,0 4.66,0.24 6.933,0.24 h 13.992 c 2.266,0 4.778,-0.24 7.047,-0.24 0.961,0 2.274,0 2.274,2.27 0,1.2 -1.074,1.19 -2.871,1.19 -7.168,0.01 -7.289,0.84 -7.289,2.04 0,0.6 0.117,1.43 0.238,2.03 z m 8.606,35.5 c 1.078,4.43 1.554,4.67 6.218,4.67 h 11.836 c 8.965,0 16.375,-2.88 16.375,-11.84 0,-3.11 -1.554,-13.27 -7.05,-18.77 -2.032,-2.15 -7.77,-6.7 -18.649,-6.7 H 558.68 l 8.125,32.64"
         style="fill:#ffffff;fill-opacity:1;fill-rule:evenodd;stroke:none"
         transform="matrix(0.13333333,0,0,-0.13333333,26182.139,415.11067)"
         clip-path="url(#clipPath3294)"
         id="path3409" />
      <path
         d="m 2530.75,592.691 c 20.57,8.247 35.87,30.004 35.87,51.645 0,19.727 -12.91,31.801 -29.65,31.801 -25.58,0 -51.41,-27.496 -51.41,-55.114 0,-18.769 12.44,-31.562 29.77,-31.562 4.07,0.004 8.01,0.598 11.84,1.793 -0.72,-7.168 -0.72,-7.77 -0.72,-10.043 0,-3.461 0,-12.434 9.57,-12.434 14.22,0 19.48,22.36 19.48,23.075 0,0.722 -0.48,1.199 -1.07,1.199 -0.72,0 -0.96,-0.598 -1.32,-1.914 -2.63,-7.528 -8.85,-11.84 -14.11,-11.84 -6.09,0.008 -7.65,4.187 -8.25,13.394 z m -21.52,0.598 c -9.44,3.227 -13.98,13.149 -13.98,24.149 0,8.367 3.11,24.269 11,36.343 8.84,13.625 20.68,19.727 30,19.727 12.44,0 20.8,-10.043 20.8,-25.586 0,-8.848 -4.18,-38.492 -26.66,-51.649 -0.59,6.106 -2.27,13.274 -10.16,13.274 -6.45,0.004 -11.95,-6.457 -11.95,-12.313 0,-1.312 0.48,-3.109 0.95,-3.945 z m 18.18,1.434 c -4.31,-1.91 -8.02,-2.633 -11.36,-2.633 -1.2,0.008 -5.38,0 -5.38,5.262 0,4.304 4.18,9.804 9.56,9.804 5.98,0.004 7.29,-4.066 7.29,-10.043 0,-0.715 0,-1.675 -0.11,-2.39 v 0"
         style="fill:#ffffff;fill-opacity:1;fill-rule:evenodd;stroke:none"
         transform="matrix(0.13333333,0,0,-0.13333333,26182.139,415.11067)"
         clip-path="url(#clipPath3295)"
         id="path3410" />
      <path
         d="m 2684.13,630.711 c 1.67,0 3.82,-0.004 3.82,2.148 0,2.274 -2.03,2.27 -3.82,2.27 l -70.42,0.004 c -1.67,0 -3.83,-0.004 -3.83,-2.156 0.01,-2.266 2.03,-2.27 3.83,-2.27 z m 0,-22.242 c 1.67,0 3.82,0 3.82,2.152 0,2.277 -2.03,2.274 -3.82,2.274 l -70.42,0.003 c -1.67,0 -3.83,-0.003 -3.83,-2.156 0.01,-2.273 2.03,-2.273 3.83,-2.273 h 70.42"
         style="fill:#ffffff;fill-opacity:1;fill-rule:evenodd;stroke:none"
         transform="matrix(0.13333333,0,0,-0.13333333,26182.139,415.11067)"
         clip-path="url(#clipPath3296)"
         id="path3411" />
      <path
         d="m 2773.42,606.559 c -0.24,5.859 -0.48,15.062 -5.02,25.82 -2.39,5.98 -6.46,12.316 -15.19,12.316 -14.7,0 -22.71,-18.769 -22.71,-21.879 0,-1.07 0.84,-1.074 1.2,-1.074 1.07,0.004 1.07,0.238 1.67,1.789 2.51,7.418 10.16,13.274 18.41,13.274 16.62,0.004 19.01,-18.532 19.01,-30.367 0,-7.528 -0.84,-10.043 -1.56,-12.434 -2.27,-7.41 -6.21,-22.238 -6.21,-25.586 0,-0.953 0.36,-2.027 1.31,-2.027 1.8,0 2.87,3.941 4.19,8.722 2.87,10.528 3.58,15.782 4.18,20.563 0.36,2.875 7.18,22.597 16.62,41.367 0.84,1.914 2.51,5.141 2.51,5.5 0,0.121 -0.12,0.957 -1.2,0.957 -0.24,0.004 -0.83,0 -1.07,-0.477 -0.24,-0.238 -4.43,-8.371 -8.01,-16.5 -1.79,-4.066 -4.19,-9.445 -8.13,-19.964 v 0"
         style="fill:#ffffff;fill-opacity:1;fill-rule:evenodd;stroke:none"
         transform="matrix(0.13333333,0,0,-0.13333333,26182.139,415.11067)"
         clip-path="url(#clipPath3297)"
         id="path3412" />
      <path
         d="m 2834.29,562.926 c 0,0.359 0,0.594 -2.04,2.625 -11.95,12.078 -18.65,31.801 -18.65,56.191 0.01,23.196 5.62,43.156 19.49,57.262 1.2,1.078 1.2,1.316 1.2,1.676 0,0.718 -0.6,0.957 -1.08,0.957 -1.55,0.004 -11.36,-8.61 -17.22,-20.324 -6.09,-12.071 -8.84,-24.868 -8.84,-39.571 0,-10.64 1.67,-24.867 7.89,-37.66 7.05,-14.344 16.85,-22.117 18.17,-22.117 0.48,0.004 1.08,0.238 1.08,0.957 v 0.004"
         style="fill:#ffffff;fill-opacity:1;fill-rule:evenodd;stroke:none"
         transform="matrix(0.13333333,0,0,-0.13333333,26182.139,415.11067)"
         clip-path="url(#clipPath3298)"
         id="path3413" />
      <path
         d="m 2876.42,629.992 h 20.08 c 16.5,0 33,12.192 33,25.821 0,9.332 -7.89,17.816 -22.96,17.816 h -36.93 c -2.28,0 -3.35,0 -3.35,-2.277 0,-1.192 1.07,-1.192 2.87,-1.192 7.29,0 7.29,-0.957 7.29,-2.273 0,-0.235 0,-0.957 -0.48,-2.75 L 2859.8,600.82 c -1.08,-4.183 -1.32,-5.382 -9.68,-5.382 -2.27,0.003 -3.47,0 -3.47,-2.149 0,-1.316 1.08,-1.316 1.79,-1.316 2.27,0 4.67,0.238 6.94,0.238 l 13.99,0.004 c 2.27,0 4.78,-0.242 7.05,-0.242 0.96,0 2.27,0 2.27,2.269 0,1.199 -1.08,1.196 -2.87,1.196 -7.17,0.003 -7.29,0.835 -7.29,2.035 0,0.597 0.11,1.433 0.24,2.031 z m 8.6,35.504 c 1.08,4.426 1.56,4.664 6.22,4.664 h 11.84 c 8.96,0 16.38,-2.871 16.38,-11.836 0,-3.105 -1.56,-13.269 -7.06,-18.769 -2.03,-2.149 -7.77,-6.696 -18.65,-6.696 h -16.85 l 8.12,32.637"
         style="fill:#ffffff;fill-opacity:1;fill-rule:evenodd;stroke:none"
         transform="matrix(0.13333333,0,0,-0.13333333,26182.139,415.11067)"
         clip-path="url(#clipPath3299)"
         id="path3414" />
      <path
         d="m 2967.14,621.746 c 0,9.082 -1.19,23.906 -7.89,37.774 -7.05,14.347 -16.85,22.117 -18.17,22.117 -0.47,0.004 -1.07,-0.239 -1.07,-0.957 0,-0.356 0,-0.598 2.03,-2.629 11.96,-12.078 18.65,-31.805 18.65,-56.192 0,-23.187 -5.62,-43.156 -19.49,-57.265 -1.19,-1.074 -1.19,-1.313 -1.19,-1.672 0,-0.715 0.59,-0.957 1.07,-0.957 1.56,0.004 11.36,8.609 17.22,20.324 6.1,12.199 8.84,25.106 8.84,39.453 v 0.004"
         style="fill:#ffffff;fill-opacity:1;fill-rule:evenodd;stroke:none"
         transform="matrix(0.13333333,0,0,-0.13333333,26182.139,415.11067)"
         clip-path="url(#clipPath3300)"
         id="path3415" />
      <path
         d="m 2836.78,987.727 h 13.51 c -3.23,-13.391 -5.27,-22.122 -5.27,-31.684 0,-1.676 0,-14.586 4.91,-14.586 2.51,0 4.66,2.273 4.66,4.305 0,0.597 0,0.836 -0.84,2.629 -3.23,8.25 -3.23,18.531 -3.23,19.367 0,0.719 0,9.203 2.52,19.965 l 13.38,0.004 c 1.56,0 5.51,-0.004 5.51,3.824 0,2.633 -2.28,2.629 -4.43,2.629 l -39.33,0.004 c -2.75,0 -6.82,-0.004 -12.32,-5.864 -3.1,-3.465 -6.93,-9.8 -6.93,-10.519 0,-0.719 0.6,-0.957 1.31,-0.957 0.84,0.004 0.96,0.359 1.56,1.078 6.22,9.805 12.43,9.801 15.42,9.801 l 6.82,0.004 c -2.64,-8.969 -5.62,-19.372 -15.43,-40.293 -0.95,-1.907 -0.95,-2.153 -0.95,-2.868 0,-2.511 2.15,-3.109 3.23,-3.109 3.46,0 4.42,3.109 5.85,8.129 1.91,6.102 1.91,6.336 3.11,11.117 l 6.94,27.024"
         style="fill:#ffffff;fill-opacity:1;fill-rule:evenodd;stroke:none"
         transform="matrix(0.13333333,0,0,-0.13333333,26182.139,415.11067)"
         clip-path="url(#clipPath3301)"
         id="path3416" />
      <path
         d="m 2903.69,969.051 c 6.78,-28.774 10.36,-34.836 13.55,-40.016 1.04,-1.594 1.12,-1.672 1.67,-1.672 0.48,0 0.64,0.157 1.36,0.875 8.77,7.817 13.23,12.754 35.47,37.539 -1.11,-7.41 -3.67,-24.226 -3.67,-32.918 0,-2.304 0.16,-5.097 0.4,-7.171 0.4,-2.551 2.23,-3.266 3.98,-3.266 3.59,0.004 9.81,3.504 9.81,5.258 0,0.562 -0.64,0.558 -0.88,0.558 -1.43,0.004 -2.63,-0.797 -3.35,-1.195 -2.23,0.164 -2.39,1.594 -2.55,3.668 -0.32,2.867 -0.32,4.781 -0.32,5.656 0,7.656 2.79,29.809 5.43,41.762 0.07,0.328 0.15,0.961 0.15,1.277 0.01,0.321 -0.08,1.274 -0.63,1.274 -0.48,0 -1.04,-0.637 -1.92,-1.59 -8.12,-9.563 -16.42,-19.051 -25.02,-28.219 -9.96,-10.594 -12.99,-13.226 -15.47,-15.457 -2.79,5.18 -4.22,9.164 -6.29,16.098 -3.19,10.523 -5.11,18.886 -6.7,26.699 -0.39,1.996 -0.4,2.152 -0.55,2.312 -0.24,0.239 -0.64,0.239 -0.8,0.239 -0.96,0 -2.63,-0.719 -3.91,-1.672 -1.27,-1.031 -1.35,-1.438 -1.51,-3.11 -3.35,-24.304 -12.76,-42.64 -14.03,-44.71 -1.35,-2.149 -2.55,-3.032 -3.75,-3.032 -2.38,0.004 -5.17,1.035 -6.85,2.789 -0.79,-0.398 -1.43,-0.636 -2.23,-2.547 -0.56,-1.117 -0.96,-2.394 -0.96,-3.671 0.01,-0.95 0,-1.672 2.87,-3.106 1.92,-0.953 4.23,-1.117 4.55,-1.117 5.57,0.004 10.76,13.07 12.99,18.57 3.82,9.731 7.25,19.61 9.16,29.891 v 0.004"
         style="fill:#ffffff;fill-opacity:1;fill-rule:evenodd;stroke:none"
         transform="matrix(0.13333333,0,0,-0.13333333,26182.139,415.11067)"
         clip-path="url(#clipPath3302)"
         id="path3417" />
      <path
         d="m 542.277,1529.74 -37.605,56.06"
         style="fill:none;stroke:#ffffff;stroke-width:5.6693;stroke-linecap:butt;stroke-linejoin:miter;stroke-miterlimit:22.9256;stroke-dasharray:none;stroke-opacity:1"
         transform="matrix(0.13333333,0,0,-0.13333333,26182.139,415.11067)"
         clip-path="url(#clipPath3303)"
         id="path3418" />
      <path
         d="m 491.281,1605.75 14.227,-42.92 c 3.234,9.66 9.933,14.16 20.101,13.48 l -34.328,29.44"
         style="fill:#ffffff;fill-opacity:1;fill-rule:evenodd;stroke:none"
         transform="matrix(0.13333333,0,0,-0.13333333,26182.139,415.11067)"
         clip-path="url(#clipPath3304)"
         id="path3419" />
      <path
         d="m 821.582,1565.34 -17.914,48.72"
         style="fill:none;stroke:#ffffff;stroke-width:5.6693;stroke-linecap:butt;stroke-linejoin:miter;stroke-miterlimit:22.9256;stroke-dasharray:none;stroke-opacity:1"
         transform="matrix(0.13333333,0,0,-0.13333333,26182.139,415.11067)"
         clip-path="url(#clipPath3305)"
         id="path3420" />
      <path
         d="m 795.375,1636.62 3.68,-45.07 c 5.422,8.62 12.996,11.41 22.715,8.35 l -26.395,36.72"
         style="fill:#ffffff;fill-opacity:1;fill-rule:evenodd;stroke:none"
         transform="matrix(0.13333333,0,0,-0.13333333,26182.139,415.11067)"
         clip-path="url(#clipPath3306)"
         id="path3421" />
      <path
         d="m 1073.5,1559.86 -10.74,80.53"
         style="fill:none;stroke:#ffffff;stroke-width:5.6693;stroke-linecap:butt;stroke-linejoin:miter;stroke-miterlimit:22.9256;stroke-dasharray:none;stroke-opacity:1"
         transform="matrix(0.13333333,0,0,-0.13333333,26182.139,415.11067)"
         clip-path="url(#clipPath3307)"
         id="path3422" />
      <path
         d="m 1059.59,1664.22 -6.24,-44.8 c 7.18,7.24 15.17,8.31 23.99,3.21 l -17.75,41.59"
         style="fill:#ffffff;fill-opacity:1;fill-rule:evenodd;stroke:none"
         transform="matrix(0.13333333,0,0,-0.13333333,26182.139,415.11067)"
         clip-path="url(#clipPath3308)"
         id="path3423" />
      <path
         d="m 1307.63,1588.62 -11.46,76.35"
         style="fill:none;stroke:#ffffff;stroke-width:5.6693;stroke-linecap:butt;stroke-linejoin:miter;stroke-miterlimit:22.9256;stroke-dasharray:none;stroke-opacity:1"
         transform="matrix(0.13333333,0,0,-0.13333333,26182.139,415.11067)"
         clip-path="url(#clipPath3309)"
         id="path3424" />
      <path
         d="m 1292.61,1688.74 -5.51,-44.89 c 7.06,7.36 15.04,8.55 23.94,3.6 l -18.43,41.29"
         style="fill:#ffffff;fill-opacity:1;fill-rule:evenodd;stroke:none"
         transform="matrix(0.13333333,0,0,-0.13333333,26182.139,415.11067)"
         clip-path="url(#clipPath3310)"
         id="path3425" />
      <path
         d="m 2664.34,1543.43 52.2,38.98"
         style="fill:none;stroke:#ffffff;stroke-width:5.6693;stroke-linecap:butt;stroke-linejoin:miter;stroke-miterlimit:22.9256;stroke-dasharray:none;stroke-opacity:1"
         transform="matrix(0.13333333,0,0,-0.13333333,26182.139,415.11067)"
         clip-path="url(#clipPath3311)"
         id="path3426" />
      <path
         d="m 2735.8,1596.79 -42.16,-16.38 c 9.81,-2.73 14.64,-9.2 14.48,-19.39 l 27.68,35.77"
         style="fill:#ffffff;fill-opacity:1;fill-rule:evenodd;stroke:none"
         transform="matrix(0.13333333,0,0,-0.13333333,26182.139,415.11067)"
         clip-path="url(#clipPath3312)"
         id="path3427" />
      <path
         d="m 2890.25,1495.52 54.29,65.36"
         style="fill:none;stroke:#ffffff;stroke-width:5.6693;stroke-linecap:butt;stroke-linejoin:miter;stroke-miterlimit:22.9256;stroke-dasharray:none;stroke-opacity:1"
         transform="matrix(0.13333333,0,0,-0.13333333,26182.139,415.11067)"
         clip-path="url(#clipPath3313)"
         id="path3428" />
      <path
         d="m 2959.89,1579.37 -37.15,-25.79 c 10.19,-0.37 16.39,-5.52 18.62,-15.46 l 18.53,41.25"
         style="fill:#ffffff;fill-opacity:1;fill-rule:evenodd;stroke:none"
         transform="matrix(0.13333333,0,0,-0.13333333,26182.139,415.11067)"
         clip-path="url(#clipPath3314)"
         id="path3429" />
      <path
         d="m 3132.59,1573.55 20.76,57.54"
         style="fill:none;stroke:#ffffff;stroke-width:5.6693;stroke-linecap:butt;stroke-linejoin:miter;stroke-miterlimit:22.9256;stroke-dasharray:none;stroke-opacity:1"
         transform="matrix(0.13333333,0,0,-0.13333333,26182.139,415.11067)"
         clip-path="url(#clipPath3315)"
         id="path3430" />
      <path
         d="m 3161.51,1653.7 -26.18,-36.88 c 9.71,3.11 17.3,0.38 22.77,-8.22 l 3.41,45.1"
         style="fill:#ffffff;fill-opacity:1;fill-rule:evenodd;stroke:none"
         transform="matrix(0.13333333,0,0,-0.13333333,26182.139,415.11067)"
         clip-path="url(#clipPath3316)"
         id="path3431" />
      <path
         d="m 2408.48,1721.42 254.49,-72.6 -196.77,-205.31 -254.49,72.6 z"
         style="fill:none;stroke:#ffffff;stroke-width:5.6693;stroke-linecap:butt;stroke-linejoin:miter;stroke-miterlimit:22.9256;stroke-dasharray:none;stroke-opacity:1"
         transform="matrix(0.13333333,0,0,-0.13333333,26182.139,415.11067)"
         clip-path="url(#clipPath3318)"
         id="path3433" />
      <path
         d="m 2888.5,1511.51 c 9.2,1.87 18.18,-4.08 20.05,-13.28 1.88,-9.2 -4.07,-18.18 -13.27,-20.06 -9.21,-1.87 -18.19,4.08 -20.06,13.28 -1.87,9.2 4.08,18.18 13.28,20.06"
         style="fill:#ffffff;fill-opacity:1;fill-rule:evenodd;stroke:none"
         transform="matrix(0.13333333,0,0,-0.13333333,26182.139,415.11067)"
         clip-path="url(#clipPath3319)"
         id="path3434" />
      <path
         d="m 2835.91,1625.26 263.86,-20.43 -151.9,-240.4 -263.86,20.42 z"
         style="fill:none;stroke:#ffffff;stroke-width:5.6693;stroke-linecap:butt;stroke-linejoin:miter;stroke-miterlimit:22.9256;stroke-dasharray:none;stroke-opacity:1"
         transform="matrix(0.13333333,0,0,-0.13333333,26182.139,415.11067)"
         clip-path="url(#clipPath3320)"
         id="path3435" />
      <path
         d="m 3129.47,1590.92 c 9.2,1.87 18.18,-4.08 20.05,-13.28 1.87,-9.2 -4.07,-18.18 -13.27,-20.06 -9.21,-1.87 -18.19,4.08 -20.06,13.28 -1.87,9.2 4.08,18.18 13.28,20.06"
         style="fill:#ffffff;fill-opacity:1;fill-rule:evenodd;stroke:none"
         transform="matrix(0.13333333,0,0,-0.13333333,26182.139,415.11067)"
         clip-path="url(#clipPath3321)"
         id="path3436" />
      <path
         d="m 3076.88,1704.67 263.86,-20.43 -151.91,-240.4 -263.85,20.42 z"
         style="fill:none;stroke:#ffffff;stroke-width:5.6693;stroke-linecap:butt;stroke-linejoin:miter;stroke-miterlimit:22.9256;stroke-dasharray:none;stroke-opacity:1"
         transform="matrix(0.13333333,0,0,-0.13333333,26182.139,415.11067)"
         clip-path="url(#clipPath3322)"
         id="path3437" />
      <path
         d="m 2365.01,1511.86 c 20.56,8.24 35.86,30 35.86,51.64 0,19.73 -12.91,31.8 -29.65,31.8 -25.58,0 -51.4,-27.5 -51.4,-55.11 0,-18.77 12.43,-31.56 29.76,-31.56 4.07,0 8.01,0.59 11.84,1.79 -0.72,-7.17 -0.72,-7.77 -0.72,-10.04 0,-3.47 0,-12.43 9.57,-12.43 14.22,0 19.48,22.35 19.48,23.07 0,0.72 -0.47,1.19 -1.07,1.19 -0.72,0.01 -0.96,-0.59 -1.32,-1.91 -2.63,-7.53 -8.84,-11.84 -14.11,-11.84 -6.09,0.01 -7.64,4.19 -8.25,13.4 z m -21.52,0.59 c -9.44,3.23 -13.99,13.15 -13.99,24.15 0,8.37 3.11,24.27 11,36.35 8.84,13.62 20.68,19.72 30,19.72 12.44,0 20.81,-10.04 20.81,-25.58 0,-8.85 -4.19,-38.5 -26.66,-51.65 -0.6,6.1 -2.27,13.27 -10.17,13.27 -6.45,0 -11.95,-6.46 -11.95,-12.31 0,-1.31 0.48,-3.11 0.95,-3.95 z m 18.17,1.44 c -4.3,-1.91 -8.01,-2.63 -11.36,-2.63 -1.19,0 -5.38,0 -5.38,5.26 0,4.3 4.19,9.8 9.56,9.8 5.98,0 7.3,-4.07 7.3,-10.04 0,-0.71 0,-1.67 -0.12,-2.39 v 0"
         style="fill:#ffffff;fill-opacity:1;fill-rule:evenodd;stroke:none"
         transform="matrix(0.13333333,0,0,-0.13333333,26182.139,415.11067)"
         clip-path="url(#clipPath3323)"
         id="path3438" />
      <path
         d="m 2660.63,1561.09 c 9.37,0.69 17.52,-6.35 18.21,-15.71 0.68,-9.37 -6.36,-17.52 -15.72,-18.21 -9.37,-0.69 -17.52,6.35 -18.21,15.72 -0.68,9.36 6.36,17.52 15.72,18.2"
         style="fill:#ffffff;fill-opacity:1;fill-rule:evenodd;stroke:none"
         transform="matrix(0.13333333,0,0,-0.13333333,26182.139,415.11067)"
         clip-path="url(#clipPath3324)"
         id="path3439" />
      <path
         d="m 2660.63,1561.09 c 9.37,0.69 17.52,-6.35 18.21,-15.71 0.68,-9.37 -6.36,-17.52 -15.72,-18.21 -9.37,-0.69 -17.52,6.35 -18.21,15.72 -0.68,9.36 6.36,17.52 15.72,18.2 z"
         style="fill:none;stroke:#ffffff;stroke-width:5.6693;stroke-linecap:butt;stroke-linejoin:miter;stroke-miterlimit:22.9256;stroke-dasharray:none;stroke-opacity:1"
         transform="matrix(0.13333333,0,0,-0.13333333,26182.139,415.11067)"
         clip-path="url(#clipPath3325)"
         id="path3440" />
      <path
         d="m 2434.33,1584.51 133.51,38.33"
         style="fill:none;stroke:#ffffff;stroke-width:5.6693;stroke-linecap:butt;stroke-linejoin:miter;stroke-miterlimit:22.9256;stroke-dasharray:none;stroke-opacity:1"
         transform="matrix(0.13333333,0,0,-0.13333333,26182.139,415.11067)"
         clip-path="url(#clipPath3326)"
         id="path3441" />
      <path
         d="m 2590.94,1629.47 -45.23,-0.4 c 8.21,-6.03 10.44,-13.78 6.68,-23.26 l 38.55,23.66"
         style="fill:#ffffff;fill-opacity:1;fill-rule:evenodd;stroke:none"
         transform="matrix(0.13333333,0,0,-0.13333333,26182.139,415.11067)"
         clip-path="url(#clipPath3327)"
         id="path3442" />
      <path
         d="m 2437.34,1599.47 c 9.39,0 17,-7.61 17,-17.01 0,-9.39 -7.61,-17 -17,-17 -9.39,0 -17.01,7.61 -17.01,17 0,9.4 7.62,17.01 17.01,17.01"
         style="fill:#ffffff;fill-opacity:1;fill-rule:evenodd;stroke:none"
         transform="matrix(0.13333333,0,0,-0.13333333,26182.139,415.11067)"
         clip-path="url(#clipPath3328)"
         id="path3443" />
      <path
         d="m 2437.34,1599.47 c 9.39,0 17,-7.61 17,-17.01 0,-9.39 -7.61,-17 -17,-17 -9.39,0 -17.01,7.61 -17.01,17 0,9.4 7.62,17.01 17.01,17.01 z"
         style="fill:none;stroke:#ffffff;stroke-width:5.6693;stroke-linecap:butt;stroke-linejoin:miter;stroke-miterlimit:22.9256;stroke-dasharray:none;stroke-opacity:1"
         transform="matrix(0.13333333,0,0,-0.13333333,26182.139,415.11067)"
         clip-path="url(#clipPath3329)"
         id="path3444" />
      <path
         d="m 2551.99,1643.61 c 43.38,-14.29 79.92,-45.41 132.89,-45.41 99.48,0 210.01,-19.17 314.9,-19.17 119.81,0 149.92,101.32 230.01,101.32"
         style="fill:none;stroke:#7b7979;stroke-width:5.6693;stroke-linecap:butt;stroke-linejoin:miter;stroke-miterlimit:22.9256;stroke-dasharray:none;stroke-opacity:1"
         transform="matrix(0.13333333,0,0,-0.13333333,26182.139,415.11067)"
         clip-path="url(#clipPath3330)"
         id="path3445" />
      <path
         d="m 2502.43,1664.34 c 0.83,1.79 1.31,2.75 8.84,2.75 v 5.14 h -19.73 v -5.14 c 3.23,0 5.86,-0.6 5.86,-1.44 0,-0.11 0,-0.24 -0.6,-1.44 l -13.98,-30.71 -15.43,33.59 h 6.58 v 5.14 h -27.85 v -5.14 h 7.53 l 21.04,-45.67 c 1.08,-2.28 1.31,-2.87 4.06,-2.87 1.91,0 2.87,0.24 3.95,2.63 l 19.73,43.16"
         style="fill:#ffffff;fill-opacity:1;fill-rule:evenodd;stroke:none"
         transform="matrix(0.13333333,0,0,-0.13333333,26182.139,415.11067)"
         clip-path="url(#clipPath3331)"
         id="path3446" />
      <path
         d="m 816.535,1323.58 c 9.391,0 17.008,-7.62 17.008,-17.01 0,-9.39 -7.617,-17 -17.008,-17 -9.39,0 -17.008,7.61 -17.008,17 0,9.39 7.618,17.01 17.008,17.01"
         style="fill:#ffffff;fill-opacity:1;fill-rule:evenodd;stroke:none"
         transform="matrix(0.13333333,0,0,-0.13333333,26182.139,415.11067)"
         clip-path="url(#clipPath3332)"
         id="path3447" />
      <path
         d="m 542.707,1290.72 c 9.391,0 17.008,-7.61 17.008,-17.01 0,-9.39 -7.617,-17.01 -17.008,-17.01 -9.391,0 -17.008,7.62 -17.008,17.01 0,9.4 7.617,17.01 17.008,17.01"
         style="fill:#ffffff;fill-opacity:1;fill-rule:evenodd;stroke:none"
         transform="matrix(0.13333333,0,0,-0.13333333,26182.139,415.11067)"
         clip-path="url(#clipPath3333)"
         id="path3448" />
      <path
         d="m 1072.56,1319.47 c 9.39,0 17.01,-7.61 17.01,-17.01 0,-9.39 -7.62,-17 -17.01,-17 -9.39,0 -17.01,7.61 -17.01,17 0,9.4 7.62,17.01 17.01,17.01"
         style="fill:#ffffff;fill-opacity:1;fill-rule:evenodd;stroke:none"
         transform="matrix(0.13333333,0,0,-0.13333333,26182.139,415.11067)"
         clip-path="url(#clipPath3334)"
         id="path3449" />
      <path
         d="m 1308.05,1355.07 c 9.4,0 17.01,-7.62 17.01,-17.01 0,-9.39 -7.61,-17.01 -17.01,-17.01 -9.39,0 -17,7.62 -17,17.01 0,9.39 7.61,17.01 17,17.01"
         style="fill:#ffffff;fill-opacity:1;fill-rule:evenodd;stroke:none"
         transform="matrix(0.13333333,0,0,-0.13333333,26182.139,415.11067)"
         clip-path="url(#clipPath3335)"
         id="path3450" />
      <path
         d="m 543.555,1531.11 v -257.4"
         style="fill:none;stroke:#ffffff;stroke-width:5.6693;stroke-linecap:butt;stroke-linejoin:miter;stroke-miterlimit:22.9256;stroke-dasharray:28.3465, 28.3465;stroke-dashoffset:0;stroke-opacity:1"
         transform="matrix(0.13333333,0,0,-0.13333333,26182.139,415.11067)"
         clip-path="url(#clipPath3336)"
         id="path3451" />
      <path
         d="M 820.117,1559.86 V 1302.47"
         style="fill:none;stroke:#ffffff;stroke-width:5.6693;stroke-linecap:butt;stroke-linejoin:miter;stroke-miterlimit:22.9256;stroke-dasharray:28.3465, 28.3465;stroke-dashoffset:0;stroke-opacity:1"
         transform="matrix(0.13333333,0,0,-0.13333333,26182.139,415.11067)"
         clip-path="url(#clipPath3337)"
         id="path3452" />
      <path
         d="m 1073.41,1551.65 v -257.4"
         style="fill:none;stroke:#ffffff;stroke-width:5.6693;stroke-linecap:butt;stroke-linejoin:miter;stroke-miterlimit:22.9256;stroke-dasharray:28.3465, 28.3465;stroke-dashoffset:0;stroke-opacity:1"
         transform="matrix(0.13333333,0,0,-0.13333333,26182.139,415.11067)"
         clip-path="url(#clipPath3338)"
         id="path3453" />
      <path
         d="m 1307.53,1584.51 v -257.4"
         style="fill:none;stroke:#ffffff;stroke-width:5.6693;stroke-linecap:butt;stroke-linejoin:miter;stroke-miterlimit:22.9256;stroke-dasharray:28.3465, 28.3465;stroke-dashoffset:0;stroke-opacity:1"
         transform="matrix(0.13333333,0,0,-0.13333333,26182.139,415.11067)"
         clip-path="url(#clipPath3339)"
         id="path3454" />
      <path
         d="m 245.086,1450.44 c 0,0.36 0,0.59 -2.035,2.62 -11.953,12.08 -18.653,31.8 -18.653,56.19 0.004,23.2 5.622,43.16 19.489,57.27 1.199,1.07 1.199,1.31 1.199,1.67 0,0.72 -0.602,0.95 -1.078,0.95 -1.555,0.01 -11.36,-8.6 -17.215,-20.32 -6.094,-12.07 -8.848,-24.86 -8.848,-39.57 0,-10.64 1.672,-24.87 7.891,-37.66 7.055,-14.34 16.855,-22.11 18.172,-22.11 0.48,0 1.078,0.23 1.078,0.95 v 0.01"
         style="fill:#ffffff;fill-opacity:1;fill-rule:evenodd;stroke:none"
         transform="matrix(0.13333333,0,0,-0.13333333,26182.139,415.11067)"
         clip-path="url(#clipPath3350)"
         id="path3465" />
      <path
         d="m 302.762,1480.2 c 20.562,8.25 35.863,30.01 35.863,51.65 0,19.72 -12.91,31.8 -29.652,31.8 -25.582,0 -51.407,-27.5 -51.407,-55.11 0,-18.77 12.434,-31.57 29.77,-31.57 4.062,0 8.008,0.6 11.836,1.8 -0.715,-7.17 -0.715,-7.77 -0.715,-10.05 0,-3.46 0,-12.43 9.563,-12.43 14.226,0 19.484,22.36 19.484,23.07 0.004,0.72 -0.477,1.2 -1.074,1.2 -0.715,0 -0.957,-0.6 -1.317,-1.91 -2.629,-7.53 -8.843,-11.84 -14.105,-11.84 -6.094,0.01 -7.653,4.19 -8.25,13.39 z m -21.52,0.6 c -9.445,3.23 -13.992,13.15 -13.992,24.15 0,8.37 3.109,24.26 11,36.34 8.848,13.63 20.68,19.73 30.008,19.73 12.433,0 20.805,-10.04 20.805,-25.59 0,-8.84 -4.188,-38.49 -26.661,-51.64 -0.597,6.1 -2.273,13.27 -10.164,13.27 -6.453,0 -11.957,-6.46 -11.957,-12.32 0,-1.31 0.481,-3.11 0.961,-3.94 z m 18.168,1.43 c -4.301,-1.91 -8.012,-2.63 -11.355,-2.63 -1.196,0.01 -5.379,0 -5.379,5.26 0,4.31 4.183,9.8 9.562,9.8 5.977,0.01 7.293,-4.06 7.293,-10.04 0,-0.71 0,-1.67 -0.121,-2.39 v 0"
         style="fill:#ffffff;fill-opacity:1;fill-rule:evenodd;stroke:none"
         transform="matrix(0.13333333,0,0,-0.13333333,26182.139,415.11067)"
         clip-path="url(#clipPath3351)"
         id="path3466" />
      <path
         d="m 367.543,1479 c 0,6.94 -2.273,12.08 -7.172,12.08 -3.828,0 -5.742,-3.11 -5.742,-5.74 0.004,-2.63 1.793,-5.86 5.859,-5.86 1.555,0 2.867,0.48 3.946,1.56 0.242,0.24 0.359,0.24 0.476,0.24 0.246,0 0.242,-1.68 0.242,-2.28 0.004,-3.94 -0.718,-11.71 -7.652,-19.48 -1.316,-1.44 -1.316,-1.68 -1.316,-1.91 0,-0.6 0.601,-1.2 1.195,-1.2 0.957,0 10.164,8.84 10.164,22.59 v 0"
         style="fill:#ffffff;fill-opacity:1;fill-rule:evenodd;stroke:none"
         transform="matrix(0.13333333,0,0,-0.13333333,26182.139,415.11067)"
         clip-path="url(#clipPath3352)"
         id="path3467" />
      <path
         d="m 456.211,1524.67 c 0.836,1.8 1.312,2.75 8.844,2.75 v 5.15 h -19.727 v -5.14 c 3.231,0 5.86,-0.61 5.86,-1.44 0,-0.12 0,-0.24 -0.602,-1.44 l -13.984,-30.72 -15.422,33.6 h 6.578 v 5.14 h -27.856 v -5.14 h 7.532 l 21.043,-45.67 c 1.074,-2.28 1.312,-2.88 4.058,-2.88 1.914,0.01 2.871,0.24 3.949,2.64 l 19.727,43.15"
         style="fill:#ffffff;fill-opacity:1;fill-rule:evenodd;stroke:none"
         transform="matrix(0.13333333,0,0,-0.13333333,26182.139,415.11067)"
         clip-path="url(#clipPath3353)"
         id="path3468" />
      <path
         d="m 503.945,1509.25 c 0,9.09 -1.199,23.91 -7.89,37.78 -7.051,14.35 -16.856,22.11 -18.172,22.11 -0.477,0.01 -1.078,-0.23 -1.078,-0.95 0,-0.35 0,-0.6 2.031,-2.63 11.961,-12.08 18.652,-31.8 18.652,-56.19 0,-23.19 -5.621,-43.16 -19.488,-57.26 -1.195,-1.08 -1.195,-1.32 -1.195,-1.68 0,-0.72 0.597,-0.95 1.078,-0.95 1.555,0 11.355,8.6 17.215,20.32 6.101,12.2 8.847,25.11 8.847,39.45 v 0"
         style="fill:#ffffff;fill-opacity:1;fill-rule:evenodd;stroke:none"
         transform="matrix(0.13333333,0,0,-0.13333333,26182.139,415.11067)"
         clip-path="url(#clipPath3354)"
         id="path3469" />
    </g>
  </g>
</svg>
