<?xml version="1.0" encoding="UTF-8" standalone="no"?>
<!-- Created with Inkscape (http://www.inkscape.org/) -->

<svg
   version="1.1"
   id="svg1"
   width="407.75781"
   height="367.21057"
   viewBox="0 0 407.75781 367.21056"
   sodipodi:docname="Modave2017_002.pdf"
   xmlns:inkscape="http://www.inkscape.org/namespaces/inkscape"
   xmlns:sodipodi="http://sodipodi.sourceforge.net/DTD/sodipodi-0.dtd"
   xmlns="http://www.w3.org/2000/svg"
   xmlns:svg="http://www.w3.org/2000/svg">
  <defs
     id="defs1">
    <clipPath
       clipPathUnits="userSpaceOnUse"
       id="clipPath8855">
      <path
         d="M 0,0 H 765 V 689 H 0 Z"
         transform="matrix(10.000001,0,0,10.000001,0.00625,6.2500003e-5)"
         id="path8855" />
    </clipPath>
    <clipPath
       clipPathUnits="userSpaceOnUse"
       id="clipPath8856">
      <path
         d="M 0,0 H 765 V 689 H 0 Z"
         transform="matrix(10.000001,0,0,10.000001,0.00625,6.2500003e-5)"
         id="path8856" />
    </clipPath>
    <clipPath
       clipPathUnits="userSpaceOnUse"
       id="clipPath8857">
      <path
         d="M 0,0 H 765 V 689 H 0 Z"
         transform="matrix(10.000001,0,0,10.000001,0.00625,6.2500003e-5)"
         id="path8857" />
    </clipPath>
    <clipPath
       clipPathUnits="userSpaceOnUse"
       id="clipPath8858">
      <path
         d="M 0,0 H 765 V 689 H 0 Z"
         transform="matrix(10.000001,0,0,10.000001,0.00625,6.2500003e-5)"
         id="path8858" />
    </clipPath>
    <clipPath
       clipPathUnits="userSpaceOnUse"
       id="clipPath8859">
      <path
         d="M 0,0 H 765 V 689 H 0 Z"
         transform="matrix(10.000001,0,0,10.000001,0.00625,6.2500003e-5)"
         id="path8859" />
    </clipPath>
    <clipPath
       clipPathUnits="userSpaceOnUse"
       id="clipPath8860">
      <path
         d="M 0,0 H 765 V 689 H 0 Z"
         transform="matrix(10.000001,0,0,10.000001,0.00625,6.2500003e-5)"
         id="path8860" />
    </clipPath>
    <clipPath
       clipPathUnits="userSpaceOnUse"
       id="clipPath8861">
      <path
         d="M 0,0 H 765 V 689 H 0 Z"
         transform="matrix(10.000001,0,0,10.000001,0.00625,6.2500003e-5)"
         id="path8861" />
    </clipPath>
    <clipPath
       clipPathUnits="userSpaceOnUse"
       id="clipPath8862">
      <path
         d="M 0,0 H 765 V 689 H 0 Z"
         transform="matrix(10.000001,0,0,10.000001,0.00625,6.2500003e-5)"
         id="path8862" />
    </clipPath>
    <clipPath
       clipPathUnits="userSpaceOnUse"
       id="clipPath8863">
      <path
         d="M 0,0 H 765 V 689 H 0 Z"
         transform="matrix(10.000001,0,0,10.000001,0.00625,6.2500003e-5)"
         id="path8863" />
    </clipPath>
    <clipPath
       clipPathUnits="userSpaceOnUse"
       id="clipPath8864">
      <path
         d="M 0,0 H 765 V 689 H 0 Z"
         transform="matrix(10.000001,0,0,10.000001,0.00625,6.2500003e-5)"
         id="path8864" />
    </clipPath>
    <clipPath
       clipPathUnits="userSpaceOnUse"
       id="clipPath8865">
      <path
         d="M 0,0 H 765 V 689 H 0 Z"
         transform="matrix(10.000001,0,0,10.000001,0.00625,6.2500003e-5)"
         id="path8865" />
    </clipPath>
    <clipPath
       clipPathUnits="userSpaceOnUse"
       id="clipPath8866">
      <path
         d="M 0,0 H 765 V 689 H 0 Z"
         transform="matrix(10.000001,0,0,10.000001,0.00625,6.2500003e-5)"
         id="path8866" />
    </clipPath>
    <clipPath
       clipPathUnits="userSpaceOnUse"
       id="clipPath8867">
      <path
         d="M 0,0 H 765 V 689 H 0 Z"
         transform="matrix(10.000001,0,0,10.000001,0.00625,6.2500003e-5)"
         id="path8867" />
    </clipPath>
    <clipPath
       clipPathUnits="userSpaceOnUse"
       id="clipPath8868">
      <path
         d="M 0,0 H 765 V 689 H 0 Z"
         transform="matrix(10.000001,0,0,10.000001,0.00625,6.2500003e-5)"
         id="path8868" />
    </clipPath>
    <clipPath
       clipPathUnits="userSpaceOnUse"
       id="clipPath8869">
      <path
         d="M 0,0 H 765 V 689 H 0 Z"
         transform="matrix(10.000001,0,0,10.000001,0.00625,6.2500003e-5)"
         id="path8869" />
    </clipPath>
    <clipPath
       clipPathUnits="userSpaceOnUse"
       id="clipPath8870">
      <path
         d="M 0,0 H 765 V 689 H 0 Z"
         transform="matrix(10.000001,0,0,10.000001,0.00625,6.2500003e-5)"
         id="path8870" />
    </clipPath>
    <clipPath
       clipPathUnits="userSpaceOnUse"
       id="clipPath8871">
      <path
         d="M 0,0 H 765 V 689 H 0 Z"
         transform="matrix(10.000001,0,0,10.000001,0.00625,6.2500003e-5)"
         id="path8871" />
    </clipPath>
    <clipPath
       clipPathUnits="userSpaceOnUse"
       id="clipPath8872">
      <path
         d="M 0,0 H 765 V 689 H 0 Z"
         transform="matrix(10.000001,0,0,10.000001,0.00625,6.2500003e-5)"
         id="path8872" />
    </clipPath>
    <clipPath
       clipPathUnits="userSpaceOnUse"
       id="clipPath8873">
      <path
         d="M 0,0 H 765 V 689 H 0 Z"
         transform="matrix(10.000001,0,0,10.000001,0.00625,6.2500003e-5)"
         id="path8873" />
    </clipPath>
    <clipPath
       clipPathUnits="userSpaceOnUse"
       id="clipPath8874">
      <path
         d="M 0,0 H 765 V 689 H 0 Z"
         transform="matrix(10.000001,0,0,10.000001,0.00625,6.2500003e-5)"
         id="path8874" />
    </clipPath>
    <clipPath
       clipPathUnits="userSpaceOnUse"
       id="clipPath8875">
      <path
         d="M 0,0 H 765 V 689 H 0 Z"
         transform="matrix(10.000001,0,0,10.000001,0.00625,6.2500003e-5)"
         id="path8875" />
    </clipPath>
    <clipPath
       clipPathUnits="userSpaceOnUse"
       id="clipPath8876">
      <path
         d="M 0,0 H 765 V 689 H 0 Z"
         transform="matrix(10.000001,0,0,10.000001,0.00625,6.2500003e-5)"
         id="path8876" />
    </clipPath>
    <clipPath
       clipPathUnits="userSpaceOnUse"
       id="clipPath8877">
      <path
         d="M 0,0 H 765 V 689 H 0 Z"
         transform="matrix(10.000001,0,0,10.000001,0.00625,6.2500003e-5)"
         id="path8877" />
    </clipPath>
    <clipPath
       clipPathUnits="userSpaceOnUse"
       id="clipPath8878">
      <path
         d="M 0,0 H 765 V 689 H 0 Z"
         transform="matrix(10.000001,0,0,10.000001,0.00625,6.2500003e-5)"
         id="path8878" />
    </clipPath>
    <clipPath
       clipPathUnits="userSpaceOnUse"
       id="clipPath8879">
      <path
         d="M 0,0 H 765 V 689 H 0 Z"
         transform="matrix(10.000001,0,0,10.000001,0.00625,6.2500003e-5)"
         id="path8879" />
    </clipPath>
    <clipPath
       clipPathUnits="userSpaceOnUse"
       id="clipPath8880">
      <path
         d="M 0,0 H 765 V 689 H 0 Z"
         transform="matrix(10.000001,0,0,10.000001,0.00625,6.2500003e-5)"
         id="path8880" />
    </clipPath>
    <clipPath
       clipPathUnits="userSpaceOnUse"
       id="clipPath8881">
      <path
         d="M 0,0 H 765 V 689 H 0 Z"
         transform="matrix(10.000001,0,0,10.000001,0.00625,6.2500003e-5)"
         id="path8881" />
    </clipPath>
    <clipPath
       clipPathUnits="userSpaceOnUse"
       id="clipPath8882">
      <path
         d="M 0,0 H 765 V 689 H 0 Z"
         transform="matrix(10.000001,0,0,10.000001,0.00625,6.2500003e-5)"
         id="path8882" />
    </clipPath>
    <clipPath
       clipPathUnits="userSpaceOnUse"
       id="clipPath8883">
      <path
         d="M 0,0 H 765 V 689 H 0 Z"
         transform="matrix(10.000001,0,0,10.000001,0.00625,6.2500003e-5)"
         id="path8883" />
    </clipPath>
    <clipPath
       clipPathUnits="userSpaceOnUse"
       id="clipPath8884">
      <path
         d="M 0,0 H 765 V 689 H 0 Z"
         transform="matrix(10.000001,0,0,10.000001,0.00625,6.2500003e-5)"
         id="path8884" />
    </clipPath>
    <clipPath
       clipPathUnits="userSpaceOnUse"
       id="clipPath8885">
      <path
         d="M 0,0 H 765 V 689 H 0 Z"
         transform="matrix(10.000001,0,0,10.000001,0.00625,6.2500003e-5)"
         id="path8885" />
    </clipPath>
    <clipPath
       clipPathUnits="userSpaceOnUse"
       id="clipPath8886">
      <path
         d="M 0,0 H 765 V 689 H 0 Z"
         transform="matrix(10.000001,0,0,10.000001,0.00625,6.2500003e-5)"
         id="path8886" />
    </clipPath>
    <clipPath
       clipPathUnits="userSpaceOnUse"
       id="clipPath8887">
      <path
         d="M 0,0 H 765 V 689 H 0 Z"
         transform="matrix(10.000001,0,0,10.000001,0.00625,6.2500003e-5)"
         id="path8887" />
    </clipPath>
    <clipPath
       clipPathUnits="userSpaceOnUse"
       id="clipPath8888">
      <path
         d="M 0,0 H 765 V 689 H 0 Z"
         transform="matrix(10.000001,0,0,10.000001,0.00625,6.2500003e-5)"
         id="path8888" />
    </clipPath>
    <clipPath
       clipPathUnits="userSpaceOnUse"
       id="clipPath8889">
      <path
         d="M 0,0 H 765 V 689 H 0 Z"
         transform="matrix(10.000001,0,0,10.000001,0.00625,6.2500003e-5)"
         id="path8889" />
    </clipPath>
    <clipPath
       clipPathUnits="userSpaceOnUse"
       id="clipPath8890">
      <path
         d="M 0,0 H 765 V 689 H 0 Z"
         transform="matrix(10.000001,0,0,10.000001,0.00625,6.2500003e-5)"
         id="path8890" />
    </clipPath>
    <clipPath
       clipPathUnits="userSpaceOnUse"
       id="clipPath8891">
      <path
         d="M 0,0 H 765 V 689 H 0 Z"
         transform="matrix(10.000001,0,0,10.000001,0.00625,6.2500003e-5)"
         id="path8891" />
    </clipPath>
    <clipPath
       clipPathUnits="userSpaceOnUse"
       id="clipPath8892">
      <path
         d="M 0,0 H 765 V 689 H 0 Z"
         transform="matrix(10.000001,0,0,10.000001,0.00625,6.2500003e-5)"
         id="path8892" />
    </clipPath>
    <clipPath
       clipPathUnits="userSpaceOnUse"
       id="clipPath8893">
      <path
         d="M 0,0 H 765 V 689 H 0 Z"
         transform="matrix(10.000001,0,0,10.000001,0.00625,6.2500003e-5)"
         id="path8893" />
    </clipPath>
    <clipPath
       clipPathUnits="userSpaceOnUse"
       id="clipPath8894">
      <path
         d="M 0,0 H 765 V 689 H 0 Z"
         transform="matrix(10.000001,0,0,10.000001,0.00625,6.2500003e-5)"
         id="path8894" />
    </clipPath>
    <clipPath
       clipPathUnits="userSpaceOnUse"
       id="clipPath8895">
      <path
         d="M 0,0 H 765 V 689 H 0 Z"
         transform="matrix(10.000001,0,0,10.000001,0.00625,6.2500003e-5)"
         id="path8895" />
    </clipPath>
    <clipPath
       clipPathUnits="userSpaceOnUse"
       id="clipPath8896">
      <path
         d="M 0,0 H 765 V 689 H 0 Z"
         transform="matrix(10.000001,0,0,10.000001,0.00625,6.2500003e-5)"
         id="path8896" />
    </clipPath>
    <clipPath
       clipPathUnits="userSpaceOnUse"
       id="clipPath8897">
      <path
         d="M 0,0 H 765 V 689 H 0 Z"
         transform="matrix(10.000001,0,0,10.000001,0.00625,6.2500003e-5)"
         id="path8897" />
    </clipPath>
    <clipPath
       clipPathUnits="userSpaceOnUse"
       id="clipPath8898">
      <path
         d="M 0,0 H 765 V 689 H 0 Z"
         transform="matrix(10.000001,0,0,10.000001,0.00625,6.2500003e-5)"
         id="path8898" />
    </clipPath>
    <clipPath
       clipPathUnits="userSpaceOnUse"
       id="clipPath8899">
      <path
         d="M 0,0 H 765 V 689 H 0 Z"
         transform="matrix(10.000001,0,0,10.000001,0.00625,6.2500003e-5)"
         id="path8899" />
    </clipPath>
    <clipPath
       clipPathUnits="userSpaceOnUse"
       id="clipPath8900">
      <path
         d="M 0,0 H 765 V 689 H 0 Z"
         transform="matrix(10.000001,0,0,10.000001,0.00625,6.2500003e-5)"
         id="path8900" />
    </clipPath>
    <clipPath
       clipPathUnits="userSpaceOnUse"
       id="clipPath8901">
      <path
         d="M 0,0 H 765 V 689 H 0 Z"
         transform="matrix(10.000001,0,0,10.000001,0.00625,6.2500003e-5)"
         id="path8901" />
    </clipPath>
    <clipPath
       clipPathUnits="userSpaceOnUse"
       id="clipPath8902">
      <path
         d="M 0,0 H 765 V 689 H 0 Z"
         transform="matrix(10.000001,0,0,10.000001,0.00625,6.2500003e-5)"
         id="path8902" />
    </clipPath>
    <clipPath
       clipPathUnits="userSpaceOnUse"
       id="clipPath8903">
      <path
         d="M 0,0 H 765 V 689 H 0 Z"
         transform="matrix(10.000001,0,0,10.000001,0.00625,6.2500003e-5)"
         id="path8903" />
    </clipPath>
    <clipPath
       clipPathUnits="userSpaceOnUse"
       id="clipPath8904">
      <path
         d="M 0,0 H 765 V 689 H 0 Z"
         transform="matrix(10.000001,0,0,10.000001,0.00625,6.2500003e-5)"
         id="path8904" />
    </clipPath>
    <clipPath
       clipPathUnits="userSpaceOnUse"
       id="clipPath8905">
      <path
         d="M 0,0 H 765 V 689 H 0 Z"
         transform="matrix(10.000001,0,0,10.000001,0.00625,6.2500003e-5)"
         id="path8905" />
    </clipPath>
    <clipPath
       clipPathUnits="userSpaceOnUse"
       id="clipPath8906">
      <path
         d="M 0,0 H 765 V 689 H 0 Z"
         transform="matrix(10.000001,0,0,10.000001,0.00625,6.2500003e-5)"
         id="path8906" />
    </clipPath>
    <clipPath
       clipPathUnits="userSpaceOnUse"
       id="clipPath8907">
      <path
         d="M 0,0 H 765 V 689 H 0 Z"
         transform="matrix(10.000001,0,0,10.000001,0.00625,6.2500003e-5)"
         id="path8907" />
    </clipPath>
    <clipPath
       clipPathUnits="userSpaceOnUse"
       id="clipPath8908">
      <path
         d="M 0,0 H 765 V 689 H 0 Z"
         transform="matrix(10.000001,0,0,10.000001,0.00625,6.2500003e-5)"
         id="path8908" />
    </clipPath>
    <clipPath
       clipPathUnits="userSpaceOnUse"
       id="clipPath8909">
      <path
         d="M 0,0 H 765 V 689 H 0 Z"
         transform="matrix(10.000001,0,0,10.000001,0.00625,6.2500003e-5)"
         id="path8909" />
    </clipPath>
    <clipPath
       clipPathUnits="userSpaceOnUse"
       id="clipPath8910">
      <path
         d="M 0,0 H 765 V 689 H 0 Z"
         transform="matrix(10.000001,0,0,10.000001,0.00625,6.2500003e-5)"
         id="path8910" />
    </clipPath>
    <clipPath
       clipPathUnits="userSpaceOnUse"
       id="clipPath8911">
      <path
         d="M 0,0 H 765 V 689 H 0 Z"
         transform="matrix(10.000001,0,0,10.000001,0.00625,6.2500003e-5)"
         id="path8911" />
    </clipPath>
    <clipPath
       clipPathUnits="userSpaceOnUse"
       id="clipPath8912">
      <path
         d="M 0,0 H 765 V 689 H 0 Z"
         transform="matrix(10.000001,0,0,10.000001,0.00625,6.2500003e-5)"
         id="path8912" />
    </clipPath>
    <clipPath
       clipPathUnits="userSpaceOnUse"
       id="clipPath8913">
      <path
         d="M 0,0 H 765 V 689 H 0 Z"
         transform="matrix(10.000001,0,0,10.000001,0.00625,6.2500003e-5)"
         id="path8913" />
    </clipPath>
    <clipPath
       clipPathUnits="userSpaceOnUse"
       id="clipPath8914">
      <path
         d="M 0,0 H 765 V 689 H 0 Z"
         transform="matrix(10.000001,0,0,10.000001,0.00625,6.2500003e-5)"
         id="path8914" />
    </clipPath>
    <clipPath
       clipPathUnits="userSpaceOnUse"
       id="clipPath8915">
      <path
         d="M 0,0 H 765 V 689 H 0 Z"
         transform="matrix(10.000001,0,0,10.000001,0.00625,6.2500003e-5)"
         id="path8915" />
    </clipPath>
    <clipPath
       clipPathUnits="userSpaceOnUse"
       id="clipPath8916">
      <path
         d="M 0,0 H 765 V 689 H 0 Z"
         transform="matrix(10.000001,0,0,10.000001,0.00625,6.2500003e-5)"
         id="path8916" />
    </clipPath>
    <clipPath
       clipPathUnits="userSpaceOnUse"
       id="clipPath8917">
      <path
         d="M 0,0 H 765 V 689 H 0 Z"
         transform="matrix(10.000001,0,0,10.000001,0.00625,6.2500003e-5)"
         id="path8917" />
    </clipPath>
    <clipPath
       clipPathUnits="userSpaceOnUse"
       id="clipPath8918">
      <path
         d="M 0,0 H 765 V 689 H 0 Z"
         transform="matrix(10.000001,0,0,10.000001,0.00625,6.2500003e-5)"
         id="path8918" />
    </clipPath>
    <clipPath
       clipPathUnits="userSpaceOnUse"
       id="clipPath8919">
      <path
         d="M 0,0 H 765 V 689 H 0 Z"
         transform="matrix(10.000001,0,0,10.000001,0.00625,6.2500003e-5)"
         id="path8919" />
    </clipPath>
    <clipPath
       clipPathUnits="userSpaceOnUse"
       id="clipPath8920">
      <path
         d="M 0,0 H 765 V 689 H 0 Z"
         transform="matrix(10.000001,0,0,10.000001,0.00625,6.2500003e-5)"
         id="path8920" />
    </clipPath>
    <clipPath
       clipPathUnits="userSpaceOnUse"
       id="clipPath8921">
      <path
         d="M 0,0 H 765 V 689 H 0 Z"
         transform="matrix(10.000001,0,0,10.000001,0.00625,6.2500003e-5)"
         id="path8921" />
    </clipPath>
    <clipPath
       clipPathUnits="userSpaceOnUse"
       id="clipPath8922">
      <path
         d="M 0,0 H 765 V 689 H 0 Z"
         transform="matrix(10.000001,0,0,10.000001,0.00625,6.2500003e-5)"
         id="path8922" />
    </clipPath>
    <clipPath
       clipPathUnits="userSpaceOnUse"
       id="clipPath8923">
      <path
         d="M 0,0 H 765 V 689 H 0 Z"
         transform="matrix(10.000001,0,0,10.000001,0.00625,6.2500003e-5)"
         id="path8923" />
    </clipPath>
    <clipPath
       clipPathUnits="userSpaceOnUse"
       id="clipPath8924">
      <path
         d="M 0,0 H 765 V 689 H 0 Z"
         transform="matrix(10.000001,0,0,10.000001,0.00625,6.2500003e-5)"
         id="path8924" />
    </clipPath>
    <clipPath
       clipPathUnits="userSpaceOnUse"
       id="clipPath8925">
      <path
         d="M 0,0 H 765 V 689 H 0 Z"
         transform="matrix(10.000001,0,0,10.000001,0.00625,6.2500003e-5)"
         id="path8925" />
    </clipPath>
    <clipPath
       clipPathUnits="userSpaceOnUse"
       id="clipPath8926">
      <path
         d="M 0,0 H 765 V 689 H 0 Z"
         transform="matrix(10.000001,0,0,10.000001,0.00625,6.2500003e-5)"
         id="path8926" />
    </clipPath>
    <clipPath
       clipPathUnits="userSpaceOnUse"
       id="clipPath8927">
      <path
         d="M 0,0 H 765 V 689 H 0 Z"
         transform="matrix(10.000001,0,0,10.000001,0.00625,6.2500003e-5)"
         id="path8927" />
    </clipPath>
    <clipPath
       clipPathUnits="userSpaceOnUse"
       id="clipPath8928">
      <path
         d="M 0,0 H 765 V 689 H 0 Z"
         transform="matrix(10.000001,0,0,10.000001,0.00625,6.2500003e-5)"
         id="path8928" />
    </clipPath>
    <clipPath
       clipPathUnits="userSpaceOnUse"
       id="clipPath8929">
      <path
         d="M 0,0 H 765 V 689 H 0 Z"
         transform="matrix(10.000001,0,0,10.000001,0.00625,6.2500003e-5)"
         id="path8929" />
    </clipPath>
    <clipPath
       clipPathUnits="userSpaceOnUse"
       id="clipPath8930">
      <path
         d="M 0,0 H 765 V 689 H 0 Z"
         transform="matrix(10.000001,0,0,10.000001,0.00625,6.2500003e-5)"
         id="path8930" />
    </clipPath>
    <clipPath
       clipPathUnits="userSpaceOnUse"
       id="clipPath8931">
      <path
         d="M 0,0 H 765 V 689 H 0 Z"
         transform="matrix(10.000001,0,0,10.000001,0.00625,6.2500003e-5)"
         id="path8931" />
    </clipPath>
  </defs>
  <sodipodi:namedview
     id="namedview1"
     pagecolor="#ffffff"
     bordercolor="#000000"
     borderopacity="0.25"
     inkscape:showpageshadow="2"
     inkscape:pageopacity="0.0"
     inkscape:pagecheckerboard="0"
     inkscape:deskcolor="#d1d1d1">
    <inkscape:page
       x="0"
       y="0"
       width="407.75781"
       height="367.21057"
       id="page2"
       margin="0"
       bleed="0" />
  </sodipodi:namedview>
  <g
     id="g8778"
     inkscape:groupmode="layer"
     inkscape:label="43"
     transform="translate(-34368.312,-403.42806)">
    <g
       id="g9008">
      <path
         d="M 7641.72,3882.07 C 6130.04,3988.01 2983.98,5074.41 2868.75,5760.94"
         style="fill:none;stroke:#000005;stroke-width:7.51181;stroke-linecap:round;stroke-linejoin:bevel;stroke-miterlimit:4;stroke-dasharray:none;stroke-opacity:1"
         transform="matrix(0.05333333,0,0,-0.05333333,34368.309,770.89467)"
         clip-path="url(#clipPath8855)"
         id="path8932" />
      <path
         d="m 2868.75,5760.94 c 0,389.14 1068.48,704.57 2386.48,704.57 850.98,0 1597.93,-131.49 2020.47,-329.42"
         style="fill:none;stroke:#000005;stroke-width:7.51181;stroke-linecap:round;stroke-linejoin:bevel;stroke-miterlimit:4;stroke-dasharray:none;stroke-opacity:1"
         transform="matrix(0.05333333,0,0,-0.05333333,34368.309,770.89467)"
         clip-path="url(#clipPath8856)"
         id="path8933" />
      <path
         d="m 7275.7,6136.09 c 231.88,-108.63 366.02,-237.26 366.02,-375.15"
         style="fill:none;stroke:#000005;stroke-width:7.51181;stroke-linecap:round;stroke-linejoin:bevel;stroke-miterlimit:4;stroke-dasharray:none;stroke-opacity:1"
         transform="matrix(0.05333333,0,0,-0.05333333,34368.309,770.89467)"
         clip-path="url(#clipPath8857)"
         id="path8934" />
      <path
         d="M 7641.72,5760.94 C 7361.72,4548.79 2901.21,3567.77 2868.75,3882.07"
         style="fill:none;stroke:#000005;stroke-width:7.51181;stroke-linecap:round;stroke-linejoin:bevel;stroke-miterlimit:4;stroke-dasharray:none;stroke-opacity:1"
         transform="matrix(0.05333333,0,0,-0.05333333,34368.309,770.89467)"
         clip-path="url(#clipPath8858)"
         id="path8935" />
      <path
         d="m 2868.75,3882.07 c 0,389.1 1068.48,704.57 2386.48,704.57 1318.01,0 2386.49,-315.47 2386.49,-704.57"
         style="fill:none;stroke:#000005;stroke-width:7.51181;stroke-linecap:round;stroke-linejoin:bevel;stroke-miterlimit:4;stroke-dasharray:60.0945, 60.0945;stroke-dashoffset:0;stroke-opacity:1"
         transform="matrix(0.05333333,0,0,-0.05333333,34368.309,770.89467)"
         clip-path="url(#clipPath8859)"
         id="path8936" />
      <path
         d="M 2868.75,5760.94 V 3882.07"
         style="fill:none;stroke:#000000;stroke-width:7.5;stroke-linecap:butt;stroke-linejoin:miter;stroke-miterlimit:4;stroke-dasharray:none;stroke-opacity:1"
         transform="matrix(0.05333333,0,0,-0.05333333,34368.309,770.89467)"
         clip-path="url(#clipPath8860)"
         id="path8937" />
      <path
         d="M 7641.72,5760.94 V 3882.07"
         style="fill:none;stroke:#000000;stroke-width:7.5;stroke-linecap:butt;stroke-linejoin:miter;stroke-miterlimit:4;stroke-dasharray:none;stroke-opacity:1"
         transform="matrix(0.05333333,0,0,-0.05333333,34368.309,770.89467)"
         clip-path="url(#clipPath8861)"
         id="path8938" />
      <path
         d="m 7641.72,1503.16 c 0,-389.14 -1068.48,-704.609 -2386.49,-704.609 -1318,0 -2386.48,315.469 -2386.48,704.609"
         style="fill:none;stroke:#000005;stroke-width:7.51181;stroke-linecap:round;stroke-linejoin:bevel;stroke-miterlimit:4;stroke-dasharray:none;stroke-opacity:1"
         transform="matrix(0.05333333,0,0,-0.05333333,34368.309,770.89467)"
         clip-path="url(#clipPath8862)"
         id="path8939" />
      <path
         d="m 2868.75,1503.16 c 0,389.11 1068.48,704.57 2386.48,704.57 1318.01,0 2386.49,-315.46 2386.49,-704.57"
         style="fill:none;stroke:#000005;stroke-width:7.51181;stroke-linecap:round;stroke-linejoin:bevel;stroke-miterlimit:4;stroke-dasharray:none;stroke-opacity:1"
         transform="matrix(0.05333333,0,0,-0.05333333,34368.309,770.89467)"
         clip-path="url(#clipPath8863)"
         id="path8940" />
      <path
         d="M 3641.52,5086.68 3444.53,3844.18"
         style="fill:none;stroke:#000000;stroke-width:7.5;stroke-linecap:butt;stroke-linejoin:miter;stroke-miterlimit:4;stroke-dasharray:none;stroke-opacity:1"
         transform="matrix(0.05333333,0,0,-0.05333333,34368.309,770.89467)"
         clip-path="url(#clipPath8864)"
         id="path8941" />
      <path
         d="m 4232.46,4798.79 90.9,-772.77"
         style="fill:none;stroke:#000000;stroke-width:7.5;stroke-linecap:butt;stroke-linejoin:miter;stroke-miterlimit:4;stroke-dasharray:none;stroke-opacity:1"
         transform="matrix(0.05333333,0,0,-0.05333333,34368.309,770.89467)"
         clip-path="url(#clipPath8865)"
         id="path8942" />
      <path
         d="m 4520.35,4692.7 181.84,-560.63"
         style="fill:none;stroke:#000000;stroke-width:7.5;stroke-linecap:butt;stroke-linejoin:miter;stroke-miterlimit:4;stroke-dasharray:none;stroke-opacity:1"
         transform="matrix(0.05333333,0,0,-0.05333333,34368.309,770.89467)"
         clip-path="url(#clipPath8866)"
         id="path8943" />
      <path
         d="M 3777.89,5026.05 3641.52,3874.49"
         style="fill:none;stroke:#000000;stroke-width:7.5;stroke-linecap:butt;stroke-linejoin:miter;stroke-miterlimit:4;stroke-dasharray:none;stroke-opacity:1"
         transform="matrix(0.05333333,0,0,-0.05333333,34368.309,770.89467)"
         clip-path="url(#clipPath8867)"
         id="path8944" />
      <path
         d="m 4035.47,4874.53 15.16,-909.14"
         style="fill:none;stroke:#000000;stroke-width:7.5;stroke-linecap:butt;stroke-linejoin:miter;stroke-miterlimit:4;stroke-dasharray:none;stroke-opacity:1"
         transform="matrix(0.05333333,0,0,-0.05333333,34368.309,770.89467)"
         clip-path="url(#clipPath8868)"
         id="path8945" />
      <path
         d="m 4353.67,4738.16 121.21,-666.68"
         style="fill:none;stroke:#000000;stroke-width:7.5;stroke-linecap:butt;stroke-linejoin:miter;stroke-miterlimit:4;stroke-dasharray:none;stroke-opacity:1"
         transform="matrix(0.05333333,0,0,-0.05333333,34368.309,770.89467)"
         clip-path="url(#clipPath8869)"
         id="path8946" />
      <path
         d="M 3914.26,4950.31 3853.63,3919.96"
         style="fill:none;stroke:#000000;stroke-width:7.5;stroke-linecap:butt;stroke-linejoin:miter;stroke-miterlimit:4;stroke-dasharray:none;stroke-opacity:1"
         transform="matrix(0.05333333,0,0,-0.05333333,34368.309,770.89467)"
         clip-path="url(#clipPath8870)"
         id="path8947" />
      <path
         d="m 4141.52,4859.37 60.63,-848.51"
         style="fill:none;stroke:#000000;stroke-width:7.5;stroke-linecap:butt;stroke-linejoin:miter;stroke-miterlimit:4;stroke-dasharray:none;stroke-opacity:1"
         transform="matrix(0.05333333,0,0,-0.05333333,34368.309,770.89467)"
         clip-path="url(#clipPath8871)"
         id="path8948" />
      <path
         d="M 4444.57,4723.01 4626.41,4086.6"
         style="fill:none;stroke:#000000;stroke-width:7.5;stroke-linecap:butt;stroke-linejoin:miter;stroke-miterlimit:4;stroke-dasharray:none;stroke-opacity:1"
         transform="matrix(0.05333333,0,0,-0.05333333,34368.309,770.89467)"
         clip-path="url(#clipPath8872)"
         id="path8949" />
      <path
         d="M 3444.53,3844.18 V 1041.02"
         style="fill:none;stroke:#000000;stroke-width:7.5;stroke-linecap:butt;stroke-linejoin:miter;stroke-miterlimit:4;stroke-dasharray:90, 90;stroke-dashoffset:0;stroke-opacity:1"
         transform="matrix(0.05333333,0,0,-0.05333333,34368.309,770.89467)"
         clip-path="url(#clipPath8873)"
         id="path8950" />
      <path
         d="M 4702.19,4132.07 V 813.711"
         style="fill:none;stroke:#000000;stroke-width:7.5;stroke-linecap:butt;stroke-linejoin:miter;stroke-miterlimit:4;stroke-dasharray:90, 90;stroke-dashoffset:0;stroke-opacity:1"
         transform="matrix(0.05333333,0,0,-0.05333333,34368.309,770.89467)"
         clip-path="url(#clipPath8874)"
         id="path8951" />
      <path
         d="m 7275.7,6136.09 2.35,-1889.88"
         style="fill:none;stroke:#000000;stroke-width:7.5;stroke-linecap:butt;stroke-linejoin:miter;stroke-miterlimit:4;stroke-dasharray:none;stroke-opacity:1"
         transform="matrix(0.05333333,0,0,-0.05333333,34368.309,770.89467)"
         clip-path="url(#clipPath8875)"
         id="path8952" />
      <path
         d="M 7278.05,4246.21 V 1889.53"
         style="fill:none;stroke:#000000;stroke-width:7.5;stroke-linecap:butt;stroke-linejoin:miter;stroke-miterlimit:4;stroke-dasharray:90, 90;stroke-dashoffset:0;stroke-opacity:1"
         transform="matrix(0.05333333,0,0,-0.05333333,34368.309,770.89467)"
         clip-path="url(#clipPath8876)"
         id="path8953" />
      <path
         d="m 3641.52,1177.38 c 0,0 -154.64,-68.67 -196.99,-136.36 -35.23,-56.329 -106.05,-181.84 -106.05,-181.84"
         style="fill:none;stroke:#000000;stroke-width:7.5;stroke-linecap:butt;stroke-linejoin:miter;stroke-miterlimit:4;stroke-dasharray:none;stroke-opacity:1"
         transform="matrix(0.05333333,0,0,-0.05333333,34368.309,770.89467)"
         clip-path="url(#clipPath8877)"
         id="path8954" />
      <path
         d="m 4808.24,980.391 c 0,0 -62.07,-117.661 -106.05,-166.68 C 4658.98,765.59 4550.66,692.5 4550.66,692.5"
         style="fill:none;stroke:#000000;stroke-width:7.5;stroke-linecap:butt;stroke-linejoin:miter;stroke-miterlimit:4;stroke-dasharray:none;stroke-opacity:1"
         transform="matrix(0.05333333,0,0,-0.05333333,34368.309,770.89467)"
         clip-path="url(#clipPath8878)"
         id="path8955" />
      <path
         d="m 3262.7,844.02 c -336.41,-323.938 460.27,52.351 287.89,-545.469 303.04,500 863.71,0 1060.66,318.211"
         style="fill:none;stroke:#000000;stroke-width:7.5;stroke-linecap:butt;stroke-linejoin:miter;stroke-miterlimit:4;stroke-dasharray:none;stroke-opacity:1"
         transform="matrix(0.05333333,0,0,-0.05333333,34368.309,770.89467)"
         clip-path="url(#clipPath8879)"
         id="path8956" />
      <path
         d="m 7320.59,1869.96 c 0,-23.51 -19.03,-42.54 -42.54,-42.54 -23.48,0 -42.5,19.03 -42.5,42.54 0,23.48 19.02,42.5 42.5,42.5 23.51,0 42.54,-19.02 42.54,-42.5 z"
         style="fill:#000000;fill-opacity:1;fill-rule:nonzero;stroke:none"
         transform="matrix(0.05333333,0,0,-0.05333333,34368.309,770.89467)"
         clip-path="url(#clipPath8880)"
         id="path8957" />
      <path
         d="m 3678.75,5231.91 c 68.95,385.9 284.69,-305.27 642.85,171.45 -257.15,-567.85 471.45,-342.85 257.15,-653.59"
         style="fill:none;stroke:#000000;stroke-width:7.5;stroke-linecap:butt;stroke-linejoin:miter;stroke-miterlimit:4;stroke-dasharray:none;stroke-opacity:1"
         transform="matrix(0.05333333,0,0,-0.05333333,34368.309,770.89467)"
         clip-path="url(#clipPath8881)"
         id="path8958" />
      <path
         d="M 5628.75,3860.51 V 2606.91"
         style="fill:none;stroke:#000000;stroke-width:7.5;stroke-linecap:butt;stroke-linejoin:miter;stroke-miterlimit:4;stroke-dasharray:none;stroke-opacity:1"
         transform="matrix(0.05333333,0,0,-0.05333333,34368.309,770.89467)"
         clip-path="url(#clipPath8882)"
         id="path8959" />
      <path
         d="m 5628.75,2681.91 -30,30 30,-105 30,105 z"
         style="fill:#000000;fill-opacity:1;fill-rule:evenodd;stroke:#000000;stroke-width:8;stroke-linecap:butt;stroke-linejoin:miter;stroke-miterlimit:4;stroke-dasharray:none;stroke-opacity:1"
         transform="matrix(0.05333333,0,0,-0.05333333,34368.309,770.89467)"
         clip-path="url(#clipPath8883)"
         id="path8960" />
      <path
         d="m 5784.65,3285.55 h 38.71 c -11.29,-50.75 -14.45,-65.47 -14.45,-88.36 0,-5.16 0,-14.38 2.85,-26.1 3.44,-15.04 7.19,-17.11 12.38,-17.11 6.72,0 13.95,6.14 13.95,13.01 0,2.07 0,2.81 -2.07,7.54 -9.89,24.73 -9.89,46.92 -9.89,56.56 0,18.17 2.39,36.72 6.1,54.46 h 39.14 c 4.41,0 16.79,0 16.79,11.72 0,8.16 -7.22,8.16 -13.75,8.16 h -114.8 c -7.5,0 -20.51,0 -35.55,-16.17 -12.03,-13.24 -20.97,-29.06 -20.97,-30.78 0,-0.36 0,-3.32 4.1,-3.32 2.77,0 3.44,1.25 5.43,4.06 16.95,26.33 36.79,26.33 43.55,26.33 h 19.61 c -11.01,-41.41 -29.53,-82.85 -43.9,-114.03 -2.82,-5.15 -2.82,-5.9 -2.82,-8.24 0,-6.6 5.51,-9.3 10.04,-9.3 10.31,0 13.01,9.57 17.07,22.27 4.88,15.78 4.88,16.45 9.3,33.63 z"
         style="fill:#000000;fill-opacity:1;fill-rule:evenodd;stroke:none"
         transform="matrix(0.05333333,0,0,-0.05333333,34368.309,770.89467)"
         clip-path="url(#clipPath8884)"
         id="path8961" />
      <path
         d="M 14.4492,4245.39 H 1589.49 c 5.47,0 9.89,-4.37 9.89,-9.88 V 3164.06 c 0,-5.51 -4.42,-9.92 -9.89,-9.92 H 14.4492 c -5.46873,0 -9.87889,4.41 -9.87889,9.92 v 1071.45 c 0,5.51 4.41016,9.88 9.87889,9.88 z"
         style="fill:none;stroke:#000005;stroke-width:9.11521;stroke-linecap:round;stroke-linejoin:bevel;stroke-miterlimit:4;stroke-dasharray:none;stroke-opacity:1"
         transform="matrix(0.05333333,0,0,-0.05333333,34368.309,770.89467)"
         clip-path="url(#clipPath8885)"
         id="path8962" />
      <path
         d="M 132.34,4235.51 V 3164.06"
         style="fill:none;stroke:#000000;stroke-width:7.5;stroke-linecap:butt;stroke-linejoin:miter;stroke-miterlimit:4;stroke-dasharray:none;stroke-opacity:1"
         transform="matrix(0.05333333,0,0,-0.05333333,34368.309,770.89467)"
         clip-path="url(#clipPath8886)"
         id="path8963" />
      <path
         d="M 271.602,4235.51 V 3164.06"
         style="fill:none;stroke:#000000;stroke-width:7.5;stroke-linecap:butt;stroke-linejoin:miter;stroke-miterlimit:4;stroke-dasharray:none;stroke-opacity:1"
         transform="matrix(0.05333333,0,0,-0.05333333,34368.309,770.89467)"
         clip-path="url(#clipPath8887)"
         id="path8964" />
      <path
         d="M 421.602,4235.51 V 3164.06"
         style="fill:none;stroke:#000000;stroke-width:7.5;stroke-linecap:butt;stroke-linejoin:miter;stroke-miterlimit:4;stroke-dasharray:none;stroke-opacity:1"
         transform="matrix(0.05333333,0,0,-0.05333333,34368.309,770.89467)"
         clip-path="url(#clipPath8888)"
         id="path8965" />
      <path
         d="M 560.898,4235.51 V 3164.06"
         style="fill:none;stroke:#000000;stroke-width:7.5;stroke-linecap:butt;stroke-linejoin:miter;stroke-miterlimit:4;stroke-dasharray:none;stroke-opacity:1"
         transform="matrix(0.05333333,0,0,-0.05333333,34368.309,770.89467)"
         clip-path="url(#clipPath8889)"
         id="path8966" />
      <path
         d="M 710.898,4235.51 V 3164.06"
         style="fill:none;stroke:#000000;stroke-width:7.5;stroke-linecap:butt;stroke-linejoin:miter;stroke-miterlimit:4;stroke-dasharray:none;stroke-opacity:1"
         transform="matrix(0.05333333,0,0,-0.05333333,34368.309,770.89467)"
         clip-path="url(#clipPath8890)"
         id="path8967" />
      <path
         d="M 850.199,4235.51 V 3164.06"
         style="fill:none;stroke:#000000;stroke-width:7.5;stroke-linecap:butt;stroke-linejoin:miter;stroke-miterlimit:4;stroke-dasharray:none;stroke-opacity:1"
         transform="matrix(0.05333333,0,0,-0.05333333,34368.309,770.89467)"
         clip-path="url(#clipPath8891)"
         id="path8968" />
      <path
         d="M 1000.2,4235.51 V 3164.06"
         style="fill:none;stroke:#000000;stroke-width:7.5;stroke-linecap:butt;stroke-linejoin:miter;stroke-miterlimit:4;stroke-dasharray:none;stroke-opacity:1"
         transform="matrix(0.05333333,0,0,-0.05333333,34368.309,770.89467)"
         clip-path="url(#clipPath8892)"
         id="path8969" />
      <path
         d="M 1139.45,4235.51 V 3164.06"
         style="fill:none;stroke:#000000;stroke-width:7.5;stroke-linecap:butt;stroke-linejoin:miter;stroke-miterlimit:4;stroke-dasharray:none;stroke-opacity:1"
         transform="matrix(0.05333333,0,0,-0.05333333,34368.309,770.89467)"
         clip-path="url(#clipPath8893)"
         id="path8970" />
      <path
         d="M 1300.2,4235.51 V 3164.06"
         style="fill:none;stroke:#000000;stroke-width:7.5;stroke-linecap:butt;stroke-linejoin:miter;stroke-miterlimit:4;stroke-dasharray:none;stroke-opacity:1"
         transform="matrix(0.05333333,0,0,-0.05333333,34368.309,770.89467)"
         clip-path="url(#clipPath8894)"
         id="path8971" />
      <path
         d="M 1439.45,4235.51 V 3164.06"
         style="fill:none;stroke:#000000;stroke-width:7.5;stroke-linecap:butt;stroke-linejoin:miter;stroke-miterlimit:4;stroke-dasharray:none;stroke-opacity:1"
         transform="matrix(0.05333333,0,0,-0.05333333,34368.309,770.89467)"
         clip-path="url(#clipPath8895)"
         id="path8972" />
      <path
         d="m 3957.34,3871.21 c 0,0 -634.76,-540.35 -1092.89,-589.3 -365,-38.98 -1157.11,353.6 -1157.11,353.6"
         style="fill:none;stroke:#000000;stroke-width:7.5;stroke-linecap:butt;stroke-linejoin:miter;stroke-miterlimit:4;stroke-dasharray:none;stroke-opacity:1"
         transform="matrix(0.05333333,0,0,-0.05333333,34368.309,770.89467)"
         clip-path="url(#clipPath8896)"
         id="path8973" />
      <path
         d="m 1774.53,3602.19 40.2,13.55 -107.39,19.77 80.75,-73.52 z"
         style="fill:#000000;fill-opacity:1;fill-rule:evenodd;stroke:none"
         transform="matrix(0.05333333,0,0,-0.05333333,34368.309,770.89467)"
         clip-path="url(#clipPath8897)"
         id="path8974" />
      <path
         d="m 1774.53,3602.19 40.2,13.55 -107.39,19.77 80.74,-73.52 z"
         style="fill:none;stroke:#000000;stroke-width:8;stroke-linecap:butt;stroke-linejoin:miter;stroke-miterlimit:4;stroke-dasharray:none;stroke-opacity:1"
         transform="matrix(0.05333333,0,0,-0.05333333,34368.309,770.89467)"
         clip-path="url(#clipPath8898)"
         id="path8975" />
      <path
         d="m 2694.45,3204.26 v 0.43 l 0.08,0.15 v 0.36 l 0.12,0.35 v 0.23 l 0.08,0.12 v 0.23 l 0.07,0.2 0.08,0.23 0.08,0.43 0.12,0.43 v 0.2 l 0.08,0.15 0.07,0.24 v 0.19 l 0.16,0.32 v 0.11 l 0.08,0.16 v 0.27 h 0.04 v 0.31 c 0,0.28 0,3.6 -4.22,3.6 -3.59,0 -3.99,-1.17 -5.43,-7.19 l -20.78,-82.81 c -57.03,-1.8 -109.81,-49.53 -109.81,-98.36 0,-34.02 25.04,-62.42 68.83,-64.84 l 1.8,7.85 c -21.45,0.97 -47.38,13.59 -47.38,49.45 0,43.13 30.97,93.28 84.37,97.89 l -36.99,-147.34 -1.8,-7.85 c -2.81,-11.18 -5.23,-22.7 -8.2,-33.79 -4.26,-16.92 -7.85,-30.51 -7.85,-31.61 0,-3.51 2.46,-3.94 4.25,-3.94 1.8,0 2.58,0.43 3.6,1.44 0.66,0.71 2.97,9.34 3.94,14.38 l 13.64,53.52 1.79,7.85 37,147.34 c 27.22,-1.37 47.65,-17.93 47.65,-49.53 0,-42.27 -30.82,-93.59 -84.65,-97.81 l -1.79,-7.85 c 57.81,1.79 109.76,50.11 109.76,98.2 0,28.28 -18.98,61.4 -68.86,65 z"
         style="fill:#000000;fill-opacity:1;fill-rule:evenodd;stroke:none"
         transform="matrix(0.05333333,0,0,-0.05333333,34368.309,770.89467)"
         clip-path="url(#clipPath8899)"
         id="path8976" />
      <path
         d="m 2888.32,2945.78 2.15,2.23 2.03,2.3 3.91,4.77 1.79,2.46 1.72,2.34 1.64,2.46 1.6,2.46 1.53,2.43 1.4,2.46 1.37,2.46 1.25,2.38 1.21,2.34 1.17,2.31 1.06,2.3 1.01,2.19 1.02,2.15 0.86,2.07 0.78,2.03 0.74,1.95 0.71,1.8 0.58,1.8 0.59,1.56 0.47,1.52 0.47,1.45 0.35,1.21 0.35,1.17 0.23,1.02 0.2,0.78 0.15,0.7 0.08,0.51 v 0.35 c 0,3.24 -3.04,3.24 -4.26,3.24 -3.59,0 -3.59,-0.62 -5.35,-6.17 -4.45,-16.64 -12.81,-31.95 -23.4,-45.43 -0.19,3.67 -0.62,20.59 -1.21,22.82 -3.67,24.84 -22.46,40.82 -47.57,40.82 l -0.32,-7 c 20.12,0 25.86,-19.33 27.89,-34.84 1.45,-10.78 1.02,-28.56 2.23,-41.8 -24.61,-20.19 -45.86,-22.42 -55.43,-22.42 -16.56,0 -25.86,11.02 -25.86,27.89 0,7.19 3.59,34.53 16.64,51.84 11.45,15.11 25.78,19.33 34.53,19.33 l 0.32,7 c -36.88,0 -72.31,-34.26 -72.31,-69.42 0,-23.01 16.88,-43.59 45.86,-43.59 23.2,0 44.02,10.43 57.97,21.21 5.82,-18.36 18.63,-21.21 26.05,-21.21 14.61,0 23.64,12.22 23.64,17.54 0,3.04 -3.05,3.04 -4.26,3.04 -3.24,0 -3.67,-1.01 -4.26,-2.61 -3.51,-9.42 -11.29,-11.02 -14.3,-11.02 -3.47,0 -7.77,0 -9.02,30.82 z"
         style="fill:#000000;fill-opacity:1;fill-rule:evenodd;stroke:none"
         transform="matrix(0.05333333,0,0,-0.05333333,34368.309,770.89467)"
         clip-path="url(#clipPath8900)"
         id="path8977" />
      <path
         d="m 3495.9,237.5 0.62,2.379 0.32,1.211 0.39,1.14 0.39,1.09 0.43,1.051 0.47,1.098 1.01,2.031 0.63,1.02 0.58,0.968 0.71,0.864 0.66,0.898 0.86,0.902 0.82,0.778 0.9,0.82 0.94,0.738 1.09,0.711 1.05,0.703 1.21,0.618 1.22,0.589 1.32,0.59 1.49,0.5 1.44,0.512 1.68,0.43 1.64,0.39 1.8,0.391 1.91,0.238 1.96,0.309 2.11,0.191 2.22,0.199 1.14,0.082 h 1.21 c 1.6,0 5.35,0.309 5.35,6.36 0,0.32 0,3.48 -4.06,3.48 -10.43,0 -21.57,-1.011 -32.35,-1.011 -10.82,0 -22.58,1.011 -33.01,1.011 -1.83,0 -5.66,0 -5.66,-6.371 0,-3.469 3.16,-3.469 5.66,-3.469 18.13,-0.281 21.57,-6.961 21.57,-13.871 0,-1.019 -0.71,-5.82 -0.94,-6.679 l -28.59,-113.239 c -10.67,-42.4606 -47.19,-69.9997 -78.87,-69.9997 -21.52,0 -38.67,13.9375 -38.67,41.168 0,0.6992 0,10.8207 3.47,24.7307 l 30.78,123.32 c 2.82,11.359 3.52,14.57 26.68,14.57 8.13,0 10.67,0 10.67,6.36 0,3.48 -3.4,3.48 -4.45,3.48 -8.83,0 -31.68,-1.011 -40.51,-1.011 -9.18,0 -31.76,1.011 -40.9,1.011 -2.54,0 -6.06,0 -6.06,-6.371 0,-3.469 2.86,-3.469 8.99,-3.469 0.55,0 6.6,0 12.03,-0.589 5.63,-0.7 8.52,-1.012 8.52,-5.082 0,-1.989 -3.52,-15.188 -5.36,-22.54 l -7.07,-27.851 c -2.81,-12.418 -18,-72.258 -19.25,-78.32 -2.23,-8.829 -2.23,-13.629 -2.23,-18.399 0,-38.6717 28.79,-60.8202 62.15,-60.8202 39.8,0 79.22,35.7813 89.65,77.6212 z"
         style="fill:#000000;fill-opacity:1;fill-rule:evenodd;stroke:none"
         transform="matrix(0.05333333,0,0,-0.05333333,34368.309,770.89467)"
         clip-path="url(#clipPath8901)"
         id="path8978" />
      <path
         d="m 3631.91,38.1992 1.92,1.961 1.76,2.0312 3.43,4.2188 1.61,2.1406 1.52,2.1094 1.48,2.1484 1.37,2.1914 1.37,2.1523 1.25,2.1485 1.21,2.1797 1.09,2.1093 1.1,2.0704 1.01,2.039 0.94,2.0703 0.9,1.8711 0.9,1.9102 0.74,1.8789 0.7,1.7617 0.63,1.7188 0.66,1.6015 0.51,1.5977 0.51,1.3711 0.43,1.3593 0.39,1.25 0.31,1.1016 0.31,1.0078 0.2,0.9024 0.19,0.6992 0.12,0.6289 0.08,0.4297 v 0.3125 c 0,2.8867 -2.7,2.8867 -3.75,2.8867 -3.21,0 -3.21,-0.5781 -4.73,-5.4688 -3.94,-14.7187 -11.33,-28.2382 -20.66,-40.1484 -0.2,3.2383 -0.59,18.1992 -1.1,20.1484 -3.24,21.961 -19.84,36.1012 -42.03,36.1012 l -0.27,-6.1715 c 17.77,0 22.85,-17.1093 24.61,-30.8203 1.29,-9.539 0.9,-25.2383 1.99,-36.9609 -21.76,-17.8086 -40.55,-19.7578 -48.98,-19.7578 -14.65,0 -22.86,9.7187 -22.86,24.6093 0,6.3594 3.21,30.5391 14.69,45.8204 10.12,13.3593 22.77,17.1093 30.55,17.1093 l 0.27,6.1715 c -32.58,0 -63.9,-30.3199 -63.9,-61.3316 0,-20.3906 14.92,-38.55862 40.54,-38.55862 20.47,0 38.87,9.21872 51.21,18.75002 5.16,-16.21096 16.49,-18.75002 23.05,-18.75002 12.89,0 20.9,10.82032 20.9,15.50782 0,2.6602 -2.74,2.6602 -3.79,2.6602 -2.89,0 -3.24,-0.8594 -3.75,-2.2696 -3.13,-8.3594 -10,-9.7187 -12.66,-9.7187 -3.08,0 -6.87,0 -7.97,27.2187 z"
         style="fill:#000000;fill-opacity:1;fill-rule:evenodd;stroke:none"
         transform="matrix(0.05333333,0,0,-0.05333333,34368.309,770.89467)"
         clip-path="url(#clipPath8902)"
         id="path8979" />
      <path
         d="m 4021.17,5578.98 h 35.74 c -10.39,-46.83 -13.32,-60.39 -13.32,-81.52 0,-4.76 0,-13.28 2.58,-24.06 3.21,-13.91 6.68,-15.78 11.45,-15.78 6.21,0 12.89,5.62 12.89,11.99 0,1.87 0,2.58 -1.92,6.95 -9.14,22.81 -9.14,43.28 -9.14,52.19 0,16.72 2.23,33.87 5.63,50.23 h 36.13 c 4.06,0 15.47,0 15.47,10.79 0,7.57 -6.64,7.57 -12.7,7.57 h -105.89 c -6.92,0 -18.91,0 -32.82,-14.92 -11.09,-12.26 -19.33,-26.83 -19.33,-28.44 0,-0.31 0,-3.04 3.79,-3.04 2.54,0 3.2,1.13 5.04,3.75 15.58,24.29 33.94,24.29 40.15,24.29 h 18.09 c -10.16,-38.2 -27.23,-76.44 -40.51,-105.19 -2.58,-4.77 -2.58,-5.47 -2.58,-7.62 0,-6.09 5.08,-8.55 9.26,-8.55 9.53,0 11.99,8.79 15.74,20.54 4.49,14.54 4.49,15.16 8.56,31.02 z"
         style="fill:#000000;fill-opacity:1;fill-rule:evenodd;stroke:none"
         transform="matrix(0.05333333,0,0,-0.05333333,34368.309,770.89467)"
         clip-path="url(#clipPath8903)"
         id="path8980" />
      <path
         d="m 4293.79,5625.23 h 0.7 l 0.74,0.08 h 1.1 l 0.39,0.08 h 0.35 l 0.39,0.04 0.31,0.08 0.39,0.04 0.39,0.07 0.32,0.08 0.39,0.12 0.62,0.23 0.32,0.16 0.31,0.2 0.27,0.15 0.24,0.2 0.5,0.51 0.12,0.15 0.16,0.12 0.04,0.12 0.11,0.19 0.08,0.12 0.08,0.19 0.12,0.12 0.07,0.2 0.04,0.19 0.08,0.2 0.04,0.19 v 0.2 l 0.08,0.23 v 0.2 l 0.08,0.19 v 0.74 c 0,5.47 -5.04,5.47 -8.83,5.47 h -131.72 c -3.55,0 -8.83,0 -8.83,-5.27 0,-5.59 5,-5.59 8.83,-5.59 z"
         style="fill:#000000;fill-opacity:1;fill-rule:evenodd;stroke:none"
         transform="matrix(0.05333333,0,0,-0.05333333,34368.309,770.89467)"
         clip-path="url(#clipPath8904)"
         id="path8981" />
      <path
         d="m 4400.59,5715.94 v 2.22 l -0.08,0.16 v 0.59 l -0.04,0.19 v 0.31 l -0.08,0.2 v 0.12 l -0.08,0.11 v 0.2 l -0.11,0.27 -0.08,0.24 -0.35,0.58 -0.16,0.2 -0.16,0.12 -0.19,0.11 -0.2,0.08 -0.27,0.12 -0.24,0.08 -0.31,0.03 -0.27,0.08 -0.2,0.08 h -0.31 l -0.19,0.04 h -0.82 l -0.2,0.08 h -2.27 c -14.21,-13.99 -34.25,-14.14 -43.35,-14.14 v -7.93 c 5.35,0 19.92,0 31.99,6.09 v -112.69 c 0,-7.39 0,-10.24 -22.07,-10.24 h -8.32 v -7.93 c 3.94,0.2 31.09,0.9 39.33,0.9 6.88,0 34.73,-0.7 39.53,-0.9 v 7.93 h -8.36 c -22.14,0 -22.14,2.85 -22.14,10.24 z"
         style="fill:#000000;fill-opacity:1;fill-rule:evenodd;stroke:none"
         transform="matrix(0.05333333,0,0,-0.05333333,34368.309,770.89467)"
         clip-path="url(#clipPath8905)"
         id="path8982" />
      <path
         d="m 4573.55,5385.27 v 0.12 l -0.07,0.2 v 0.23 l -0.04,0.16 v 0.04 l -0.08,0.15 -0.08,0.12 -0.04,0.12 -0.08,0.11 -0.03,0.2 -0.16,0.12 -0.35,0.58 -0.2,0.2 -0.19,0.23 -0.12,0.16 -0.08,0.11 -0.39,0.4 -0.12,0.19 -0.23,0.24 -0.16,0.19 -0.19,0.12 -0.12,0.19 -0.19,0.2 -0.12,0.19 -0.2,0.2 -0.19,0.16 -0.2,0.19 -0.15,0.2 -0.47,0.46 -0.2,0.16 -0.19,0.27 -0.24,0.2 -0.27,0.23 -0.24,0.28 c -39.45,39.84 -49.57,99.57 -49.57,147.89 0,55.04 12,110.12 50.9,149.53 4.06,3.87 4.06,4.49 4.06,5.43 0,2.23 -1.21,3.12 -3.12,3.12 -3.16,0 -31.6,-21.44 -50.23,-61.56 -16.18,-34.84 -19.93,-69.92 -19.93,-96.52 0,-24.69 3.48,-62.81 20.82,-98.6 18.91,-38.9 46.18,-59.37 49.34,-59.37 1.91,0 3.12,0.86 3.12,3.16 z"
         style="fill:#000000;fill-opacity:1;fill-rule:evenodd;stroke:none"
         transform="matrix(0.05333333,0,0,-0.05333333,34368.309,770.89467)"
         clip-path="url(#clipPath8906)"
         id="path8983" />
      <path
         d="m 4792.27,5643.83 0.66,2.34 0.31,1.21 0.35,1.17 0.39,1.06 0.47,1.09 0.43,1.06 1.02,2.03 0.58,1.01 0.63,0.98 0.7,0.86 0.71,0.9 0.82,0.9 0.82,0.74 0.89,0.86 0.94,0.74 1.02,0.7 1.13,0.71 1.13,0.62 1.29,0.59 1.33,0.55 1.45,0.5 1.48,0.51 1.56,0.47 1.72,0.35 1.8,0.39 1.87,0.28 2,0.31 2.07,0.19 2.22,0.16 1.14,0.08 h 1.17 c 1.56,0 5.39,0.31 5.39,6.36 0,0.32 0,3.48 -4.06,3.48 -10.43,0 -21.53,-1.01 -32.23,-1.01 -10.86,0 -22.54,1.01 -32.93,1.01 -1.91,0 -5.66,0 -5.66,-6.37 0,-3.47 3.16,-3.47 5.66,-3.47 18.05,-0.24 21.48,-6.92 21.48,-13.83 0,-1.02 -0.7,-5.78 -1.01,-6.68 l -28.44,-112.93 c -10.7,-42.34 -47.07,-69.8 -78.67,-69.8 -21.45,0 -38.56,13.9 -38.56,41.05 0,0.7 0,10.78 3.4,24.69 l 30.78,122.97 c 2.82,11.36 3.44,14.53 26.61,14.53 8.12,0 10.66,0 10.66,6.36 0,3.48 -3.52,3.48 -4.45,3.48 -8.83,0 -31.61,-1.01 -40.47,-1.01 -9.1,0 -31.6,1.01 -40.74,1.01 -2.54,0 -6.06,0 -6.06,-6.37 0,-3.47 2.85,-3.47 8.91,-3.47 0.62,0 6.64,0 12.03,-0.59 5.66,-0.66 8.51,-1.01 8.51,-5.04 0,-1.99 -3.47,-15.19 -5.31,-22.5 l -7.07,-27.77 c -2.77,-12.38 -17.93,-72.07 -19.3,-78.13 -2.14,-8.79 -2.14,-13.55 -2.14,-18.32 0,-38.59 28.75,-60.66 61.99,-60.66 39.72,0 79.02,35.66 89.41,77.42 z"
         style="fill:#000000;fill-opacity:1;fill-rule:evenodd;stroke:none"
         transform="matrix(0.05333333,0,0,-0.05333333,34368.309,770.89467)"
         clip-path="url(#clipPath8907)"
         id="path8984" />
      <path
         d="m 4927.93,5445.04 1.91,1.95 1.8,2.03 3.36,4.22 1.64,2.15 1.52,2.07 1.45,2.19 1.41,2.15 1.28,2.15 1.25,2.14 1.22,2.19 1.13,2.07 1.09,2.11 1.02,2.03 0.94,2.03 0.89,1.88 0.82,1.91 0.82,1.84 0.71,1.8 0.62,1.71 0.63,1.57 0.51,1.6 0.5,1.4 0.47,1.33 0.39,1.25 0.32,1.1 0.23,1.01 0.27,0.9 0.2,0.66 0.12,0.67 0.03,0.43 v 0.31 c 0,2.85 -2.65,2.85 -3.71,2.85 -3.2,0 -3.2,-0.54 -4.72,-5.43 -3.91,-14.69 -11.29,-28.2 -20.63,-40.04 -0.15,3.21 -0.54,18.13 -1.05,20.08 -3.32,21.92 -19.81,36.02 -41.96,36.02 l -0.23,-6.17 c 17.7,0 22.77,-17.08 24.53,-30.71 1.29,-9.53 0.9,-25.19 1.99,-36.87 -21.72,-17.78 -40.43,-19.73 -48.86,-19.73 -14.61,0 -22.86,9.69 -22.86,24.53 0,6.37 3.17,30.47 14.73,45.7 10.08,13.33 22.7,17.08 30.47,17.08 l 0.23,6.17 c -32.5,0 -63.71,-30.24 -63.71,-61.17 0,-20.32 14.85,-38.48 40.43,-38.48 20.43,0 38.75,9.22 51.1,18.71 5.11,-16.17 16.4,-18.71 22.97,-18.71 12.85,0 20.78,10.78 20.78,15.51 0,2.65 -2.66,2.65 -3.71,2.65 -2.89,0 -3.32,-0.9 -3.83,-2.3 -3.05,-8.32 -9.89,-9.69 -12.58,-9.69 -3.05,0 -6.84,0 -7.93,27.15 z"
         style="fill:#000000;fill-opacity:1;fill-rule:evenodd;stroke:none"
         transform="matrix(0.05333333,0,0,-0.05333333,34368.309,770.89467)"
         clip-path="url(#clipPath8908)"
         id="path8985" />
      <path
         d="m 5078.79,5540.08 v 2.34 l -0.08,2.5 v 2.46 l -0.12,2.62 -0.27,5.31 -0.35,5.59 -0.51,5.86 -0.7,6.01 -0.82,6.18 -1.02,6.4 -1.29,6.45 -1.44,6.56 -1.72,6.64 -1.92,6.72 -2.22,6.8 -2.46,6.79 -2.82,6.72 -1.52,3.36 -1.56,3.36 c -18.91,38.87 -46.13,59.41 -49.3,59.41 -1.83,0 -3.2,-1.21 -3.2,-3.12 0,-0.94 0,-1.56 5.98,-7.31 31.01,-31.21 49.1,-81.52 49.1,-147.65 0,-53.99 -11.72,-109.65 -51.02,-149.49 -4.06,-3.75 -4.06,-4.42 -4.06,-5.32 0,-1.91 1.37,-3.16 3.2,-3.16 3.17,0 31.53,21.48 50.31,61.6 16.06,34.69 19.81,69.81 19.81,96.37 z"
         style="fill:#000000;fill-opacity:1;fill-rule:evenodd;stroke:none"
         transform="matrix(0.05333333,0,0,-0.05333333,34368.309,770.89467)"
         clip-path="url(#clipPath8909)"
         id="path8986" />
      <path
         d="m 7226.45,1811.72 0.07,0.27 0.08,0.24 0.08,0.43 0.12,0.35 0.08,0.43 0.07,0.35 0.16,0.27 0.08,0.35 0.04,0.28 0.07,0.31 v 0.27 l 0.16,0.55 0.08,0.23 v 0.2 l 0.04,0.23 v 0.2 l 0.08,0.23 v 0.2 l 0.07,0.35 v 1.13 l 0.08,0.36 v 0.85 c 0,6.45 -4.88,9.57 -10.19,9.57 -3.56,0 -9.22,-2.1 -12.42,-7.46 -0.71,-1.75 -3.56,-12.61 -4.89,-19.06 -2.58,-9.14 -4.96,-18.71 -7.11,-28.2 l -15.93,-63.6 c -1.37,-5.31 -16.53,-30 -39.85,-30 -18.01,0 -21.99,15.47 -21.99,28.6 0,16.21 6.09,38.2 18.09,69.18 5.66,14.53 7.11,18.44 7.11,25.51 0,15.82 -11.29,28.86 -29.03,28.86 -33.59,0 -46.64,-51.13 -46.64,-54.37 0,-3.56 3.56,-3.56 4.34,-3.56 3.51,0 3.83,0.78 5.58,6.45 9.57,33.28 23.6,43.75 35.67,43.75 2.85,0 8.86,0 8.86,-11.25 0,-8.87 -3.55,-17.97 -6.01,-24.77 -14.14,-37.42 -20.59,-57.54 -20.59,-74.22 0,-31.32 22.35,-41.95 43.13,-41.95 13.86,0 25.78,6.02 35.66,15.86 -4.57,-18.28 -8.75,-35.66 -22.93,-54.45 -9.22,-11.92 -22.62,-22.27 -38.83,-22.27 -4.88,0 -20.86,1.13 -26.87,14.92 5.66,0 10.35,0 15.16,4.3 3.55,3.05 7.1,7.73 7.1,14.41 0,10.98 -9.49,12.39 -13.04,12.39 -8.09,0 -19.85,-5.67 -19.85,-22.97 0,-17.7 15.67,-30.74 37.5,-30.74 36.45,0 72.74,32.22 82.74,72.07 z"
         style="fill:#000000;fill-opacity:1;fill-rule:evenodd;stroke:none"
         transform="matrix(0.05333333,0,0,-0.05333333,34368.309,770.89467)"
         clip-path="url(#clipPath8910)"
         id="path8987" />
      <path
         d="m 7189.14,6122.54 c -475,-11.88 -40,-898.32 -439.37,-890.63"
         style="fill:none;stroke:#000000;stroke-width:7.51181;stroke-linecap:butt;stroke-linejoin:bevel;stroke-miterlimit:4;stroke-dasharray:none;stroke-opacity:1"
         transform="matrix(0.05333333,0,0,-0.05333333,34368.309,770.89467)"
         clip-path="url(#clipPath8911)"
         id="path8988" />
      <path
         d="m 7189.14,4341.29 c -475,11.87 -40,898.32 -439.37,890.62"
         style="fill:none;stroke:#000000;stroke-width:7.51181;stroke-linecap:butt;stroke-linejoin:bevel;stroke-miterlimit:4;stroke-dasharray:none;stroke-opacity:1"
         transform="matrix(0.05333333,0,0,-0.05333333,34368.309,770.89467)"
         clip-path="url(#clipPath8912)"
         id="path8989" />
      <path
         d="m 6557.66,547.66 -0.36,-1.289 -0.31,-1.211 -0.35,-1.14 -0.27,-1.09 -0.32,-1.09 -0.35,-0.899 -0.35,-0.941 -0.35,-0.859 -0.35,-0.821 -0.43,-0.781 -0.51,-0.699 -0.51,-0.668 -0.5,-0.621 -0.63,-0.512 -0.66,-0.59 -0.78,-0.429 -0.79,-0.5 -1.87,-0.711 -1.09,-0.348 -1.14,-0.309 -0.66,-0.121 -0.63,-0.082 -0.66,-0.148 -0.7,-0.121 -0.71,-0.078 -0.74,-0.082 -0.78,-0.071 -0.86,-0.16 -0.78,-0.039 -0.94,-0.078 h -0.86 l -0.94,-0.082 -1.01,-0.07 h -1.02 l -0.97,-0.079 h -1.1 l -1.13,-0.082 h -6.09 c -6.14,0 -9.69,0 -9.69,-7.148 0,-3.941 3.28,-3.941 9.69,-3.941 h 127.57 c 56.49,0 98.68,42.101 98.68,77.179 0,25.711 -20.75,46.453 -55.39,50.391 37.26,6.84 74.76,33.32 74.76,67.351 0,26.399 -23.67,49.289 -66.56,49.289 l -4.96,-11.128 c 31.4,0 38.9,-21.012 38.9,-36.762 0,-31.481 -30.74,-65.5 -74.29,-65.5 h -52.19 l -2.15,-7.82 h 67.54 c 34.3,0 41.13,-26.481 41.13,-41.829 0,-35.472 -31.79,-70.082 -73.98,-70.082 h -48.67 c -4.96,0 -5.75,0 -7.82,0.313 -3.59,0.348 -4.6,0.699 -4.6,3.598 0,0.968 0,1.789 1.79,8.16 l 24.61,99.84 2.15,7.82 22.11,88.711 c 3.24,12.461 3.87,13.551 19.37,13.551 h 46.1 l 4.96,11.128 h -120.08 c -6.76,0 -10.35,0 -10.35,-7.179 0,-3.949 3.16,-3.949 10,-3.949 0.62,0 7.54,0 13.55,-0.661 6.37,-0.781 9.61,-1.14 9.61,-5.742 0,-1.41 -0.27,-2.578 -1.44,-6.797 z"
         style="fill:#000000;fill-opacity:1;fill-rule:evenodd;stroke:none"
         transform="matrix(0.05333333,0,0,-0.05333333,34368.309,770.89467)"
         clip-path="url(#clipPath8913)"
         id="path8990" />
      <path
         d="m 7134.53,636.719 h 3.09 l 0.47,0.082 h 0.5 l 0.59,0.07 1.02,0.16 0.5,0.039 0.47,0.082 0.43,0.149 0.51,0.16 0.43,0.121 0.43,0.148 0.43,0.239 0.43,0.191 0.39,0.281 0.35,0.231 0.63,0.629 0.31,0.39 0.12,0.188 0.07,0.242 0.16,0.109 0.16,0.239 0.03,0.191 0.08,0.32 0.16,0.192 0.08,0.308 0.08,0.2 v 0.269 l 0.03,0.321 0.08,0.269 v 0.27 l 0.08,0.312 v 0.629 c 0,7.191 -6.87,7.191 -11.76,7.191 h -214.22 c -5.03,0 -11.79,0 -11.79,-7.191 0,-7.031 6.76,-7.031 12.15,-7.031 z"
         style="fill:#000000;fill-opacity:1;fill-rule:evenodd;stroke:none"
         transform="matrix(0.05333333,0,0,-0.05333333,34368.309,770.89467)"
         clip-path="url(#clipPath8914)"
         id="path8991" />
      <path
         d="m 7134.88,567.27 h 0.94 l 0.98,0.07 h 1.44 l 0.51,0.082 0.51,0.039 h 0.51 l 0.5,0.078 0.47,0.16 0.51,0.071 0.43,0.121 0.43,0.16 0.51,0.148 0.43,0.121 0.35,0.231 0.43,0.199 0.39,0.309 0.7,0.55 0.28,0.391 0.15,0.121 0.16,0.231 0.12,0.16 0.07,0.187 0.16,0.242 0.16,0.188 0.03,0.242 0.08,0.188 0.16,0.281 0.08,0.23 0.08,0.27 v 0.32 l 0.03,0.27 0.08,0.269 v 0.321 l 0.08,0.269 v 0.66 c 0,7.153 -6.87,7.153 -12.11,7.153 h -213.51 c -5.39,0 -12.15,0 -12.15,-7.153 0,-7.179 6.76,-7.179 11.79,-7.179 z"
         style="fill:#000000;fill-opacity:1;fill-rule:evenodd;stroke:none"
         transform="matrix(0.05333333,0,0,-0.05333333,34368.309,770.89467)"
         clip-path="url(#clipPath8915)"
         id="path8992" />
      <path
         d="m 7497.58,768.199 v 0.281 l -0.08,0.071 v 0.32 l -0.08,0.109 v 0.161 l -0.04,0.16 v 0.109 l -0.15,0.32 -0.08,0.11 -0.16,0.32 -0.11,0.11 -0.08,0.16 -0.28,0.269 -0.07,0.16 -0.16,0.161 -0.2,0.07 -0.15,0.121 -0.16,0.078 -0.19,0.16 -0.24,0.071 -0.19,0.039 -0.08,0.082 h -0.16 l -0.08,0.078 h -0.27 l -0.16,0.082 h -0.78 c -1.79,0 -2.22,-0.281 -6.52,-5.391 l -17.15,-20.39 c -9.26,16.789 -27.93,25.781 -51.09,25.781 -45.43,0 -88.28,-41.141 -88.28,-84.422 0,-28.899 18.94,-45.43 37.11,-50.66 l 38.24,-10.117 c 13.2,-3.161 32.93,-8.512 32.93,-37.891 0,-32.231 -29.34,-65.742 -64.3,-65.742 -22.89,0 -62.58,7.89 -62.58,52.191 0,8.59 1.8,17.141 2.15,19.289 0.31,1.453 0.66,1.801 0.66,2.5 0,3.602 -2.46,3.992 -4.25,3.992 -1.8,0 -2.5,-0.39 -3.6,-1.453 -1.48,-1.437 -21.44,-82.968 -21.44,-83.976 0,-2.153 1.79,-3.602 3.94,-3.602 1.8,0 2.07,0.32 6.41,5.391 l 17.58,20.238 c 15.35,-20.738 39.61,-25.629 60.35,-25.629 48.67,0 90.78,47.539 90.78,91.801 0,24.691 -12.07,36.91 -17.42,41.84 -8.28,8.32 -13.63,9.609 -45.43,17.969 -7.89,2.14 -20.74,5.742 -24.06,6.359 -9.61,3.242 -21.76,13.562 -21.76,32.5 0,29.07 28.67,59.461 62.62,59.461 29.68,0 51.44,-15.391 51.44,-55.508 0,-11.41 -1.44,-17.852 -1.44,-19.922 0,-0.39 0,-3.601 4.37,-3.601 3.59,0 3.95,1.062 5.24,7.191 z"
         style="fill:#000000;fill-opacity:1;fill-rule:evenodd;stroke:none"
         transform="matrix(0.05333333,0,0,-0.05333333,34368.309,770.89467)"
         clip-path="url(#clipPath8916)"
         id="path8993" />
      <path
         d="m 7590.94,807.969 v 2.73 l -0.04,0.203 v 0.43 l -0.08,0.227 v 0.351 l -0.08,0.242 v 0.118 l -0.08,0.152 v 0.199 l -0.07,0.309 -0.12,0.269 -0.16,0.242 -0.15,0.188 -0.12,0.242 -0.16,0.188 -0.23,0.16 -0.2,0.121 -0.23,0.07 -0.27,0.16 -0.28,0.082 -0.39,0.078 -0.27,0.04 -0.2,0.07 h -0.39 l -0.19,0.082 h -0.94 l -0.24,0.078 h -2.57 c -16.06,-15.781 -38.75,-16.02 -48.99,-16.02 v -8.941 c 6.02,0 22.5,0 36.21,6.871 V 669.449 c 0,-8.32 0,-11.558 -25.04,-11.558 h -9.41 v -8.942 c 4.45,0.192 35.2,0.973 44.53,0.973 7.74,0 39.22,-0.781 44.69,-0.973 v 8.942 h -9.45 c -25.08,0 -25.08,3.238 -25.08,11.558 z"
         style="fill:#000000;fill-opacity:1;fill-rule:evenodd;stroke:none"
         transform="matrix(0.05333333,0,0,-0.05333333,34368.309,770.89467)"
         clip-path="url(#clipPath8917)"
         id="path8994" />
      <path
         d="m 4668.44,6731.41 h 30.7 c 23.83,0 26.33,-5.08 26.33,-14.26 0,-2.27 0,-6.02 -2.19,-15.51 -0.7,-1.56 -1.01,-2.85 -1.01,-3.55 0,-2.47 1.91,-3.75 3.82,-3.75 3.17,0 3.17,0.97 4.77,6.68 l 17.5,68.71 c 0.86,3.43 0.86,4.14 0.86,5.04 0,0.62 -0.63,3.47 -3.79,3.47 -3.2,0 -3.44,-1.56 -4.77,-6.68 -6.64,-24.57 -13.86,-30.35 -40.82,-30.35 h -28.79 l 20.28,80.47 c 2.73,11.09 3.16,12.3 17.03,12.3 h 41.84 c 38.94,0 46.21,-10.43 46.21,-34.76 0,-7.38 0,-8.56 -0.9,-17.15 -0.71,-4.14 -0.71,-4.73 -0.71,-5.74 0,-1.56 0.94,-3.75 3.87,-3.75 3.44,0 3.75,1.91 4.42,7.97 l 6.32,54.72 c 0.98,8.52 -0.62,8.52 -8.55,8.52 h -155.12 c -6.36,0 -9.53,0 -9.53,-6.37 0,-3.44 2.85,-3.44 8.83,-3.44 11.72,0 20.55,0 20.55,-5.62 0,-1.37 0,-1.91 -1.61,-7.7 L 4622.3,6653.2 c -3.2,-12.38 -3.9,-14.84 -28.94,-14.84 -5.31,0 -8.83,0 -8.83,-6.13 0,-3.75 3.75,-3.75 4.77,-3.75 9.14,0 32.61,1.01 41.83,1.01 10.43,0 36.72,-1.01 47.15,-1.01 2.85,0 6.68,0 6.68,6.05 0,2.46 -1.91,3.13 -1.91,3.48 -1.02,0.35 -1.57,0.35 -8.83,0.35 -7.07,0 -8.63,0 -16.45,0.55 -9.29,1.01 -10.19,2.3 -10.19,6.36 0,0.59 0,2.62 1.21,7.23 z"
         style="fill:#000000;fill-opacity:1;fill-rule:evenodd;stroke:none"
         transform="matrix(0.05333333,0,0,-0.05333333,34368.309,770.89467)"
         clip-path="url(#clipPath8918)"
         id="path8995" />
      <path
         d="m 4899.3,6664.73 0.08,0.11 0.07,0.2 v 0.12 l 0.04,0.15 v 0.12 l 0.08,0.12 0.04,0.27 0.08,0.16 0.08,0.19 0.03,0.28 v 0.19 l 0.08,0.12 0.08,0.19 v 0.2 l 0.04,0.12 v 0.11 l 0.08,0.16 v 0.12 l 0.04,0.11 v 0.39 l 0.08,0.12 v 1.33 c 0,4.37 -3.56,7.07 -7.31,7.07 -2.42,0 -6.68,-1.09 -9.02,-5.27 -0.71,-1.41 -2.5,-8.48 -3.64,-12.93 l -4.64,-18.36 c -1.25,-5.28 -8.13,-33.17 -8.83,-35.67 -0.2,0 -9.92,-19.25 -27.19,-19.25 -15.16,0 -15.16,14.37 -15.16,18.35 0,12.04 5.12,25.94 11.76,43.01 2.7,7.03 3.75,9.69 3.75,13.52 0,10.62 -9.02,18.75 -21.01,18.75 -22.39,0 -32.31,-30.08 -32.31,-33.87 0,-2.85 3.05,-2.85 3.75,-2.85 3.13,0 3.32,1.05 4.03,3.55 5.5,18.36 15.03,27 23.9,27 3.79,0 5.43,-2.46 5.43,-7.74 0,-5.04 -1.95,-9.92 -3.05,-12.77 -10.58,-27.03 -12.81,-35.28 -12.81,-45 0,-3.75 0,-14.18 8.63,-21.25 6.88,-5.78 16.22,-6.88 22.19,-6.88 8.83,0 16.8,3.25 24.1,9.93 -2.89,-12.19 -5.35,-21.41 -14.57,-32.54 -5.97,-6.88 -14.92,-14.11 -26.64,-14.11 -1.52,0 -11.95,0 -16.6,7.23 11.92,1.29 11.92,12.03 11.92,12.23 0,7.03 -6.37,8.32 -8.6,8.32 -5.47,0 -12.85,-4.38 -12.85,-14.61 0,-11.21 10.62,-19.45 26.33,-19.45 22.42,0 49.65,17.26 56.52,45 z"
         style="fill:#000000;fill-opacity:1;fill-rule:evenodd;stroke:none"
         transform="matrix(0.05333333,0,0,-0.05333333,34368.309,770.89467)"
         clip-path="url(#clipPath8919)"
         id="path8996" />
      <path
         d="m 5234.06,6732.11 h 2.74 l 0.43,0.04 h 0.5 l 0.43,0.08 0.47,0.07 0.43,0.04 0.47,0.08 0.43,0.08 0.39,0.12 0.43,0.11 0.39,0.12 0.39,0.16 0.35,0.15 0.39,0.2 0.32,0.27 0.31,0.2 0.35,0.31 0.24,0.23 0.27,0.36 0.12,0.15 0.11,0.2 0.08,0.15 0.12,0.16 0.08,0.2 0.11,0.27 0.04,0.19 0.08,0.24 0.08,0.19 0.04,0.28 v 0.23 l 0.08,0.28 v 0.23 l 0.07,0.27 v 0.55 c 0,6.37 -6.05,6.37 -10.42,6.37 h -189.69 c -4.53,0 -10.43,0 -10.43,-6.37 0,-6.21 5.9,-6.21 10.66,-6.21 z"
         style="fill:#000000;fill-opacity:1;fill-rule:evenodd;stroke:none"
         transform="matrix(0.05333333,0,0,-0.05333333,34368.309,770.89467)"
         clip-path="url(#clipPath8920)"
         id="path8997" />
      <path
         d="m 5234.38,6670.59 h 0.82 l 0.89,0.03 h 1.33 l 0.43,0.08 0.47,0.08 h 0.43 l 0.39,0.04 0.43,0.12 0.47,0.08 1.17,0.39 0.39,0.11 0.39,0.2 0.31,0.19 0.32,0.24 0.31,0.27 0.35,0.24 0.35,0.46 0.16,0.2 0.12,0.12 0.11,0.19 0.08,0.2 0.12,0.15 0.08,0.2 0.11,0.19 0.04,0.28 0.08,0.19 0.08,0.24 0.04,0.27 v 0.24 l 0.08,0.27 v 0.23 l 0.07,0.28 v 0.54 c 0,6.37 -6.05,6.37 -10.74,6.37 h -189.14 c -4.76,0 -10.66,0 -10.66,-6.37 0,-6.32 5.9,-6.32 10.43,-6.32 z"
         style="fill:#000000;fill-opacity:1;fill-rule:evenodd;stroke:none"
         transform="matrix(0.05333333,0,0,-0.05333333,34368.309,770.89467)"
         clip-path="url(#clipPath8921)"
         id="path8998" />
      <path
         d="m 5469.06,6820.39 0.24,1.02 0.27,1.01 0.23,0.98 0.28,0.86 0.23,0.9 0.28,0.82 0.31,0.78 0.62,1.4 0.39,0.71 0.43,0.54 0.47,0.59 0.43,0.55 0.59,0.54 1.25,0.86 0.78,0.39 0.74,0.39 0.9,0.32 0.94,0.31 1.05,0.27 0.55,0.12 0.59,0.12 0.62,0.11 0.59,0.16 0.7,0.04 0.62,0.16 0.71,0.03 0.74,0.08 0.7,0.12 0.82,0.08 0.78,0.04 h 0.9 l 0.82,0.08 0.9,0.07 0.94,0.04 h 1.91 l 1.02,0.08 h 4.45 c 7.54,0 10.12,0 10.12,6.09 0,3.75 -3.44,3.75 -4.77,3.75 -9.22,0 -32.69,-1.01 -41.83,-1.01 -9.53,0 -32.54,1.01 -42.11,1.01 -2.15,0 -6.33,0 -6.33,-6.36 0,-3.48 2.85,-3.48 8.83,-3.48 13.36,0 21.87,0 21.87,-6.05 0,-1.57 0,-2.15 -0.58,-5.08 l -42.7,-170.63 c -2.93,-11.68 -3.9,-14.84 -28.94,-14.84 -7.23,0 -10.16,0 -10.16,-6.37 0,-3.51 3.95,-3.51 4.77,-3.51 9.25,0 32.26,1.01 41.56,1.01 9.53,0 32.93,-1.01 42.38,-1.01 2.62,0 6.37,0 6.37,6.05 0,3.83 -2.62,3.83 -9.53,3.83 -5.67,0 -7.23,0 -13.6,0.55 -6.68,0.7 -7.89,1.91 -7.89,5.35 0,2.61 0.63,5.08 1.21,7.38 z"
         style="fill:#000000;fill-opacity:1;fill-rule:evenodd;stroke:none"
         transform="matrix(0.05333333,0,0,-0.05333333,34368.309,770.89467)"
         clip-path="url(#clipPath8922)"
         id="path8999" />
      <path
         d="m 5820.63,6732.11 h 2.73 l 0.47,0.04 h 0.43 l 0.51,0.08 0.43,0.07 0.46,0.04 0.86,0.16 0.39,0.12 0.47,0.11 0.35,0.12 0.79,0.31 0.39,0.2 0.31,0.27 0.31,0.2 0.31,0.31 0.28,0.23 0.23,0.36 0.12,0.15 0.08,0.2 0.11,0.15 0.16,0.16 0.04,0.2 0.08,0.27 0.11,0.19 0.08,0.24 0.04,0.19 v 0.28 l 0.08,0.23 0.08,0.28 v 0.23 l 0.04,0.27 v 0.55 c 0,6.37 -6.1,6.37 -10.43,6.37 h -189.73 c -4.45,0 -10.43,0 -10.43,-6.37 0,-6.21 5.98,-6.21 10.74,-6.21 z"
         style="fill:#000000;fill-opacity:1;fill-rule:evenodd;stroke:none"
         transform="matrix(0.05333333,0,0,-0.05333333,34368.309,770.89467)"
         clip-path="url(#clipPath8923)"
         id="path9000" />
      <path
         d="m 5820.94,6670.59 h 0.82 l 0.9,0.03 h 1.29 l 0.43,0.08 0.46,0.08 h 0.43 l 0.43,0.04 0.47,0.12 0.43,0.08 0.39,0.11 0.39,0.16 0.43,0.12 0.39,0.11 0.32,0.2 0.39,0.19 0.31,0.24 0.31,0.27 0.31,0.24 0.28,0.31 0.11,0.15 0.12,0.2 0.12,0.12 0.08,0.19 0.11,0.2 0.16,0.15 0.04,0.2 0.08,0.19 0.11,0.28 0.08,0.19 0.04,0.24 v 0.27 l 0.08,0.24 0.08,0.27 v 0.23 l 0.04,0.28 v 0.54 c 0,6.37 -6.1,6.37 -10.74,6.37 h -189.11 c -4.76,0 -10.74,0 -10.74,-6.37 0,-6.32 5.98,-6.32 10.43,-6.32 z"
         style="fill:#000000;fill-opacity:1;fill-rule:evenodd;stroke:none"
         transform="matrix(0.05333333,0,0,-0.05333333,34368.309,770.89467)"
         clip-path="url(#clipPath8924)"
         id="path9001" />
      <path
         d="m 6021.05,6746.6 h 35.71 c -10.39,-46.91 -13.28,-60.51 -13.28,-81.68 0,-4.76 0,-13.28 2.61,-24.1 3.17,-13.91 6.61,-15.82 11.37,-15.82 6.29,0 12.93,5.66 12.93,11.99 0,1.92 0,2.62 -1.84,6.99 -9.17,22.86 -9.17,43.36 -9.17,52.27 0,16.8 2.18,33.95 5.66,50.35 h 36.17 c 4.06,0 15.51,0 15.51,10.78 0,7.58 -6.68,7.58 -12.7,7.58 h -106.09 c -6.99,0 -19.02,0 -32.89,-14.92 -11.09,-12.27 -19.38,-26.92 -19.38,-28.48 0,-0.31 0,-3.04 3.75,-3.04 2.62,0 3.17,1.13 5.08,3.75 15.59,24.33 33.95,24.33 40.24,24.33 h 18.04 c -10.07,-38.28 -27.18,-76.6 -40.47,-105.39 -2.61,-4.76 -2.61,-5.47 -2.61,-7.62 0,-6.13 5.08,-8.59 9.22,-8.59 9.53,0 12.03,8.83 15.82,20.59 4.45,14.57 4.45,15.19 8.51,31.09 z"
         style="fill:#000000;fill-opacity:1;fill-rule:evenodd;stroke:none"
         transform="matrix(0.05333333,0,0,-0.05333333,34368.309,770.89467)"
         clip-path="url(#clipPath8925)"
         id="path9002" />
      <path
         d="m 6294.14,6792.93 h 0.7 l 0.71,0.08 h 1.13 l 0.39,0.04 h 0.35 l 0.39,0.07 0.32,0.08 0.39,0.04 0.39,0.08 0.31,0.08 0.39,0.12 0.62,0.23 0.63,0.31 0.27,0.2 0.24,0.19 0.51,0.51 0.15,0.12 0.12,0.15 0.04,0.12 0.15,0.2 0.04,0.11 0.08,0.2 0.12,0.12 0.08,0.19 0.04,0.2 0.15,0.39 v 0.19 l 0.04,0.24 v 0.19 l 0.08,0.2 v 0.74 c 0,5.47 -5.04,5.47 -8.83,5.47 h -131.95 c -3.64,0 -8.87,0 -8.87,-5.27 0,-5.59 5.04,-5.59 8.87,-5.59 z"
         style="fill:#000000;fill-opacity:1;fill-rule:evenodd;stroke:none"
         transform="matrix(0.05333333,0,0,-0.05333333,34368.309,770.89467)"
         clip-path="url(#clipPath8926)"
         id="path9003" />
      <path
         d="m 6401.09,6883.79 v 1.95 l -0.04,0.24 v 0.78 l -0.07,0.19 v 0.32 l -0.04,0.19 v 0.12 l -0.08,0.12 v 0.19 l -0.12,0.27 -0.08,0.24 -0.23,0.39 -0.16,0.19 -0.11,0.2 -0.39,0.23 -0.2,0.08 -0.23,0.12 -0.28,0.08 -0.31,0.04 -0.12,0.07 h -0.11 l -0.2,0.08 h -0.31 l -0.2,0.04 h -0.82 l -0.19,0.08 h -2.31 c -14.22,-13.98 -34.29,-14.18 -43.4,-14.18 v -7.93 c 5.36,0 19.96,0 32.04,6.09 v -112.89 c 0,-7.38 0,-10.23 -22.11,-10.23 h -8.36 v -7.97 c 3.94,0.2 31.17,0.9 39.41,0.9 6.88,0 34.81,-0.7 39.61,-0.9 v 7.97 h -8.4 c -22.19,0 -22.19,2.85 -22.19,10.23 z"
         style="fill:#000000;fill-opacity:1;fill-rule:evenodd;stroke:none"
         transform="matrix(0.05333333,0,0,-0.05333333,34368.309,770.89467)"
         clip-path="url(#clipPath8927)"
         id="path9004" />
      <path
         d="m 6573.55,6552.54 v 0.55 l -0.03,0.15 v 0.04 l -0.08,0.16 -0.08,0.11 -0.04,0.12 -0.08,0.12 -0.11,0.19 -0.08,0.12 -0.24,0.39 -0.19,0.2 -0.12,0.19 -0.2,0.24 -0.15,0.15 -0.04,0.12 -0.12,0.12 -0.15,0.11 -0.12,0.16 -0.12,0.2 -0.12,0.11 -0.15,0.12 -0.12,0.2 -0.19,0.11 -0.12,0.2 -0.39,0.39 -0.12,0.19 -0.39,0.4 -0.2,0.15 -0.19,0.2 -0.23,0.27 -1.14,1.13 c -39.57,39.92 -49.65,99.73 -49.65,148.17 0,55.11 12,110.31 50.9,149.76 4.06,3.87 4.06,4.53 4.06,5.47 0,2.23 -1.13,3.13 -3.04,3.13 -3.17,0 -31.72,-21.49 -50.35,-61.68 -16.21,-34.89 -19.96,-70.04 -19.96,-96.68 0,-24.73 3.43,-62.93 20.85,-98.75 18.95,-38.99 46.29,-59.53 49.46,-59.53 1.91,0 3.04,0.89 3.04,3.2 z"
         style="fill:#000000;fill-opacity:1;fill-rule:evenodd;stroke:none"
         transform="matrix(0.05333333,0,0,-0.05333333,34368.309,770.89467)"
         clip-path="url(#clipPath8928)"
         id="path9005" />
      <path
         d="m 6745.59,6749.14 v 0.23 l 0.04,0.2 0.15,0.39 0.04,0.31 0.12,0.39 0.08,0.32 0.07,0.27 0.04,0.31 0.08,0.24 0.08,0.27 0.04,0.23 0.08,0.28 0.07,0.23 v 0.2 l 0.04,0.19 v 0.2 l 0.08,0.19 v 0.2 l 0.04,0.19 v 0.32 l 0.08,0.39 v 1.68 c 0,5.82 -4.34,8.59 -9.1,8.59 -3.17,0 -8.24,-1.91 -11.1,-6.68 -0.66,-1.56 -3.2,-11.29 -4.41,-17.07 -2.27,-8.2 -4.49,-16.8 -6.33,-25.31 l -14.33,-57.03 c -1.22,-4.77 -14.81,-26.88 -35.79,-26.88 -16.05,0 -19.64,13.87 -19.64,25.63 0,14.53 5.46,34.25 16.21,62.03 5.04,13.01 6.36,16.52 6.36,22.89 0,14.18 -10.15,25.86 -26.05,25.86 -30.08,0 -41.84,-45.82 -41.84,-48.75 0,-3.17 3.21,-3.17 3.87,-3.17 3.2,0 3.52,0.67 5.12,5.79 8.51,29.8 21.13,39.21 31.95,39.21 2.5,0 7.97,0 7.97,-10.11 0,-7.97 -3.2,-16.1 -5.47,-22.19 -12.62,-33.56 -18.4,-51.6 -18.4,-66.56 0,-28.09 19.96,-37.62 38.67,-37.62 12.39,0 23.13,5.39 31.96,14.22 -4.07,-16.37 -7.82,-31.95 -20.51,-48.79 -8.28,-10.7 -20.31,-19.96 -34.92,-19.96 -4.38,0 -18.67,1.01 -24.03,13.32 5.08,0 9.22,0 13.6,3.91 3.2,2.73 6.37,6.91 6.37,12.89 0,9.84 -8.52,11.13 -11.68,11.13 -7.27,0 -17.82,-5.08 -17.82,-20.59 0,-15.9 13.99,-27.61 33.56,-27.61 32.69,0 65.27,28.94 74.18,64.64 z"
         style="fill:#000000;fill-opacity:1;fill-rule:evenodd;stroke:none"
         transform="matrix(0.05333333,0,0,-0.05333333,34368.309,770.89467)"
         clip-path="url(#clipPath8929)"
         id="path9006" />
      <path
         d="m 6850.08,6707.62 v 4.84 l -0.08,2.46 -0.04,2.62 -0.27,5.35 -0.39,5.59 -0.55,5.86 -0.62,6.01 -0.9,6.17 -1.02,6.45 -1.29,6.48 -1.44,6.53 -1.68,6.68 -1.96,6.75 -2.22,6.8 -2.46,6.8 -1.37,3.36 -1.45,3.36 -1.52,3.39 -1.6,3.36 c -18.95,38.91 -46.13,59.5 -49.34,59.5 -1.87,0 -3.16,-1.21 -3.16,-3.13 0,-0.94 0,-1.6 5.98,-7.3 31.01,-31.29 49.14,-81.68 49.14,-147.93 0,-54.07 -11.76,-109.85 -51.06,-149.77 -4.06,-3.75 -4.06,-4.41 -4.06,-5.31 0,-1.92 1.29,-3.2 3.16,-3.2 3.21,0 31.6,21.56 50.35,61.71 16.1,34.81 19.85,69.93 19.85,96.57 z"
         style="fill:#000000;fill-opacity:1;fill-rule:evenodd;stroke:none"
         transform="matrix(0.05333333,0,0,-0.05333333,34368.309,770.89467)"
         clip-path="url(#clipPath8930)"
         id="path9007" />
      <path
         d="M 6046.6,6517.66 6668.05,5285.51"
         style="fill:none;stroke:#000000;stroke-width:7.5;stroke-linecap:butt;stroke-linejoin:miter;stroke-miterlimit:4;stroke-dasharray:none;stroke-opacity:1"
         transform="matrix(0.05333333,0,0,-0.05333333,34368.309,770.89467)"
         clip-path="url(#clipPath8931)"
         id="path9008" />
    </g>
  </g>
</svg>
